<svg xmlns="http://www.w3.org/2000/svg" width="121" height="121" viewBox="0 0 121 121">
  <g id="Grupo_12510" data-name="Grupo 12510" transform="translate(-325 -13202)">
    <circle id="Elipse_807" data-name="Elipse 807" cx="60.5" cy="60.5" r="60.5" transform="translate(325 13202)" fill="#ff8f00"/>
    <path id="Trazado_14012" data-name="Trazado 14012" d="M53.993,0A53.993,53.993,0,1,1,0,53.993,53.993,53.993,0,0,1,53.993,0Z" transform="translate(332 13209)" fill="#fff"/>
    <path id="Trazado_14475" data-name="Trazado 14475" d="M29.881,29.527a9.2,9.2,0,0,1-.83,3.965,9.356,9.356,0,0,1-2.285,3.135,10.76,10.76,0,0,1-3.35,2.012,11.357,11.357,0,0,1-8.076-.02,10.028,10.028,0,0,1-3.3-2.061,9.7,9.7,0,0,1-2.979-7.012,11.729,11.729,0,0,1,2.5-6.895L20.35,10.777h6.387l-7.324,9.551A9.516,9.516,0,0,1,20.7,20.25a9.2,9.2,0,0,1,3.467.664,9.388,9.388,0,0,1,2.92,1.846A8.54,8.54,0,0,1,29.109,25.7,9.872,9.872,0,0,1,29.881,29.527Zm-5.508-.137a4.821,4.821,0,0,0-1.367-3.643,4.973,4.973,0,0,0-3.691-1.416,4.767,4.767,0,0,0-3.574,1.426,5.036,5.036,0,0,0-1.426,3.555,4.63,4.63,0,0,0,4.941,5,5.087,5.087,0,0,0,3.672-1.367A4.766,4.766,0,0,0,24.373,29.391Z" transform="translate(365 13237)" fill="#00223d"/>
  </g>
</svg>
