<svg xmlns="http://www.w3.org/2000/svg" xmlns:xlink="http://www.w3.org/1999/xlink" width="550.589" height="309.623" viewBox="0 0 550.589 309.623">
  <defs>
    <clipPath id="clip-path">
      <rect id="Rectángulo_3122" data-name="Rectángulo 3122" width="550.589" height="309.623" fill="none"/>
    </clipPath>
  </defs>
  <g id="Grupo_12502" data-name="Grupo 12502" transform="translate(585.687 861.981)">
    <g id="Grupo_12501" data-name="Grupo 12501" transform="translate(-585.687 -861.982)" clip-path="url(#clip-path)">
      <path id="Trazado_14386" data-name="Trazado 14386" d="M-171.865-809.264a131.4,131.4,0,0,0-131.4,131.4,131.4,131.4,0,0,0-131.4-131.4c-72.273,0-131.4,60.45-131.4,132.722v.327h0a196.887,196.887,0,0,0,66.39,147.427l196.411,173.856,196.411-173.857A196.883,196.883,0,0,0-40.467-676.214h0v-.328C-40.467-748.814-99.592-809.263-171.865-809.264Z" transform="translate(579.029 844.092)" fill="#ea4952"/>
      <g id="Grupo_12500" data-name="Grupo 12500" transform="translate(115.536 12.596)">
        <path id="Trazado_14387" data-name="Trazado 14387" d="M-274.229-734.73c-.118-.048-.24-.087-.359-.13C-274.468-734.817-274.346-734.777-274.229-734.73Z" transform="translate(364.579 806.246)" fill="none"/>
        <path id="Trazado_14388" data-name="Trazado 14388" d="M-275.723-735.231c-.176-.054-.359-.094-.54-.139C-276.082-735.325-275.9-735.284-275.723-735.231Z" transform="translate(365.147 806.419)" fill="none"/>
        <path id="Trazado_14389" data-name="Trazado 14389" d="M-295.526-778.441q.6.053,1.192.123Q-294.93-778.388-295.526-778.441Z" transform="translate(371.684 821.035)" fill="none"/>
        <path id="Trazado_14390" data-name="Trazado 14390" d="M-277.446-735.616q-.5-.1-1.02-.161C-278.12-735.739-277.78-735.685-277.446-735.616Z" transform="translate(365.895 806.557)" fill="none"/>
        <path id="Trazado_14391" data-name="Trazado 14391" d="M-291.031-777.887c.2.03.392.058.588.09C-290.639-777.829-290.835-777.857-291.031-777.887Z" transform="translate(370.159 820.847)" fill="none"/>
        <path id="Trazado_14392" data-name="Trazado 14392" d="M-293-778.162c.238.03.476.059.714.093C-292.528-778.1-292.766-778.132-293-778.162Z" transform="translate(370.828 820.941)" fill="none"/>
        <path id="Trazado_14393" data-name="Trazado 14393" d="M-272.837-734.113c-.076-.038-.154-.072-.231-.109C-272.991-734.186-272.913-734.151-272.837-734.113Z" transform="translate(364.063 806.029)" fill="none"/>
        <path id="Trazado_14394" data-name="Trazado 14394" d="M-328.216-713.925l.8.3v-.451Z" transform="translate(382.777 799.192)" fill="none"/>
        <path id="Trazado_14395" data-name="Trazado 14395" d="M-269.2-731.658l-.017-.015Z" transform="translate(362.758 805.164)" fill="none"/>
        <path id="Trazado_14396" data-name="Trazado 14396" d="M-270.327-732.569l-.062-.045Z" transform="translate(363.154 805.484)" fill="none"/>
        <path id="Trazado_14397" data-name="Trazado 14397" d="M-289.1-777.573c.161.028.322.055.484.084C-288.782-777.518-288.943-777.545-289.1-777.573Z" transform="translate(369.505 820.741)" fill="none"/>
        <path id="Trazado_14398" data-name="Trazado 14398" d="M-271.537-733.39l-.134-.079Z" transform="translate(363.589 805.774)" fill="none"/>
        <path id="Trazado_14399" data-name="Trazado 14399" d="M-170.739-476.146a1.674,1.674,0,0,1,.019-.178c-15.572,3-40.3,4.872-55.7-8.561.186,6.482.363,12.991.526,19.259,22.985,2.969,45.22,3.812,45.22,3.812s9.361-5.712,11.107-5.712a7.965,7.965,0,0,0,3.434-1.318A9.268,9.268,0,0,1-170.739-476.146Z" transform="translate(348.233 721.416)" fill="none"/>
        <path id="Trazado_14400" data-name="Trazado 14400" d="M-126.193-477.42a110.333,110.333,0,0,1-11.175,2.985,6.108,6.108,0,0,1,2.086,1.774,14.419,14.419,0,0,0,3.312,3.046c.081-.1.163-.2.238-.3,1.9-2.539,5.236-3.015,5.236-.952a8.078,8.078,0,0,1-.829,3.17,7.329,7.329,0,0,1,1.132.394Z" transform="translate(318.012 718.883)" fill="none"/>
        <path id="Trazado_14401" data-name="Trazado 14401" d="M-157.583-551.123v-27.588H-159.2v-8.654c-13.782,9.416-32.347,12.036-48.248,7.543-4.081-8.216-11.36-23.7-15.978-33.35,3.464,7.243,6.608,14.229,9.594,20.781l-16.037,7.157,16.249-7.251C-197.4-558.72-187.057-536.006-157.583-551.123Z" transform="translate(349.402 764.951)" fill="none"/>
        <path id="Trazado_14402" data-name="Trazado 14402" d="M-41.646-784.358s-.39-.014-1.066-.063c.268.159.536.315.806.461C-41.737-784.22-41.646-784.358-41.646-784.358Z" transform="translate(285.89 823.065)" fill="none"/>
        <path id="Trazado_14403" data-name="Trazado 14403" d="M-287.214-777.226l.391.075Z" transform="translate(368.863 820.623)" fill="none"/>
        <path id="Trazado_14404" data-name="Trazado 14404" d="M-229.5-565.416c-.081-1.443-.173-2.872-.278-4.277C-229.684-568.439-229.591-567.007-229.5-565.416Z" transform="translate(349.371 750.196)" fill="none"/>
        <path id="Trazado_14405" data-name="Trazado 14405" d="M-285.288-776.839l.252.052Z" transform="translate(368.21 820.492)" fill="none"/>
        <path id="Trazado_14406" data-name="Trazado 14406" d="M-283.357-776.422l.089.019Z" transform="translate(367.554 820.35)" fill="none"/>
        <path id="Trazado_14407" data-name="Trazado 14407" d="M-300.546-778.489a34.666,34.666,0,0,0-9.774.757,41.766,41.766,0,0,1,5.5-.757Z" transform="translate(376.704 821.083)" fill="none"/>
        <path id="Trazado_14408" data-name="Trazado 14408" d="M-314.33-734.465a17.121,17.121,0,0,0,13.127.43,25.707,25.707,0,0,1,8.123-1.858,25.707,25.707,0,0,0-8.123,1.858A17.121,17.121,0,0,1-314.33-734.465Z" transform="translate(378.065 806.597)" fill="none"/>
        <path id="Trazado_14409" data-name="Trazado 14409" d="M-130.729-282.9c-1.8,28.02-3.8,61.378-5.629,96.528l64.095-56.734q.435-2.141.885-4.234l-8.479-35.56Z" transform="translate(317.67 652.872)" fill="#161e57"/>
        <path id="Trazado_14410" data-name="Trazado 14410" d="M-278.575-324.707l-8.777,52.029,58.5,51.778c-8.474-74.314-16.106-138.994-19.124-164.44H-250.3C-255.4-358.306-278.575-324.707-278.575-324.707Z" transform="translate(368.91 687.635)" fill="#161e57"/>
        <path id="Trazado_14411" data-name="Trazado 14411" d="M-292.083-385.34H-407.8c-1.028,9.474-2.3,24.016-2.691,40.654l81.351,72.008,8.777-52.029S-297.19-358.306-292.083-385.34Z" transform="translate(410.697 687.635)" fill="#3a4f73"/>
        <path id="Trazado_14412" data-name="Trazado 14412" d="M-50.835-282.9l8.479,35.56.679,2.85L1.716-282.9Z" transform="translate(288.647 652.872)" fill="#3a4f73"/>
        <path id="Trazado_14413" data-name="Trazado 14413" d="M-74.207-694.162a.839.839,0,0,1,0,1.677,19.494,19.494,0,0,0-2.543.229,39.382,39.382,0,0,1,4.592.652,79.762,79.762,0,0,1,4.836-16.089c-7.426,1.508-13.847,1.27-18.246-3.369-3.017,6.557-6,13.53-8.763,20.756A45.548,45.548,0,0,1-81.924-692.4,18.305,18.305,0,0,1-74.207-694.162Z" transform="translate(303.408 798.17)" fill="#1f2e54"/>
        <path id="Trazado_14414" data-name="Trazado 14414" d="M4.217-747.056c-26.184-10.3-4.362-20.346-6.135-42.7-3.416-43.059-58.042-59.129-73.01-30.834-2.839,5.368-2.066,9.237.421,12.024a27.1,27.1,0,0,1,8.93-9.5,8.067,8.067,0,0,0,.666,3.644A25.7,25.7,0,0,0-54.26-801.5c.677.05,1.066.063,1.066.063s-.091.137-.26.4A30.015,30.015,0,0,0-37.8-797.772c-.529,1.871-1.351,5.02-2.084,8.8.026,0,.052,0,.077.006a8.1,8.1,0,0,1,7,9.075,8.1,8.1,0,0,1-8.644,7.032c.17,6.949,1.773,13.51,6.336,17.191.062.051.124.089.186.137l-2.249,20.057s-.1.166-.289.449l.249-.016c.233.1.451.191.68.287-.043-.054-.078-.109-.122-.163-.622-.753.454-1.839,1.08-1.08a16.209,16.209,0,0,1,1.615,2.338c19.526,8.411,26.335,13.761,27.933,15.174A21.193,21.193,0,0,1-.26-713.354c7.416,9.521,14.356,26.541,13.436,56.761a169.58,169.58,0,0,1-1.794,20.613l0,0-.087.546c-.045.283-.089.568-.136.849L7.8-613.565c-.521,3.252-.923,6.514-1.23,9.78,48.138-16.152,11.283-61.666,21.415-81.971C41.706-713.261,34.779-735.037,4.217-747.056Z" transform="translate(297.438 840.143)" fill="#1f2e54"/>
        <path id="Trazado_14415" data-name="Trazado 14415" d="M-171.889-509.233c.133-1.242,1.611-1.416,3.131-.643a110.353,110.353,0,0,0,11.175-2.985h0V-540.5c-29.474,15.117-39.817-7.6-56.035-41.362l-16.249,7.251c.02.252.04.517.06.786.105,1.405.2,2.833.278,4.277.676,11.58,1.357,31.535,1.938,51.751C-212.193-504.361-187.461-506.23-171.889-509.233Z" transform="translate(349.402 754.324)" fill="#fbb98c"/>
        <path id="Trazado_14416" data-name="Trazado 14416" d="M-374.727-513.256c-24.287-11.309-36.077-55.379-31.749-86.778h55.424v0h0c-.485,4.778-1.28,9.583-1.142,14.37,1.305,45.146,9.177,39.645,35.715,46.369a247.254,247.254,0,0,0,28.013,5.025c-.163-6.268-.34-12.777-.526-19.259-.581-20.216-1.262-40.171-1.938-51.751-.093-1.591-.186-3.023-.278-4.277-.02-.27-.04-.534-.06-.786l16.037-7.157c-2.986-6.552-6.13-13.539-9.594-20.781-.722-1.51-1.483-2.966-2.269-4.385l.008,0c-11.008-19.89-28.019-31.161-42.591-37.492-2.293,14.272-15.689,7.59-23.865,2a14.955,14.955,0,0,1-6.107-9l-9.319,4.107c-8.545,4.105-16.229,8.933-23.1,17.185,2,.315,4.333,1.21,4.1,3.708-.346,3.641-4.977.93-6.372.025,1.02,12.688-1.488,20.614-3.34,13.862-.526,6.274-2.181,8.64-3.48,3.592-.542,5.2-1.9,7.3-3.083,3.922-.54,4.566-1.734,6.487-2.826,3.966a93.547,93.547,0,0,0-3.124,36.852l-.609,112.181h123.43s-.166-8.079-.446-20.17C-333.5-501.607-358.96-505.913-374.727-513.256Z" transform="translate(410.804 790.061)" fill="#74b6ed"/>
        <path id="Trazado_14417" data-name="Trazado 14417" d="M-99.677-566.651a1.04,1.04,0,0,0-.729.426c-.015.025-.041,0-.005.077a1.3,1.3,0,0,0,.546.47c.426.205,1.045-.242.8-.713A.552.552,0,0,0-99.677-566.651Z" transform="translate(305.477 749.167)" fill="#91c4f4"/>
        <path id="Trazado_14418" data-name="Trazado 14418" d="M-111.863-567.848c-.016.025-.042,0-.006.077a1.3,1.3,0,0,0,.546.47c.426.2,1.045-.243.8-.713a.551.551,0,0,0-.616-.26c-.034,0-.067.017-.1.024a.949.949,0,0,1-.517.27A.719.719,0,0,0-111.863-567.848Z" transform="translate(309.365 749.717)" fill="#91c4f4"/>
        <path id="Trazado_14419" data-name="Trazado 14419" d="M-17.055-683.819l-.249.016-.027.041Z" transform="translate(277.277 788.925)" fill="#91c4f4"/>
        <path id="Trazado_14420" data-name="Trazado 14420" d="M-26.492-628.652a43.976,43.976,0,0,1,1.5-5.225q.191-.537.4-1.068c.157-.4.322-.8.492-1.2-1.313,2.166-2.591,4.222-3.688,6.12A6.54,6.54,0,0,1-26.492-628.652Z" transform="translate(280.827 772.745)" fill="#91c4f4"/>
        <path id="Trazado_14421" data-name="Trazado 14421" d="M-16.033-658.747a36.186,36.186,0,0,1,4.6-5.129,21.828,21.828,0,0,1,26-2.676c-1.6-1.414-8.407-6.763-27.933-15.174C-9.374-674.688-12.034-666.424-16.033-658.747Z" transform="translate(276.837 788.215)" fill="#fff"/>
        <path id="Trazado_14422" data-name="Trazado 14422" d="M-221.28-637.146c4.618,9.655,11.9,25.134,15.978,33.35,15.9,4.493,34.466,1.873,48.248-7.543v-28.913h1.615v92.79h0v10.121a106.436,106.436,0,0,1,9.633,5.269s56.326-21.264,54.739-55.772q-.061-1.351-.146-2.7t-.185-2.707c-.946-12.634-2.956-25.3-2.951-36.947q0-2.038.091-4.033a8.217,8.217,0,0,1-7.193,1.189c-2.277-.765-4.093-2.75-4.309-6.215-.374-6.016,5.789-9.626,10.222-7.711,5.892-10.146,17.822-25.79,9.183-36.561-.229-.1-.448-.19-.68-.287q-.686,1.571-1.426,3.093l-.122.252q-.73,1.5-1.5,2.954l-.022.043q-.8,1.494-1.635,2.939c-.025.044-.051.086-.076.131-9.806,16.88-23.363,28.665-29.674,33.6l-.042.032q-.371.288-.707.547l-.045.034c-.447.342-.845.641-1.19.9l-.039.029c-.164.122-.315.231-.454.332l-.048.034-.368.265-.013.009c-.381.272-.589.412-.589.412,0-.067.005-.132.007-.2h0c0-.069,0-.137.007-.207.026-1.055.071-2.091.131-3.113v-.011h0a90.8,90.8,0,0,1,5.232-25.587h0l0-.008a75.217,75.217,0,0,1,3.331-7.822,24.833,24.833,0,0,1,.27-7.193,39.382,39.382,0,0,0-4.592-.652c-13.8,2.123-15.489,18.843-17.536,30.538a6.806,6.806,0,0,1,1.352.307c5.253,1.775,5.877,9.674,5.868,14.253-.021,10.5-4.24,21.344-8.582,30.785a2.058,2.058,0,0,1,.355,1.56,2.3,2.3,0,0,1-3.008,1.7.853.853,0,0,1-.342-.12.86.86,0,0,1-.2-.135,2.038,2.038,0,0,1-.943-2.705,2.7,2.7,0,0,1,2.495-1.251,1.986,1.986,0,0,1,.225.042c4.8-10.4,12.034-27.069,7.025-38.454-5.309-12.068-15.243,4.6-16.912,10.689a40.825,40.825,0,0,0,1.613,26.663,2.527,2.527,0,0,1,.479-.012,2.175,2.175,0,0,1,2,2.512,2.3,2.3,0,0,1-3.008,1.7.853.853,0,0,1-.342-.12.86.86,0,0,1-.2-.135,2.038,2.038,0,0,1-.943-2.705,2.2,2.2,0,0,1,.491-.59,42.982,42.982,0,0,1-.215-32.281c1.64-4.134,5.846-10.975,11.095-11.692,1.964-10.961,3.764-25.673,14.059-30.69a45.548,45.548,0,0,0-12.408,2.093A48.251,48.251,0,0,0-160.2-666.174c-18.251,21.025-33.156,38.271-63.336,24.646l-.008,0C-222.763-640.112-222-638.656-221.28-637.146Z" transform="translate(347.258 788.925)" fill="#fff"/>
        <path id="Trazado_14423" data-name="Trazado 14423" d="M-327.584-687.216c8.176,5.594,21.571,12.277,23.865-2,.03-.184.059-.369.085-.56-16.339-2.084-25.847-14.92-25.847-14.92v-8.855l-.8-.3-3.909.721c-.038-.009-.08-.024-.119-.034l.23,13.781a15.217,15.217,0,0,0,.392,3.161A14.955,14.955,0,0,0-327.584-687.216Z" transform="translate(384.846 799.116)" fill="#fbb98c"/>
        <path id="Trazado_14424" data-name="Trazado 14424" d="M-329.421-729.448h0v-8.9a8.7,8.7,0,0,1-1.954.229,8.691,8.691,0,0,1-2.758-.453v17.054l3.909-.721.8-.148Z" transform="translate(384.785 807.506)" fill="#ffc9a4"/>
        <path id="Trazado_14425" data-name="Trazado 14425" d="M-295.757-777.107q-.509-.114-1.023-.223l-.252-.052c-.293-.061-.587-.122-.881-.18l-.391-.075c-.255-.049-.509-.1-.765-.145-.161-.029-.322-.055-.484-.084-.229-.04-.456-.081-.685-.118-.2-.032-.392-.06-.588-.09s-.393-.061-.59-.089c-.237-.034-.476-.063-.714-.093-.159-.02-.316-.043-.474-.061q-.6-.069-1.192-.123h-4.278a41.767,41.767,0,0,0-5.5.757,9.936,9.936,0,0,0-6.326,4.3v22.246a17.243,17.243,0,0,0,3.677,2.231,17.121,17.121,0,0,0,13.127.43,25.709,25.709,0,0,1,8.123-1.858,16.5,16.5,0,0,1,2.443.077q.518.056,1.02.161c.148.03.29.073.435.108.181.045.363.086.54.139.193.058.379.129.567.2.12.044.242.083.359.13.22.089.433.189.645.291.077.037.155.071.231.109.237.12.466.252.692.388l.134.079c.244.153.481.316.713.486l.062.045q.367.275.709.577l.017.015q.354.312.679.653h0c.034-4.225.1-14.228.091-27.906-3.069-.581-6.47-1.51-10.037-2.307Z" transform="translate(379.954 821.035)" fill="#ffc9a4"/>
        <path id="Trazado_14426" data-name="Trazado 14426" d="M-344.457-773.981a8.712,8.712,0,0,1-5.956-8.261,8.713,8.713,0,0,1,8.713-8.714,8.7,8.7,0,0,1,1.954.229v25.869h0v16.368s9.508,12.836,25.847,14.92a35.386,35.386,0,0,0,4.81.289,11.513,11.513,0,0,0,11.415-11.5v-16a11.524,11.524,0,0,0-3.2-7.966q-.326-.341-.679-.653l-.017-.015q-.343-.3-.709-.577l-.062-.045c-.232-.17-.468-.333-.713-.486l-.134-.079c-.226-.136-.455-.268-.692-.388-.076-.038-.154-.073-.231-.109-.212-.1-.425-.2-.645-.291-.118-.048-.239-.087-.359-.13-.188-.069-.374-.139-.567-.2-.177-.054-.359-.094-.54-.139-.145-.036-.287-.079-.435-.108-.334-.068-.674-.123-1.02-.161a16.5,16.5,0,0,0-2.443-.077,25.705,25.705,0,0,0-8.123,1.858,17.122,17.122,0,0,1-13.127-.43,17.244,17.244,0,0,1-3.677-2.231V-795.26a9.935,9.935,0,0,1,6.326-4.3,34.668,34.668,0,0,1,9.774-.757q.6.053,1.192.123c.159.018.316.041.474.061.238.03.476.059.714.093.2.028.393.059.59.089s.392.058.588.09c.229.037.457.078.685.118.161.028.322.055.484.084.256.047.51.1.765.145l.391.075c.295.058.588.119.881.18l.252.052q.513.11,1.023.223l.089.019c3.567.8,6.968,1.726,10.037,2.307,5.031.952,9.163.963,11.632-2.113,3.013-3.754,1.786-6.541-.721-8.525,11.53-8.222,5.08-14.658-.746-18.114,1.138-9.318-6.248-20.549-17.041-16.74-11.075,3.908-1.629,15.115-16.612,16.815s-37.424-7.806-33.062,21.108c0,0-8.693-.061-7,15.418,1.618,14.821,13.853,30.369,19.762,31.849.039.01.081.026.119.034Z" transform="translate(395.11 842.915)" fill="#1f2e54"/>
        <path id="Trazado_14427" data-name="Trazado 14427" d="M-332.481-747.067v-16.97a8.7,8.7,0,0,0-1.954-.229,8.713,8.713,0,0,0-8.713,8.714,8.712,8.712,0,0,0,5.956,8.261,8.692,8.692,0,0,0,2.758.453A8.7,8.7,0,0,0-332.481-747.067Z" transform="translate(387.845 816.225)" fill="#ffc9a4"/>
        <path id="Trazado_14428" data-name="Trazado 14428" d="M56.608-533.883l0,0c-.028.181-.054.363-.083.543Z" transform="translate(252.215 738.044)" fill="#91c4f4"/>
        <path id="Trazado_14429" data-name="Trazado 14429" d="M-7.981-531.772c-7.633,46.287-36.694,64.947-99.849,67.164,0,0-.532.324-1.48.865,1.49,1.842,2.243,3.273,1.856,3.788-1.428,1.9-1.587,2.856-4.6,3.173s-8.236,7.436-9.143,7.464a30.371,30.371,0,0,1-6.667-.638l-5.286,82.6H-26.218L5.626-395.544l-2.035-9.344c-2.684-12.324-6.128-24.46-9.9-36.494a151.691,151.691,0,0,1-6.268-59.588c.307-3.266.709-6.528,1.23-9.78Z" transform="translate(316.581 737.327)" fill="#fff"/>
        <path id="Trazado_14430" data-name="Trazado 14430" d="M-11.506-495.112c.108-1.953.242-3.906.426-5.857.307-3.266.709-6.529,1.23-9.78l3.366-21.022c-7.633,46.287-36.694,64.947-99.849,67.164,0,0-.532.324-1.48.865,1.49,1.842,2.243,3.273,1.856,3.788-1.428,1.9-1.587,2.856-4.6,3.173s-8.236,7.436-9.143,7.464a30.371,30.371,0,0,1-6.667-.638l-2.372,37.07C-74.817-427.386-28.642-475.419-11.506-495.112Z" transform="translate(315.084 737.327)" fill="#ededed"/>
        <path id="Trazado_14431" data-name="Trazado 14431" d="M-62.887-670.721a75.216,75.216,0,0,0-3.331,7.822,75.294,75.294,0,0,1,3.331-7.82Z" transform="translate(293.867 784.48)" fill="#91c4f4"/>
        <path id="Trazado_14432" data-name="Trazado 14432" d="M-22.407-674.22q-.8,1.493-1.635,2.939Q-23.206-672.727-22.407-674.22Z" transform="translate(279.555 785.668)" fill="#91c4f4"/>
        <path id="Trazado_14433" data-name="Trazado 14433" d="M-70.885-617.786c-.447.342-.845.641-1.19.9C-71.73-617.145-71.332-617.444-70.885-617.786Z" transform="translate(295.855 766.516)" fill="#91c4f4"/>
        <path id="Trazado_14434" data-name="Trazado 14434" d="M-69.5-618.666q-.371.289-.707.547Q-69.87-618.377-69.5-618.666Z" transform="translate(295.221 766.815)" fill="#91c4f4"/>
        <path id="Trazado_14435" data-name="Trazado 14435" d="M-72.367-616.386q-.246.181-.454.332C-72.682-616.155-72.532-616.264-72.367-616.386Z" transform="translate(296.108 766.041)" fill="#91c4f4"/>
        <path id="Trazado_14436" data-name="Trazado 14436" d="M-62.454-655.28a10.609,10.609,0,0,1,.4-7.074c-.079-.035-.153-.075-.229-.114l-6.63,2.378A90.8,90.8,0,0,0-74.142-634.5C-70.512-646.852-65.663-652.644-62.454-655.28Z" transform="translate(296.556 781.68)" fill="#abd9ff"/>
        <path id="Trazado_14437" data-name="Trazado 14437" d="M-74.341-617.007q.04-1.582.131-3.113C-74.27-619.1-74.315-618.062-74.341-617.007Z" transform="translate(296.624 767.309)" fill="#91c4f4"/>
        <path id="Trazado_14438" data-name="Trazado 14438" d="M-74.354-615.2c0,.067-.005.133-.007.2,0,0,.208-.14.589-.412-.227.162-.393.277-.488.342Z" transform="translate(296.631 765.713)" fill="#91c4f4"/>
        <path id="Trazado_14439" data-name="Trazado 14439" d="M-73.082-615.831l-.368.265Z" transform="translate(296.322 765.853)" fill="#91c4f4"/>
        <path id="Trazado_14440" data-name="Trazado 14440" d="M-52.345-661.915a10.619,10.619,0,0,1-5.385,4.85L-59.6-644.221a124.751,124.751,0,0,1-9.47,8.247c6.31-4.935,19.868-16.72,29.674-33.6A108.613,108.613,0,0,1-48.628-656.2Z" transform="translate(294.836 784.091)" fill="#abd9ff"/>
        <path id="Trazado_14441" data-name="Trazado 14441" d="M-17.646-683.819q-.686,1.571-1.426,3.093Q-18.335-682.251-17.646-683.819Z" transform="translate(277.868 788.925)" fill="#91c4f4"/>
        <path id="Trazado_14442" data-name="Trazado 14442" d="M-20.029-678.756q-.73,1.5-1.5,2.954Q-20.759-677.255-20.029-678.756Z" transform="translate(278.703 787.207)" fill="#91c4f4"/>
        <path id="Trazado_14443" data-name="Trazado 14443" d="M-59.521-650.962c-.176.071-.346.153-.527.215l-1.926.666a10.522,10.522,0,0,1-.55-1.508c-3.209,2.637-8.058,8.429-11.688,20.777h0v.011q-.089,1.533-.131,3.113c0,.069-.005.137-.007.207h0l.1.13c.094-.065.26-.18.488-.342l.013-.009.368-.265.048-.034q.208-.151.454-.332l.039-.029c.345-.254.743-.554,1.19-.9l.045-.034q.336-.258.707-.547l.042-.032a124.751,124.751,0,0,0,9.47-8.247Z" transform="translate(296.627 777.987)" fill="#1f2e54"/>
        <path id="Trazado_14444" data-name="Trazado 14444" d="M-56.668-655.222a10.52,10.52,0,0,0,.55,1.508l1.926-.666c.181-.063.351-.144.527-.215a10.619,10.619,0,0,0,5.385-4.85l-1.769-2.721c-.629.134-1.267.25-1.921.329a8.128,8.128,0,0,1-4.3-.458A10.609,10.609,0,0,0-56.668-655.222Z" transform="translate(290.77 781.621)" fill="#1f2e54"/>
        <path id="Trazado_14445" data-name="Trazado 14445" d="M-46.43-669.47l1.769,2.721,3.717,5.719a108.613,108.613,0,0,0,9.229-13.378c.025-.044.051-.087.076-.131q.836-1.446,1.635-2.939l.022-.043q.774-1.453,1.5-2.954l.122-.252q.737-1.524,1.426-3.093l-.276.057C-28.723-681.473-35.726-671.75-46.43-669.47Z" transform="translate(287.152 788.925)" fill="#fff"/>
        <path id="Trazado_14446" data-name="Trazado 14446" d="M-62.888-670.718a75.294,75.294,0,0,0-3.331,7.82l0,.008h0l6.63-2.378C-61.547-666.242-62.535-668.224-62.888-670.718Z" transform="translate(293.869 784.479)" fill="#fff"/>
        <path id="Trazado_14447" data-name="Trazado 14447" d="M-149.362-414.415a1.115,1.115,0,0,0,.824,1.807,29.344,29.344,0,0,0,5.974-.511c-2.025-.739-4.006-1.55-5.884-2.376C-148.791-415.111-149.1-414.744-149.362-414.415Z" transform="translate(322.165 697.868)" fill="#fbb98c"/>
        <path id="Trazado_14448" data-name="Trazado 14448" d="M-136.9-471.366a6.108,6.108,0,0,0-2.086-1.774c-1.521-.773-3-.6-3.131.643a1.673,1.673,0,0,0-.019.178,9.268,9.268,0,0,0,4.6,7.3,15.675,15.675,0,0,0,3.943-3.3A14.418,14.418,0,0,1-136.9-471.366Z" transform="translate(319.631 717.588)" fill="#fbb98c"/>
        <path id="Trazado_14449" data-name="Trazado 14449" d="M-156.894-418.322a.72.72,0,0,0,.608,1.2,19.692,19.692,0,0,0,3.078-.612c-1.023-.475-2-.947-2.927-1.405C-156.413-418.85-156.673-418.57-156.894-418.322Z" transform="translate(324.701 699.106)" fill="#fbb98c"/>
        <path id="Trazado_14450" data-name="Trazado 14450" d="M-162.216-422.544l-.217-.118A.486.486,0,0,0-162.216-422.544Z" transform="translate(326.518 700.3)" fill="#fbb98c"/>
        <path id="Trazado_14451" data-name="Trazado 14451" d="M-23.331-544.027q-.083-1.353-.185-2.707Q-23.415-545.38-23.331-544.027Z" transform="translate(279.376 742.405)" fill="#fbb98c"/>
        <path id="Trazado_14452" data-name="Trazado 14452" d="M-25.032-565.712c-.946-12.634-2.956-25.3-2.951-36.947C-27.988-591.011-25.978-578.347-25.032-565.712Z" transform="translate(280.892 761.383)" fill="#fbb98c"/>
        <path id="Trazado_14453" data-name="Trazado 14453" d="M-115.222-457.034a106.452,106.452,0,0,0-9.633-5.269,7.328,7.328,0,0,0-1.132-.394,8.406,8.406,0,0,1-4.883,4.6c-3.967,1.269-3.015,3.015.793,3.649,7.232,1.206,16.655,9.176,20.674,14.141.947-.541,1.48-.865,1.48-.865C-108.952-453.718-115.222-457.034-115.222-457.034Z" transform="translate(316.674 713.886)" fill="#fbb98c"/>
        <path id="Trazado_14454" data-name="Trazado 14454" d="M-41.916-657.673a36.186,36.186,0,0,0-4.6,5.129c-1.281,2.459-2.7,4.858-4.08,7.137-.17.4-.335.794-.492,1.2q-.207.53-.4,1.068a43.975,43.975,0,0,0-1.5,5.225,8.318,8.318,0,0,1,1.107,2.192c1.287,3.8-.11,6.734-2.443,8.405q-.09,1.995-.091,4.033c0,11.648,2.005,24.312,2.951,36.947q.1,1.354.185,2.707t.146,2.7c1.587,34.508-54.739,55.772-54.739,55.772s6.271,3.316,7.3,15.867c63.156-2.216,92.216-20.877,99.849-67.164.047-.281.091-.565.136-.849.028-.18.055-.362.083-.543a169.581,169.581,0,0,0,1.794-20.613c.92-30.22-6.02-47.24-13.436-56.761a21.191,21.191,0,0,0-5.767-5.126A21.828,21.828,0,0,0-41.916-657.673Z" transform="translate(307.324 782.012)" fill="#fff"/>
        <path id="Trazado_14455" data-name="Trazado 14455" d="M-104.163-635.965c.024-.131.048-.266.071-.4-5.249.717-9.455,7.558-11.095,11.692a42.982,42.982,0,0,0,.215,32.281,2.821,2.821,0,0,1,1.524-.649,40.825,40.825,0,0,1-1.613-26.663c1.669-6.086,11.6-22.757,16.912-10.689,5.008,11.386-2.222,28.05-7.025,38.454a2.229,2.229,0,0,1,1.416.91c4.342-9.441,8.561-20.288,8.582-30.785.009-4.578-.614-12.478-5.868-14.253a6.806,6.806,0,0,0-1.352-.307c-.05.286-.1.573-.151.853C-102.739-634.457-104.354-634.91-104.163-635.965Z" transform="translate(311.517 772.824)" fill="#1f2e54"/>
        <path id="Trazado_14456" data-name="Trazado 14456" d="M-111.168-568.232a1.093,1.093,0,0,0-.517.27A.949.949,0,0,0-111.168-568.232Z" transform="translate(309.297 749.7)" fill="#1f2e54"/>
        <path id="Trazado_14457" data-name="Trazado 14457" d="M-29.783-647.594a6.027,6.027,0,0,1,1.316.77c1.1-1.9,2.375-3.954,3.688-6.12,1.381-2.279,2.8-4.678,4.08-7.137,4-7.677,6.659-15.941,2.673-22.979a16.213,16.213,0,0,0-1.615-2.338c-.626-.759-1.7.327-1.08,1.08.044.053.079.109.122.163C-11.961-673.384-23.891-657.74-29.783-647.594Z" transform="translate(281.503 789.548)" fill="#232a79"/>
        <path id="Trazado_14458" data-name="Trazado 14458" d="M-75.1-685.48a18.306,18.306,0,0,0-7.718,1.762c-10.294,5.016-12.094,19.729-14.059,30.69-.024.132-.048.268-.071.4-.191,1.055,1.424,1.508,1.617.446.05-.28.1-.567.151-.853,2.047-11.695,3.732-28.414,17.536-30.538A19.494,19.494,0,0,1-75.1-683.8.839.839,0,0,0-75.1-685.48Z" transform="translate(304.301 789.489)" fill="#1f2e54"/>
        <path id="Trazado_14459" data-name="Trazado 14459" d="M-114.163-569.551a2.038,2.038,0,0,0,.943,2.705.859.859,0,0,0,.2.135.852.852,0,0,0,.342.12,2.3,2.3,0,0,0,3.008-1.7,2.175,2.175,0,0,0-2-2.512,2.532,2.532,0,0,0-.479.012,2.821,2.821,0,0,0-1.524.649A2.2,2.2,0,0,0-114.163-569.551Zm2.075.445c.034-.008.067-.02.1-.024a.551.551,0,0,1,.616.26c.241.47-.378.918-.8.713a1.3,1.3,0,0,1-.546-.47c-.036-.073-.01-.052.006-.077a.722.722,0,0,1,.11-.131A1.093,1.093,0,0,1-112.088-569.106Z" transform="translate(310.217 750.574)" fill="#1f2e54"/>
        <path id="Trazado_14460" data-name="Trazado 14460" d="M-99.986-569.137a2,2,0,0,0-.225-.042,2.7,2.7,0,0,0-2.495,1.251,2.038,2.038,0,0,0,.943,2.705.859.859,0,0,0,.2.135.852.852,0,0,0,.342.12,2.3,2.3,0,0,0,3.008-1.7,2.058,2.058,0,0,0-.355-1.56A2.229,2.229,0,0,0-99.986-569.137Zm-.731,2.6a1.3,1.3,0,0,1-.546-.47c-.036-.072-.01-.052.005-.077a1.04,1.04,0,0,1,.729-.426.552.552,0,0,1,.616.26C-99.673-566.778-100.292-566.33-100.718-566.536Z" transform="translate(306.329 750.024)" fill="#1f2e54"/>
        <path id="Trazado_14461" data-name="Trazado 14461" d="M-31.319-623.976a8.317,8.317,0,0,0-1.107-2.192,6.539,6.539,0,0,0-1.3-1.369,6.028,6.028,0,0,0-1.316-.77c-4.434-1.914-10.6,1.7-10.222,7.711.215,3.465,2.032,5.45,4.309,6.215a8.216,8.216,0,0,0,7.193-1.189C-31.429-617.242-30.032-620.178-31.319-623.976Zm-7.754,5.026a2.264,2.264,0,0,1-1.512-2.181c-.178-2.869,3.88-4.184,4.895-1.187A2.64,2.64,0,0,1-39.073-618.95Z" transform="translate(286.762 770.262)" fill="#1f2e54"/>
        <path id="Trazado_14462" data-name="Trazado 14462" d="M-38.177-618.666a2.264,2.264,0,0,0,1.512,2.181,2.64,2.64,0,0,0,3.383-3.368C-34.3-622.849-38.355-621.535-38.177-618.666Z" transform="translate(284.353 767.796)" fill="#91c4f4"/>
        <path id="Trazado_14463" data-name="Trazado 14463" d="M-402.97-629.911c1.181,3.377,2.541,1.282,3.083-3.922,1.3,5.048,2.953,2.682,3.48-3.592,1.852,6.753,4.36-1.174,3.34-13.862,1.4.9,6.026,3.616,6.372-.025.238-2.5-2.1-3.394-4.1-3.708a14.082,14.082,0,0,0-2.684-.151s-5.526,1.063-6.171,3.871-5.752,4.538-6.435,6.241c-.5,1.255-.787,7.336-.9,10.46-.03.443-.045.9-.046,1.361-.01.317-.015.5-.015.5l.018-.024a22.237,22.237,0,0,0,.449,4.092,14.383,14.383,0,0,0,.782,2.721C-404.7-623.425-403.51-625.346-402.97-629.911Z" transform="translate(409.528 779.207)" fill="#ffc9a4"/>
        <path id="Trazado_14464" data-name="Trazado 14464" d="M-65.71-741.1a79.762,79.762,0,0,0-4.836,16.089,24.833,24.833,0,0,0-.27,7.193v0c.353,2.494,1.342,4.476,3.3,5.45.077.038.15.079.229.114a8.128,8.128,0,0,0,4.3.458c.654-.079,1.292-.195,1.921-.329,10.7-2.28,17.707-12,19.224-14.291l.027-.041c.188-.283.289-.449.289-.449l2.25-20.057c-.062-.048-.124-.086-.186-.137-4.563-3.682-6.166-10.243-6.336-17.191a8.1,8.1,0,0,0,8.644-7.032,8.1,8.1,0,0,0-7-9.075c-.026,0-.051,0-.077-.006.733-3.784,1.555-6.933,2.084-8.8a30.014,30.014,0,0,1-15.657-3.266c-.27-.147-.538-.3-.806-.461a25.7,25.7,0,0,1-10.652-12.918,8.067,8.067,0,0,1-.666-3.644,27.1,27.1,0,0,0-8.93,9.5,48.193,48.193,0,0,0-3.7,7.794c-2.882,7.666-8.721,25.025-6.539,36.218,1.042,5.348,2.81,9.052,5.146,11.516C-79.557-739.826-73.136-739.587-65.71-741.1Z" transform="translate(301.795 831.572)" fill="#ffc9a4"/>
        <path id="Trazado_14465" data-name="Trazado 14465" d="M-320.36-555.29v.009h0Z" transform="translate(380.112 745.308)" fill="#ffc9a4"/>
        <path id="Trazado_14466" data-name="Trazado 14466" d="M-213.65-457.295c.906-.028,6.128-7.146,9.143-7.464s3.174-1.269,4.6-3.173c.386-.515-.367-1.946-1.856-3.788-4.019-4.965-13.441-12.935-20.674-14.141-3.808-.634-4.76-2.38-.793-3.649a8.406,8.406,0,0,0,4.883-4.6,8.078,8.078,0,0,0,.829-3.17c0-2.063-3.332-1.587-5.236.952-.075.1-.157.2-.238.3a15.675,15.675,0,0,1-3.943,3.3,7.965,7.965,0,0,1-3.434,1.318c-1.745,0-11.107,5.712-11.107,5.712s-22.235-.843-45.22-3.812a247.254,247.254,0,0,1-28.013-5.025c-26.538-6.724-34.41-1.223-35.715-46.369-.139-4.786.657-9.592,1.142-14.37h-55.424c-4.327,31.4,7.463,75.469,31.749,86.778,15.768,7.343,41.224,11.649,86.907,5.32,11.166-1.547,23.536-3.727,37.275-6.657,0,0,1.45.881,3.826,2.17l.217.118c1.214.656,2.654,1.409,4.264,2.207.926.458,1.9.93,2.927,1.405.721.335,1.464.671,2.223,1,1.879.826,3.859,1.637,5.884,2.376a61.493,61.493,0,0,0,9.116,2.622A30.372,30.372,0,0,0-213.65-457.295Z" transform="translate(409.033 745.304)" fill="#ffc9a4"/>
        <path id="Trazado_14467" data-name="Trazado 14467" d="M-121.283-580.306v-37.567H-122.9v37.567Z" transform="translate(313.102 766.546)" fill="#fff"/>
      </g>
    </g>
  </g>
</svg>
