<svg xmlns="http://www.w3.org/2000/svg" width="455" height="368.854" viewBox="0 0 455 368.854">
  <g id="Grupo_10326" data-name="Grupo 10326" transform="translate(-2481.578 -295.897)">
    <g id="Grupo_10325" data-name="Grupo 10325" transform="translate(2481.578 295.897)">
      <g id="Grupo_10319" data-name="Grupo 10319" transform="translate(0)">
        <path id="Trazado_9369" data-name="Trazado 9369" d="M2867.282,432.168a109.836,109.836,0,0,1,109.124-15,110.87,110.87,0,0,0,.6-11.546,109.728,109.728,0,1,0-219.455,0,111,111,0,0,0,.6,11.546,109.835,109.835,0,0,1,109.124,15Z" transform="translate(-2637.175 -295.897)" fill="#d5494f" style="isolation: isolate"/>
        <path id="Trazado_9370" data-name="Trazado 9370" d="M2737.819,675.458a111.019,111.019,0,0,1,.6-11.547,109.816,109.816,0,0,1-67.465-89.988A109.738,109.738,0,1,0,2780.081,762,109.535,109.535,0,0,1,2737.819,675.458Z" transform="translate(-2549.973 -452.649)" fill="#f2ca64" style="isolation: isolate"/>
        <path id="Trazado_9371" data-name="Trazado 9371" d="M3118.234,573.923a109.816,109.816,0,0,1-67.465,89.988,111.019,111.019,0,0,1,.6,11.547A109.534,109.534,0,0,1,3009.11,762a109.737,109.737,0,1,0,109.124-188.073Z" transform="translate(-2779.002 -452.649)" fill="#51a9ea" style="isolation: isolate"/>
        <path id="Trazado_9372" data-name="Trazado 9372" d="M2826.4,653.322a109.584,109.584,0,0,1,41.658-74.992,109.834,109.834,0,0,0-109.124-15A109.816,109.816,0,0,0,2826.4,653.322Z" transform="translate(-2637.955 -442.06)" fill="#fa733f"/>
        <path id="Trazado_9373" data-name="Trazado 9373" d="M3009.11,578.33a109.583,109.583,0,0,1,41.659,74.992,109.816,109.816,0,0,0,67.465-89.988,109.835,109.835,0,0,0-109.124,15Z" transform="translate(-2779.002 -442.06)" fill="#8784e0"/>
        <path id="Trazado_9374" data-name="Trazado 9374" d="M2996.747,791.772a111.02,111.02,0,0,0-.6-11.547,110.006,110.006,0,0,1-83.318,0,110.885,110.885,0,0,0-.6,11.547,109.536,109.536,0,0,0,42.262,86.538A109.533,109.533,0,0,0,2996.747,791.772Z" transform="translate(-2724.376 -568.962)" fill="#99dae4"/>
        <path id="Trazado_9375" data-name="Trazado 9375" d="M2955.264,608.3a109.585,109.585,0,0,0-41.658,74.992,110.006,110.006,0,0,0,83.318,0A109.584,109.584,0,0,0,2955.264,608.3Z" transform="translate(-2725.156 -472.032)" fill="#fff"/>
        <g id="Grupo_10307" data-name="Grupo 10307" transform="translate(187.507 44.048)">
          <g id="Grupo_10306" data-name="Grupo 10306">
            <path id="Trazado_9376" data-name="Trazado 9376" d="M2933.342,399.128h-4.686v2.794h4.046v2.224h-4.046v5.043h-2.573V396.879h7.259Z" transform="translate(-2919.698 -396.879)"/>
            <path id="Trazado_9377" data-name="Trazado 9377" d="M2952.548,411.185a8.2,8.2,0,0,0,.213,2.138v.239h-2.292l-.2-.954a2.847,2.847,0,0,1-1.227.843,4.516,4.516,0,0,1-1.584.281,4.165,4.165,0,0,1-.818-.077,2.774,2.774,0,0,1-.737-.26,2.236,2.236,0,0,1-.609-.456,1.988,1.988,0,0,1-.409-.694,2.762,2.762,0,0,1-.153-.95,2.641,2.641,0,0,1,.162-.95,2.226,2.226,0,0,1,.426-.711,2.586,2.586,0,0,1,.69-.52,5.319,5.319,0,0,1,.869-.375,10.485,10.485,0,0,1,1.04-.273l1.44-.324a1.586,1.586,0,0,0,.652-.277.551.551,0,0,0,.192-.438.9.9,0,0,0-.43-.844,2.007,2.007,0,0,0-1.043-.256,1.5,1.5,0,0,0-1.713,1.337l-2.173-.392a2.942,2.942,0,0,1,1.27-2,5.046,5.046,0,0,1,2.752-.643q3.68,0,3.681,3.161Zm-4.32.886a1.974,1.974,0,0,0,1.517-.635,2.676,2.676,0,0,0,.588-1.879l-2.079.588a2.469,2.469,0,0,0-.873.358.736.736,0,0,0-.3.631.815.815,0,0,0,.324.694A1.337,1.337,0,0,0,2948.229,412.071Z" transform="translate(-2930.214 -401.251)"/>
            <path id="Trazado_9378" data-name="Trazado 9378" d="M2970.68,413.723a4.679,4.679,0,0,1-3.382-1.261,4.784,4.784,0,0,1,0-6.577,5.2,5.2,0,0,1,6.223-.409,3.765,3.765,0,0,1,1.466,2.377l-2.266.247a1.943,1.943,0,0,0-.732-1.15,2.229,2.229,0,0,0-1.329-.383,2.008,2.008,0,0,0-1.6.716,3.217,3.217,0,0,0,0,3.778,2,2,0,0,0,1.6.72,2.21,2.21,0,0,0,1.325-.383,1.989,1.989,0,0,0,.737-1.15l2.266.247a3.775,3.775,0,0,1-1.479,2.377A4.647,4.647,0,0,1,2970.68,413.723Z" transform="translate(-2942.195 -401.251)"/>
            <path id="Trazado_9379" data-name="Trazado 9379" d="M2992.413,410.126a2.643,2.643,0,0,1-1.976-.711,2.766,2.766,0,0,1-.7-2.023v-4.141h-1.721v-1.883h.553a1.445,1.445,0,0,0,1.091-.366,1.883,1.883,0,0,0,.349-1.3V398.54h2.215v2.828h1.806v1.883h-1.806v3.876q0,1.133,1.014,1.133h.793v1.866Z" transform="translate(-2954.616 -397.815)"/>
            <path id="Trazado_9380" data-name="Trazado 9380" d="M3009.239,413.732a5.5,5.5,0,0,1-2.479-.537,4.011,4.011,0,0,1-1.7-1.576,4.694,4.694,0,0,1-.618-2.445,4.286,4.286,0,0,1,1.328-3.323,5.556,5.556,0,0,1,6.944,0,4.834,4.834,0,0,1,0,6.658A4.93,4.93,0,0,1,3009.239,413.732Zm-.026-1.951a2.248,2.248,0,0,0,1.734-.716,3.04,3.04,0,0,0,0-3.782,2.248,2.248,0,0,0-1.734-.716,2.166,2.166,0,0,0-1.682.72,3.058,3.058,0,0,0,0,3.774A2.166,2.166,0,0,0,3009.213,411.781Z" transform="translate(-2963.877 -401.251)"/>
            <path id="Trazado_9381" data-name="Trazado 9381" d="M3032.985,406.281a2.849,2.849,0,0,1,1.15-1.053,3.512,3.512,0,0,1,1.713-.438v2.189a3.32,3.32,0,0,0-2.1.528,2.308,2.308,0,0,0-.647,1.874v4.268h-2.471v-8.758h2.352Z" transform="translate(-2978.644 -401.339)"/>
            <path id="Trazado_9382" data-name="Trazado 9382" d="M3053.106,409.033l-.025.588h-6.492a2.266,2.266,0,0,0,.7,1.6,2.234,2.234,0,0,0,1.542.554,2.153,2.153,0,0,0,1.154-.3,1.858,1.858,0,0,0,.737-.882l2.249.332a3.821,3.821,0,0,1-1.534,2.053,4.557,4.557,0,0,1-2.59.733,4.739,4.739,0,0,1-3.412-1.206,5.045,5.045,0,0,1,0-6.688,4.6,4.6,0,0,1,3.331-1.223,4.009,4.009,0,0,1,4.336,4.439Zm-4.319-2.7a1.939,1.939,0,0,0-2.13,1.687h4.021a1.845,1.845,0,0,0-.605-1.252A1.916,1.916,0,0,0,3048.786,406.332Z" transform="translate(-2986.275 -401.229)"/>
            <path id="Trazado_9383" data-name="Trazado 9383" d="M3071.083,413.732a4.89,4.89,0,0,1-2.555-.614,2.589,2.589,0,0,1-1.252-1.823l2.053-.579a1.649,1.649,0,0,0,1.755,1.3,1.813,1.813,0,0,0,.895-.2.7.7,0,0,0,.349-.677.719.719,0,0,0-.145-.451,1.153,1.153,0,0,0-.448-.324,5.677,5.677,0,0,0-.6-.23q-.294-.094-.78-.226t-.81-.251a5.472,5.472,0,0,1-.771-.328,3.306,3.306,0,0,1-.639-.451,1.815,1.815,0,0,1-.478-.686,2.47,2.47,0,0,1-.166-.937,2.238,2.238,0,0,1,.95-1.959,4.245,4.245,0,0,1,2.484-.665,4.352,4.352,0,0,1,2.292.562,2.547,2.547,0,0,1,1.176,1.755l-1.9.426a1.488,1.488,0,0,0-1.559-1.107,1.707,1.707,0,0,0-.861.2.63.63,0,0,0-.341.579.669.669,0,0,0,.051.264.523.523,0,0,0,.179.213,2.524,2.524,0,0,0,.247.162,1.843,1.843,0,0,0,.349.141q.23.073.383.111l.447.115.456.12q.469.128.822.256a4.784,4.784,0,0,1,.754.358,2.722,2.722,0,0,1,.66.516,2.3,2.3,0,0,1,.43.724,2.676,2.676,0,0,1,.17.975,2.635,2.635,0,0,1-.294,1.269,2.2,2.2,0,0,1-.805.856,3.909,3.909,0,0,1-1.137.46A5.917,5.917,0,0,1,3071.083,413.732Z" transform="translate(-2999.302 -401.251)"/>
            <path id="Trazado_9384" data-name="Trazado 9384" d="M2916.59,447.259a4.243,4.243,0,0,1,1.627.315,3.938,3.938,0,0,1,2.249,2.335,5.7,5.7,0,0,1,0,3.834,3.94,3.94,0,0,1-2.249,2.334,4.235,4.235,0,0,1-1.627.315,3.784,3.784,0,0,1-1.657-.354,2.451,2.451,0,0,1-1.1-.992l-.059,1.142h-2.326V443.1h2.454v5.393a2.451,2.451,0,0,1,1.094-.912A3.86,3.86,0,0,1,2916.59,447.259Zm-.57,7.1a2.208,2.208,0,0,0,1.665-.69,2.906,2.906,0,0,0,0-3.689,2.207,2.207,0,0,0-1.665-.69,2.181,2.181,0,0,0-1.653.7,2.868,2.868,0,0,0,0,3.668A2.184,2.184,0,0,0,2916.02,454.356Z" transform="translate(-2911.445 -422.94)"/>
            <path id="Trazado_9385" data-name="Trazado 9385" d="M2938.16,446.371a1.375,1.375,0,0,1-1-.413,1.355,1.355,0,0,1-.417-1,1.341,1.341,0,0,1,.421-.992,1.381,1.381,0,0,1,1-.414,1.41,1.41,0,0,1,0,2.82Zm-1.252,10.07v-8.758h2.471v8.758Z" transform="translate(-2925.705 -423.193)"/>
            <path id="Trazado_9386" data-name="Trazado 9386" d="M2951.768,461.732a5.505,5.505,0,0,1-2.479-.537,4.013,4.013,0,0,1-1.7-1.576,4.7,4.7,0,0,1-.617-2.445,4.285,4.285,0,0,1,1.329-3.323,5.556,5.556,0,0,1,6.943,0,4.834,4.834,0,0,1,0,6.658A4.932,4.932,0,0,1,2951.768,461.732Zm-.026-1.951a2.249,2.249,0,0,0,1.734-.716,3.039,3.039,0,0,0,0-3.782,2.249,2.249,0,0,0-1.734-.716,2.166,2.166,0,0,0-1.682.72,3.06,3.06,0,0,0,0,3.774A2.166,2.166,0,0,0,2951.742,459.781Z" transform="translate(-2931.475 -428.313)"/>
            <path id="Trazado_9387" data-name="Trazado 9387" d="M2973.163,456.188V443.1h2.479v13.086Z" transform="translate(-2946.242 -422.94)"/>
            <path id="Trazado_9388" data-name="Trazado 9388" d="M2987.823,456.358a5.5,5.5,0,0,1-2.479-.537,4.011,4.011,0,0,1-1.7-1.576,4.693,4.693,0,0,1-.617-2.445,4.285,4.285,0,0,1,1.329-3.323,5.555,5.555,0,0,1,6.943,0,4.833,4.833,0,0,1,0,6.658A4.93,4.93,0,0,1,2987.823,456.358Zm-.025-1.951a2.249,2.249,0,0,0,1.734-.716,3.041,3.041,0,0,0,0-3.782,2.248,2.248,0,0,0-1.734-.716,2.166,2.166,0,0,0-1.683.72,3.059,3.059,0,0,0,0,3.774A2.166,2.166,0,0,0,2987.8,454.407Zm-.733-8.17,2.232-3.135,1.209.852-1.934,2.284Z" transform="translate(-2951.803 -422.94)"/>
            <path id="Trazado_9389" data-name="Trazado 9389" d="M3014.226,452.8h2.334v8.1a6.555,6.555,0,0,1-.328,2.181,3.6,3.6,0,0,1-.95,1.5,3.955,3.955,0,0,1-1.457.839,6.147,6.147,0,0,1-1.908.273q-3.468,0-4.515-2.718l2.036-.869a2.972,2.972,0,0,0,.946,1.269,2.411,2.411,0,0,0,1.439.409q2.275,0,2.275-2.7v-1.022a2.754,2.754,0,0,1-1.1.865,3.671,3.671,0,0,1-1.555.328,3.924,3.924,0,0,1-2.811-1.18,4.051,4.051,0,0,1-.865-1.376,5.085,5.085,0,0,1,0-3.548,3.883,3.883,0,0,1,.869-1.359,4,4,0,0,1,1.278-.852,3.948,3.948,0,0,1,1.546-.307,3.564,3.564,0,0,1,1.623.362,2.589,2.589,0,0,1,1.086.967Zm-3.761,5.793a2.247,2.247,0,0,0,3.216-.008,2.448,2.448,0,0,0,0-3.331,2.267,2.267,0,0,0-3.229-.013,2.493,2.493,0,0,0,.009,3.352Z" transform="translate(-2965.546 -428.313)"/>
            <path id="Trazado_9390" data-name="Trazado 9390" d="M3035.27,446.371a1.376,1.376,0,0,1-1.005-.413,1.356,1.356,0,0,1-.417-1,1.339,1.339,0,0,1,.422-.992,1.38,1.38,0,0,1,1-.414,1.41,1.41,0,0,1,0,2.82Zm-1.252,10.07v-8.758h2.471v8.758Z" transform="translate(-2980.456 -423.193)"/>
            <path id="Trazado_9391" data-name="Trazado 9391" d="M3048.736,461.723a4.678,4.678,0,0,1-3.382-1.261,4.783,4.783,0,0,1,0-6.577,5.2,5.2,0,0,1,6.224-.409,3.764,3.764,0,0,1,1.465,2.377l-2.266.247a1.941,1.941,0,0,0-.733-1.15,2.227,2.227,0,0,0-1.329-.383,2.009,2.009,0,0,0-1.6.716,3.215,3.215,0,0,0,0,3.778,2,2,0,0,0,1.6.72,2.208,2.208,0,0,0,1.324-.383,1.988,1.988,0,0,0,.737-1.15l2.266.247a3.775,3.775,0,0,1-1.478,2.377A4.65,4.65,0,0,1,3048.736,461.723Z" transform="translate(-2986.203 -428.313)"/>
            <path id="Trazado_9392" data-name="Trazado 9392" d="M3071.827,461.732a5.5,5.5,0,0,1-2.479-.537,4.014,4.014,0,0,1-1.7-1.576,4.7,4.7,0,0,1-.617-2.445,4.286,4.286,0,0,1,1.329-3.323,5.556,5.556,0,0,1,6.944,0,4.834,4.834,0,0,1,0,6.658A4.93,4.93,0,0,1,3071.827,461.732Zm-.026-1.951a2.248,2.248,0,0,0,1.734-.716,3.04,3.04,0,0,0,0-3.782,2.248,2.248,0,0,0-1.734-.716,2.165,2.165,0,0,0-1.682.72,3.056,3.056,0,0,0,0,3.774A2.165,2.165,0,0,0,3071.8,459.781Z" transform="translate(-2999.164 -428.313)"/>
            <path id="Trazado_9393" data-name="Trazado 9393" d="M3095.37,461.732a4.89,4.89,0,0,1-2.555-.614,2.59,2.59,0,0,1-1.252-1.823l2.053-.579a1.65,1.65,0,0,0,1.755,1.3,1.813,1.813,0,0,0,.895-.2.7.7,0,0,0,.349-.677.719.719,0,0,0-.145-.451,1.149,1.149,0,0,0-.448-.324,5.66,5.66,0,0,0-.6-.23q-.294-.094-.78-.226t-.809-.251a5.459,5.459,0,0,1-.771-.328,3.3,3.3,0,0,1-.639-.451,1.823,1.823,0,0,1-.478-.686,2.475,2.475,0,0,1-.166-.937,2.237,2.237,0,0,1,.949-1.959,4.244,4.244,0,0,1,2.484-.665,4.353,4.353,0,0,1,2.292.562,2.547,2.547,0,0,1,1.176,1.755l-1.9.426a1.488,1.488,0,0,0-1.559-1.107,1.7,1.7,0,0,0-.86.2.63.63,0,0,0-.341.579.665.665,0,0,0,.051.264.521.521,0,0,0,.179.213,2.433,2.433,0,0,0,.247.162,1.846,1.846,0,0,0,.349.141c.153.048.281.085.383.111l.447.115.456.12q.469.128.822.256a4.772,4.772,0,0,1,.754.358,2.7,2.7,0,0,1,.66.516,2.292,2.292,0,0,1,.43.724,2.671,2.671,0,0,1,.17.975,2.633,2.633,0,0,1-.294,1.269,2.2,2.2,0,0,1-.805.856,3.91,3.91,0,0,1-1.137.46A5.922,5.922,0,0,1,3095.37,461.732Z" transform="translate(-3012.995 -428.313)"/>
          </g>
        </g>
        <g id="Grupo_10308" data-name="Grupo 10308" transform="translate(300.07 225.756)">
          <path id="Trazado_9394" data-name="Trazado 9394" d="M3176.76,815.7h-4.686V818.5h4.047v2.223h-4.047v5.044H3169.5V813.452h7.259Z" transform="translate(-3169.501 -813.452)"/>
          <path id="Trazado_9395" data-name="Trazado 9395" d="M3195.966,827.758a8.214,8.214,0,0,0,.213,2.138v.239h-2.292l-.2-.954a2.841,2.841,0,0,1-1.227.844,4.516,4.516,0,0,1-1.584.281,4.177,4.177,0,0,1-.818-.076,2.791,2.791,0,0,1-.737-.26,2.23,2.23,0,0,1-.609-.456,1.992,1.992,0,0,1-.409-.694,2.769,2.769,0,0,1-.153-.95,2.632,2.632,0,0,1,.162-.95,2.217,2.217,0,0,1,.426-.711,2.593,2.593,0,0,1,.69-.52,5.352,5.352,0,0,1,.869-.375,10.36,10.36,0,0,1,1.04-.273l1.44-.324a1.585,1.585,0,0,0,.651-.277.552.552,0,0,0,.192-.439.9.9,0,0,0-.431-.843,2.006,2.006,0,0,0-1.043-.256,1.5,1.5,0,0,0-1.713,1.337l-2.173-.392a2.94,2.94,0,0,1,1.27-2,5.04,5.04,0,0,1,2.751-.643q3.68,0,3.681,3.161Zm-4.32.886a1.976,1.976,0,0,0,1.517-.635,2.676,2.676,0,0,0,.588-1.879l-2.079.588a2.451,2.451,0,0,0-.873.358.735.735,0,0,0-.3.63.815.815,0,0,0,.324.694A1.339,1.339,0,0,0,3191.646,828.644Z" transform="translate(-3180.018 -817.824)"/>
          <path id="Trazado_9396" data-name="Trazado 9396" d="M3214.1,830.3a4.68,4.68,0,0,1-3.382-1.261,4.783,4.783,0,0,1,0-6.577,5.2,5.2,0,0,1,6.223-.409,3.767,3.767,0,0,1,1.466,2.377l-2.267.247a1.94,1.94,0,0,0-.732-1.15,2.227,2.227,0,0,0-1.329-.383,2.009,2.009,0,0,0-1.6.715,3.217,3.217,0,0,0,0,3.778,2,2,0,0,0,1.6.72,2.208,2.208,0,0,0,1.325-.383,1.986,1.986,0,0,0,.737-1.15l2.267.247a3.777,3.777,0,0,1-1.478,2.377A4.648,4.648,0,0,1,3214.1,830.3Z" transform="translate(-3191.998 -817.824)"/>
          <path id="Trazado_9397" data-name="Trazado 9397" d="M3235.831,826.7a2.646,2.646,0,0,1-1.977-.711,2.768,2.768,0,0,1-.7-2.023v-4.14h-1.721v-1.883h.554a1.446,1.446,0,0,0,1.09-.366,1.886,1.886,0,0,0,.349-1.3v-1.159h2.215v2.829h1.806v1.883h-1.806V823.7q0,1.133,1.013,1.133h.793V826.7Z" transform="translate(-3204.42 -814.388)"/>
          <path id="Trazado_9398" data-name="Trazado 9398" d="M3252.657,830.3a5.508,5.508,0,0,1-2.479-.536,4.011,4.011,0,0,1-1.7-1.576,4.694,4.694,0,0,1-.617-2.445,4.284,4.284,0,0,1,1.329-3.323,5.555,5.555,0,0,1,6.943,0,4.834,4.834,0,0,1,0,6.658A4.932,4.932,0,0,1,3252.657,830.3Zm-.025-1.951a2.248,2.248,0,0,0,1.734-.716,3.041,3.041,0,0,0,0-3.783,2.249,2.249,0,0,0-1.734-.715,2.165,2.165,0,0,0-1.683.72,3.057,3.057,0,0,0,0,3.774A2.165,2.165,0,0,0,3252.632,828.354Z" transform="translate(-3213.681 -817.824)"/>
          <path id="Trazado_9399" data-name="Trazado 9399" d="M3276.4,822.853a2.846,2.846,0,0,1,1.149-1.052,3.51,3.51,0,0,1,1.713-.439v2.19a3.316,3.316,0,0,0-2.1.528,2.306,2.306,0,0,0-.647,1.874v4.268h-2.47v-8.758h2.352Z" transform="translate(-3228.447 -817.912)"/>
          <path id="Trazado_9400" data-name="Trazado 9400" d="M3296.523,825.606l-.025.588h-6.492a2.265,2.265,0,0,0,.7,1.6,2.231,2.231,0,0,0,1.542.554,2.154,2.154,0,0,0,1.154-.3,1.857,1.857,0,0,0,.737-.882l2.249.332a3.824,3.824,0,0,1-1.533,2.053,4.56,4.56,0,0,1-2.59.732,4.739,4.739,0,0,1-3.412-1.205,5.045,5.045,0,0,1,0-6.688,4.6,4.6,0,0,1,3.331-1.223,4.009,4.009,0,0,1,4.336,4.439Zm-4.319-2.7a1.939,1.939,0,0,0-2.13,1.687h4.022a1.849,1.849,0,0,0-.605-1.253A1.917,1.917,0,0,0,3292.2,822.9Z" transform="translate(-3236.078 -817.802)"/>
          <path id="Trazado_9401" data-name="Trazado 9401" d="M3314.5,830.3a4.891,4.891,0,0,1-2.556-.613,2.59,2.59,0,0,1-1.252-1.823l2.053-.579a1.65,1.65,0,0,0,1.755,1.3,1.819,1.819,0,0,0,.895-.2.7.7,0,0,0,.349-.677.716.716,0,0,0-.145-.451,1.149,1.149,0,0,0-.448-.324,5.633,5.633,0,0,0-.6-.23q-.293-.094-.779-.226t-.81-.252a5.467,5.467,0,0,1-.771-.328,3.3,3.3,0,0,1-.639-.452,1.812,1.812,0,0,1-.477-.686,2.471,2.471,0,0,1-.167-.937,2.238,2.238,0,0,1,.95-1.96,4.247,4.247,0,0,1,2.483-.664,4.352,4.352,0,0,1,2.292.562,2.544,2.544,0,0,1,1.176,1.755l-1.9.426a1.489,1.489,0,0,0-1.559-1.107,1.7,1.7,0,0,0-.86.2.63.63,0,0,0-.341.579.663.663,0,0,0,.051.264.52.52,0,0,0,.179.213,2.512,2.512,0,0,0,.247.162,1.836,1.836,0,0,0,.349.141q.229.072.384.11l.447.115.456.12q.469.128.823.255a4.824,4.824,0,0,1,.753.358,2.7,2.7,0,0,1,.661.515,2.313,2.313,0,0,1,.43.724,2.665,2.665,0,0,1,.171.975,2.634,2.634,0,0,1-.294,1.269,2.21,2.21,0,0,1-.805.856,3.913,3.913,0,0,1-1.137.46A5.926,5.926,0,0,1,3314.5,830.3Z" transform="translate(-3249.106 -817.824)"/>
          <path id="Trazado_9402" data-name="Trazado 9402" d="M3175.223,878.3a4.9,4.9,0,0,1-2.556-.613,2.594,2.594,0,0,1-1.252-1.823l2.053-.579a1.65,1.65,0,0,0,1.755,1.3,1.814,1.814,0,0,0,.894-.2.7.7,0,0,0,.35-.677.716.716,0,0,0-.145-.451,1.15,1.15,0,0,0-.447-.324,5.668,5.668,0,0,0-.6-.23q-.294-.094-.779-.226t-.81-.252a5.428,5.428,0,0,1-.771-.328,3.312,3.312,0,0,1-.639-.452,1.814,1.814,0,0,1-.477-.686,2.472,2.472,0,0,1-.166-.937,2.238,2.238,0,0,1,.95-1.96,4.247,4.247,0,0,1,2.483-.664,4.354,4.354,0,0,1,2.292.562,2.545,2.545,0,0,1,1.176,1.755l-1.9.426a1.488,1.488,0,0,0-1.559-1.108,1.7,1.7,0,0,0-.86.2.63.63,0,0,0-.341.579.667.667,0,0,0,.051.264.525.525,0,0,0,.179.213,2.443,2.443,0,0,0,.247.162,1.847,1.847,0,0,0,.349.141c.154.048.281.085.383.11l.448.115.456.12q.468.128.822.255a4.848,4.848,0,0,1,.754.358,2.692,2.692,0,0,1,.66.515,2.3,2.3,0,0,1,.431.724,2.675,2.675,0,0,1,.17.975,2.633,2.633,0,0,1-.293,1.269,2.214,2.214,0,0,1-.805.856,3.911,3.911,0,0,1-1.138.46A5.918,5.918,0,0,1,3175.223,878.3Z" transform="translate(-3170.58 -844.886)"/>
          <path id="Trazado_9403" data-name="Trazado 9403" d="M3195.606,878.3a5.51,5.51,0,0,1-2.479-.536,4.009,4.009,0,0,1-1.7-1.576,4.692,4.692,0,0,1-.618-2.445,4.283,4.283,0,0,1,1.329-3.322,5.555,5.555,0,0,1,6.943,0,4.834,4.834,0,0,1,0,6.658A4.935,4.935,0,0,1,3195.606,878.3Zm-.026-1.951a2.247,2.247,0,0,0,1.734-.716,3.038,3.038,0,0,0,0-3.783,2.248,2.248,0,0,0-1.734-.715,2.165,2.165,0,0,0-1.683.72,3.058,3.058,0,0,0,0,3.774A2.165,2.165,0,0,0,3195.581,876.354Z" transform="translate(-3181.515 -844.886)"/>
          <path id="Trazado_9404" data-name="Trazado 9404" d="M3220.015,878.3a4.68,4.68,0,0,1-3.382-1.261,4.782,4.782,0,0,1,0-6.577,5.2,5.2,0,0,1,6.223-.409,3.761,3.761,0,0,1,1.465,2.377l-2.266.247a1.938,1.938,0,0,0-.733-1.15,2.226,2.226,0,0,0-1.329-.383,2.009,2.009,0,0,0-1.6.715,3.215,3.215,0,0,0,0,3.778,2,2,0,0,0,1.6.72,2.207,2.207,0,0,0,1.325-.383,1.987,1.987,0,0,0,.737-1.15l2.266.247a3.773,3.773,0,0,1-1.478,2.377A4.649,4.649,0,0,1,3220.015,878.3Z" transform="translate(-3195.334 -844.886)"/>
          <path id="Trazado_9405" data-name="Trazado 9405" d="M3240.982,862.944a1.378,1.378,0,0,1-1.005-.413,1.358,1.358,0,0,1-.417-1,1.339,1.339,0,0,1,.422-.993,1.38,1.38,0,0,1,1-.413,1.41,1.41,0,0,1,0,2.82Zm-1.252,10.07v-8.758h2.47v8.758Z" transform="translate(-3209.001 -839.766)"/>
          <path id="Trazado_9406" data-name="Trazado 9406" d="M3257.8,875.758a8.2,8.2,0,0,0,.213,2.138v.239h-2.292l-.2-.954a2.846,2.846,0,0,1-1.227.844,4.522,4.522,0,0,1-1.585.281,4.176,4.176,0,0,1-.818-.076,2.789,2.789,0,0,1-.737-.26,2.223,2.223,0,0,1-.609-.456,1.989,1.989,0,0,1-.409-.694,2.763,2.763,0,0,1-.154-.95,2.621,2.621,0,0,1,.162-.95,2.217,2.217,0,0,1,.426-.711,2.588,2.588,0,0,1,.69-.52,5.38,5.38,0,0,1,.869-.375,10.277,10.277,0,0,1,1.04-.273l1.44-.324a1.584,1.584,0,0,0,.651-.277.552.552,0,0,0,.192-.439.9.9,0,0,0-.431-.843,2.007,2.007,0,0,0-1.043-.256,1.5,1.5,0,0,0-1.713,1.337l-2.173-.392a2.939,2.939,0,0,1,1.27-2,5.04,5.04,0,0,1,2.751-.643q3.68,0,3.681,3.161Zm-4.32.886a1.976,1.976,0,0,0,1.517-.635,2.676,2.676,0,0,0,.587-1.879l-2.078.588a2.455,2.455,0,0,0-.874.358.735.735,0,0,0-.3.63.815.815,0,0,0,.323.694A1.34,1.34,0,0,0,3253.482,876.644Z" transform="translate(-3214.88 -844.886)"/>
          <path id="Trazado_9407" data-name="Trazado 9407" d="M3273.368,872.761V859.675h2.479v13.086Z" transform="translate(-3228.061 -839.513)"/>
          <path id="Trazado_9408" data-name="Trazado 9408" d="M3292.208,873.606l-.026.588h-6.491a2.266,2.266,0,0,0,.7,1.6,2.233,2.233,0,0,0,1.542.554,2.156,2.156,0,0,0,1.155-.3,1.854,1.854,0,0,0,.737-.882l2.249.332a3.821,3.821,0,0,1-1.533,2.053,4.56,4.56,0,0,1-2.59.732,4.739,4.739,0,0,1-3.412-1.205,5.046,5.046,0,0,1,0-6.688,4.6,4.6,0,0,1,3.331-1.223,4.009,4.009,0,0,1,4.336,4.439Zm-4.319-2.7a1.939,1.939,0,0,0-2.13,1.687h4.022a1.851,1.851,0,0,0-.605-1.253A1.918,1.918,0,0,0,3287.888,870.9Z" transform="translate(-3233.645 -844.864)"/>
          <path id="Trazado_9409" data-name="Trazado 9409" d="M3310.184,878.3a4.891,4.891,0,0,1-2.556-.613,2.592,2.592,0,0,1-1.252-1.823l2.053-.579a1.65,1.65,0,0,0,1.755,1.3,1.813,1.813,0,0,0,.894-.2.7.7,0,0,0,.35-.677.716.716,0,0,0-.145-.451,1.152,1.152,0,0,0-.447-.324,5.685,5.685,0,0,0-.6-.23q-.294-.094-.78-.226t-.809-.252a5.464,5.464,0,0,1-.771-.328,3.315,3.315,0,0,1-.639-.452,1.814,1.814,0,0,1-.477-.686,2.472,2.472,0,0,1-.166-.937,2.238,2.238,0,0,1,.95-1.96,4.246,4.246,0,0,1,2.483-.664,4.351,4.351,0,0,1,2.292.562,2.545,2.545,0,0,1,1.176,1.755l-1.9.426a1.489,1.489,0,0,0-1.559-1.108,1.705,1.705,0,0,0-.861.2.629.629,0,0,0-.34.579.663.663,0,0,0,.051.264.524.524,0,0,0,.179.213,2.471,2.471,0,0,0,.247.162,1.868,1.868,0,0,0,.35.141c.153.048.281.085.383.11l.448.115.456.12q.469.128.822.255a4.879,4.879,0,0,1,.754.358,2.7,2.7,0,0,1,.66.515,2.3,2.3,0,0,1,.431.724,2.68,2.68,0,0,1,.17.975,2.636,2.636,0,0,1-.293,1.269,2.216,2.216,0,0,1-.805.856,3.916,3.916,0,0,1-1.138.46A5.921,5.921,0,0,1,3310.184,878.3Z" transform="translate(-3246.672 -844.886)"/>
        </g>
        <g id="Grupo_10310" data-name="Grupo 10310" transform="translate(208.892 358.917)">
          <g id="Grupo_10309" data-name="Grupo 10309">
            <path id="Trazado_9410" data-name="Trazado 9410" d="M2967.033,1120.6h1.208l-3.3,9h-1.176l-3.3-9h1.2l2.683,7.565Z" transform="translate(-2960.471 -1119.787)"/>
            <path id="Trazado_9411" data-name="Trazado 9411" d="M2981.094,1133.093a2.135,2.135,0,0,1-1.377-.431,1.549,1.549,0,0,1-.54-1.288,1.835,1.835,0,0,1,.172-.821,1.455,1.455,0,0,1,.511-.572,3.051,3.051,0,0,1,.738-.354,6.753,6.753,0,0,1,.955-.227l1.016-.166q.556-.1.556-.581a1.1,1.1,0,0,0-.394-.936,1.6,1.6,0,0,0-.993-.3,1.633,1.633,0,0,0-.984.287,1.2,1.2,0,0,0-.466.882l-1-.211a1.917,1.917,0,0,1,.785-1.345,2.936,2.936,0,0,1,1.713-.45,3.492,3.492,0,0,1,.911.112,2.475,2.475,0,0,1,.76.352,1.573,1.573,0,0,1,.543.677,2.524,2.524,0,0,1,.2,1.032v2.594a1.063,1.063,0,0,0,.144.655.619.619,0,0,0,.495.169h.1v.8h-.55a1.048,1.048,0,0,1-1.188-.85h-.051A2.4,2.4,0,0,1,2981.094,1133.093Zm.256-.895a1.676,1.676,0,0,0,1.348-.607,2.5,2.5,0,0,0,.511-1.661l-1.661.319a2.239,2.239,0,0,0-.975.349.81.81,0,0,0-.316.687.8.8,0,0,0,.3.69A1.3,1.3,0,0,0,2981.349,1132.2Z" transform="translate(-2971.017 -1123.157)"/>
            <path id="Trazado_9412" data-name="Trazado 9412" d="M2995.964,1128.544v-9.814h1.118v9.814Z" transform="translate(-2980.482 -1118.73)"/>
            <path id="Trazado_9413" data-name="Trazado 9413" d="M3005.66,1133.077a3.307,3.307,0,0,1-1.61-.39,2.832,2.832,0,0,1-1.134-1.141,3.5,3.5,0,0,1-.418-1.735,3.2,3.2,0,0,1,.892-2.367,3.344,3.344,0,0,1,4.546,0,3.6,3.6,0,0,1,0,4.741A3.074,3.074,0,0,1,3005.66,1133.077Zm-.006-.92a1.93,1.93,0,0,0,1.485-.645,2.731,2.731,0,0,0,0-3.393,1.928,1.928,0,0,0-1.485-.646,1.9,1.9,0,0,0-1.473.646,2.752,2.752,0,0,0,0,3.393A1.9,1.9,0,0,0,3005.654,1132.156Z" transform="translate(-2984.166 -1123.141)"/>
            <path id="Trazado_9414" data-name="Trazado 9414" d="M3022.049,1127.845a1.9,1.9,0,0,1,.78-.843,2.348,2.348,0,0,1,1.207-.332v1.042a2.068,2.068,0,0,0-1.46.466,1.948,1.948,0,0,0-.5,1.489v3.354h-1.105v-6.281h1.08Z" transform="translate(-2994.58 -1123.207)"/>
            <path id="Trazado_9415" data-name="Trazado 9415" d="M3035.641,1129.69l-.013.3h-4.907a2.216,2.216,0,0,0,.6,1.606,1.97,1.97,0,0,0,1.432.559,1.88,1.88,0,0,0,1.041-.3,1.952,1.952,0,0,0,.716-.83l1,.211a2.83,2.83,0,0,1-1.073,1.348,2.927,2.927,0,0,1-1.668.492,3.036,3.036,0,0,1-2.262-.875,3.728,3.728,0,0,1,0-4.773,3,3,0,0,1,2.227-.875,2.834,2.834,0,0,1,2.111.8A3.178,3.178,0,0,1,3035.641,1129.69Zm-2.907-2.287a1.957,1.957,0,0,0-1.306.444,2.032,2.032,0,0,0-.662,1.293h3.764a1.864,1.864,0,0,0-.55-1.293A1.773,1.773,0,0,0,3032.734,1127.4Z" transform="translate(-2999.469 -1123.141)"/>
            <path id="Trazado_9416" data-name="Trazado 9416" d="M3048.667,1133.093a2.979,2.979,0,0,1-1.693-.454,1.876,1.876,0,0,1-.824-1.291l.965-.275a1.341,1.341,0,0,0,.514.872,1.664,1.664,0,0,0,1.032.31,2.062,2.062,0,0,0,.6-.083.969.969,0,0,0,.463-.31.833.833,0,0,0,.186-.572.846.846,0,0,0-.052-.259,1.112,1.112,0,0,0-.1-.208.642.642,0,0,0-.179-.173,2.473,2.473,0,0,0-.217-.134,2.342,2.342,0,0,0-.285-.118c-.125-.044-.226-.078-.3-.1l-.352-.1c-.157-.044-.279-.079-.364-.105a6.875,6.875,0,0,1-.652-.23,2.838,2.838,0,0,1-.53-.3,1.215,1.215,0,0,1-.412-.495,1.672,1.672,0,0,1-.137-.7,1.623,1.623,0,0,1,.306-1,1.723,1.723,0,0,1,.8-.591,3.178,3.178,0,0,1,1.115-.182,2.729,2.729,0,0,1,1.53.409,1.742,1.742,0,0,1,.764,1.227l-.907.23a1.205,1.205,0,0,0-.479-.8,1.531,1.531,0,0,0-.9-.265,1.547,1.547,0,0,0-.843.221.74.74,0,0,0-.352.674.665.665,0,0,0,.093.348,1.088,1.088,0,0,0,.188.246,1.148,1.148,0,0,0,.345.188q.249.1.37.134c.081.024.234.063.46.119.043.013.074.021.1.025q.37.1.6.17a3.776,3.776,0,0,1,.544.23,1.821,1.821,0,0,1,.489.342,1.589,1.589,0,0,1,.306.486,1.712,1.712,0,0,1,.128.677,1.831,1.831,0,0,1-.189.847,1.473,1.473,0,0,1-.514.578,2.523,2.523,0,0,1-.731.317A3.515,3.515,0,0,1,3048.667,1133.093Z" transform="translate(-3008.777 -1123.157)"/>
          </g>
        </g>
        <g id="Grupo_10311" data-name="Grupo 10311" transform="translate(378.58 100.649)">
          <path id="Trazado_9417" data-name="Trazado 9417" d="M3353.967,537.476a4.791,4.791,0,0,1-1.77-.322,4.274,4.274,0,0,1-1.421-.907,4.038,4.038,0,0,1-.946-1.46,5.265,5.265,0,0,1-.342-1.936,5.188,5.188,0,0,1,.345-1.927,4.036,4.036,0,0,1,2.364-2.367,4.826,4.826,0,0,1,1.77-.319,4.57,4.57,0,0,1,2.393.632,3.943,3.943,0,0,1,1.581,1.757l-1.054.435a2.956,2.956,0,0,0-1.178-1.281,3.379,3.379,0,0,0-1.741-.451,3.576,3.576,0,0,0-1.31.236,3.147,3.147,0,0,0-1.061.677,3.068,3.068,0,0,0-.712,1.112,4.466,4.466,0,0,0,0,2.994,3.058,3.058,0,0,0,.712,1.115,3.19,3.19,0,0,0,1.061.681,3.549,3.549,0,0,0,1.31.239,3.38,3.38,0,0,0,1.741-.451,2.962,2.962,0,0,0,1.178-1.275l1.054.428a3.92,3.92,0,0,1-1.578,1.76A4.582,4.582,0,0,1,3353.967,537.476Z" transform="translate(-3349.488 -527.54)"/>
          <path id="Trazado_9418" data-name="Trazado 9418" d="M3373.553,541a2.136,2.136,0,0,1-1.377-.431,1.548,1.548,0,0,1-.54-1.287,1.836,1.836,0,0,1,.172-.821,1.454,1.454,0,0,1,.511-.571,3.055,3.055,0,0,1,.738-.355,6.809,6.809,0,0,1,.955-.227l1.016-.166q.556-.1.556-.582a1.1,1.1,0,0,0-.393-.937,1.6,1.6,0,0,0-.993-.3,1.631,1.631,0,0,0-.984.287,1.2,1.2,0,0,0-.466.882l-1-.211a1.915,1.915,0,0,1,.785-1.345,2.934,2.934,0,0,1,1.713-.451,3.5,3.5,0,0,1,.911.112,2.473,2.473,0,0,1,.76.352,1.579,1.579,0,0,1,.543.677,2.528,2.528,0,0,1,.195,1.032v2.594a1.062,1.062,0,0,0,.144.655.619.619,0,0,0,.495.169h.1v.8h-.55a1.048,1.048,0,0,1-1.188-.85h-.051A2.4,2.4,0,0,1,3373.553,541Zm.256-.894a1.676,1.676,0,0,0,1.348-.607,2.5,2.5,0,0,0,.511-1.661l-1.662.32a2.234,2.234,0,0,0-.974.349.809.809,0,0,0-.316.687.8.8,0,0,0,.3.69A1.3,1.3,0,0,0,3373.809,540.109Z" transform="translate(-3361.976 -531.067)"/>
          <path id="Trazado_9419" data-name="Trazado 9419" d="M3391.74,534.462a2.853,2.853,0,0,1,1.137.23,2.8,2.8,0,0,1,.933.645,3.017,3.017,0,0,1,.629,1.035,3.825,3.825,0,0,1,.233,1.355,3.32,3.32,0,0,1-.847,2.37,2.75,2.75,0,0,1-2.086.9,2.485,2.485,0,0,1-1.313-.358,2.346,2.346,0,0,1-.9-.964v4.351h-1.105v-9.444h1.067l.026,1.221a2.293,2.293,0,0,1,.895-.981A2.509,2.509,0,0,1,3391.74,534.462Zm-.217,5.578a1.908,1.908,0,0,0,1.454-.636,2.673,2.673,0,0,0,0-3.351,1.983,1.983,0,0,0-2.93.028,2.562,2.562,0,0,0,0,3.3A1.914,1.914,0,0,0,3391.523,540.04Z" transform="translate(-3371.44 -531.05)"/>
          <path id="Trazado_9420" data-name="Trazado 9420" d="M3407.6,541a2.135,2.135,0,0,1-1.377-.431,1.548,1.548,0,0,1-.54-1.287,1.836,1.836,0,0,1,.172-.821,1.454,1.454,0,0,1,.511-.571,3.061,3.061,0,0,1,.738-.355,6.8,6.8,0,0,1,.955-.227l1.016-.166q.556-.1.556-.582a1.1,1.1,0,0,0-.393-.937,1.6,1.6,0,0,0-.993-.3,1.628,1.628,0,0,0-.984.287,1.2,1.2,0,0,0-.467.882l-1-.211a1.916,1.916,0,0,1,.785-1.345,2.933,2.933,0,0,1,1.713-.451,3.494,3.494,0,0,1,.911.112,2.468,2.468,0,0,1,.76.352,1.581,1.581,0,0,1,.543.677,2.528,2.528,0,0,1,.2,1.032v2.594a1.062,1.062,0,0,0,.144.655.62.62,0,0,0,.495.169h.1v.8h-.549a1.048,1.048,0,0,1-1.189-.85h-.051A2.4,2.4,0,0,1,3407.6,541Zm.256-.894a1.675,1.675,0,0,0,1.348-.607,2.5,2.5,0,0,0,.511-1.661l-1.661.32a2.234,2.234,0,0,0-.975.349.809.809,0,0,0-.316.687.8.8,0,0,0,.3.69A1.3,1.3,0,0,0,3407.852,540.109Z" transform="translate(-3381.169 -531.067)"/>
          <path id="Trazado_9421" data-name="Trazado 9421" d="M3424.1,540.98a3.027,3.027,0,0,1-2.25-.9,3.579,3.579,0,0,1,0-4.715,3.273,3.273,0,0,1,4.071-.352,2.777,2.777,0,0,1,1.057,1.527l-1.035.166a1.907,1.907,0,0,0-.709-.978,1.928,1.928,0,0,0-1.137-.345,1.859,1.859,0,0,0-1.454.645,2.79,2.79,0,0,0,0,3.384,1.863,1.863,0,0,0,1.454.642,1.93,1.93,0,0,0,1.137-.345,1.91,1.91,0,0,0,.709-.978l1.035.172a2.773,2.773,0,0,1-1.064,1.524A3.038,3.038,0,0,1,3424.1,540.98Z" transform="translate(-3389.783 -531.05)"/>
          <path id="Trazado_9422" data-name="Trazado 9422" d="M3438.8,529.433a.753.753,0,0,1-.748-.748.71.71,0,0,1,.22-.524.726.726,0,0,1,.528-.217.715.715,0,0,1,.52.217.706.706,0,0,1,.221.524.716.716,0,0,1-.221.527A.708.708,0,0,1,3438.8,529.433Zm-.562,7.757v-6.281h1.112v6.281Z" transform="translate(-3399.421 -527.375)"/>
          <path id="Trazado_9423" data-name="Trazado 9423" d="M3450.161,526.64h1.105v9.814H3450.2l-.025-1.22a2.312,2.312,0,0,1-.895.991,2.494,2.494,0,0,1-1.329.364,2.852,2.852,0,0,1-2.073-.885,3.017,3.017,0,0,1-.632-1.038,3.794,3.794,0,0,1-.233-1.348,3.305,3.305,0,0,1,.853-2.358,2.755,2.755,0,0,1,2.086-.907,2.5,2.5,0,0,1,1.313.355,2.329,2.329,0,0,1,.9.962Zm-1.981,8.99a1.879,1.879,0,0,0,1.46-.661,2.593,2.593,0,0,0,0-3.3,1.88,1.88,0,0,0-1.457-.664,1.924,1.924,0,0,0-1.47.642,2.647,2.647,0,0,0,0,3.342A1.925,1.925,0,0,0,3448.18,535.63Z" transform="translate(-3403.344 -526.64)"/>
          <path id="Trazado_9424" data-name="Trazado 9424" d="M3465.356,541a2.136,2.136,0,0,1-1.377-.431,1.547,1.547,0,0,1-.54-1.287,1.839,1.839,0,0,1,.172-.821,1.446,1.446,0,0,1,.511-.571,3.066,3.066,0,0,1,.738-.355,6.838,6.838,0,0,1,.956-.227l1.016-.166q.556-.1.556-.582a1.1,1.1,0,0,0-.393-.937,1.6,1.6,0,0,0-.993-.3,1.629,1.629,0,0,0-.984.287,1.2,1.2,0,0,0-.466.882l-1-.211a1.918,1.918,0,0,1,.786-1.345,2.933,2.933,0,0,1,1.713-.451,3.5,3.5,0,0,1,.911.112,2.47,2.47,0,0,1,.76.352,1.578,1.578,0,0,1,.543.677,2.524,2.524,0,0,1,.194,1.032v2.594a1.065,1.065,0,0,0,.144.655.622.622,0,0,0,.5.169h.1v.8h-.55a1.048,1.048,0,0,1-1.189-.85h-.051A2.4,2.4,0,0,1,3465.356,541Zm.256-.894a1.676,1.676,0,0,0,1.348-.607,2.5,2.5,0,0,0,.511-1.661l-1.661.32a2.233,2.233,0,0,0-.975.349.809.809,0,0,0-.316.687.8.8,0,0,0,.3.69A1.3,1.3,0,0,0,3465.611,540.109Z" transform="translate(-3413.734 -531.067)"/>
          <path id="Trazado_9425" data-name="Trazado 9425" d="M3483.911,526.64h1.105v9.814h-1.068l-.025-1.22a2.312,2.312,0,0,1-.895.991,2.494,2.494,0,0,1-1.329.364,2.852,2.852,0,0,1-2.073-.885,3.017,3.017,0,0,1-.632-1.038,3.794,3.794,0,0,1-.233-1.348,3.3,3.3,0,0,1,.853-2.358,2.755,2.755,0,0,1,2.086-.907,2.506,2.506,0,0,1,1.313.355,2.33,2.33,0,0,1,.9.962Zm-1.981,8.99a1.879,1.879,0,0,0,1.46-.661,2.594,2.594,0,0,0,0-3.3,1.88,1.88,0,0,0-1.457-.664,1.924,1.924,0,0,0-1.47.642,2.647,2.647,0,0,0,0,3.342A1.925,1.925,0,0,0,3481.93,535.63Z" transform="translate(-3422.372 -526.64)"/>
          <path id="Trazado_9426" data-name="Trazado 9426" d="M3503.1,537.6l-.013.3h-4.907a2.22,2.22,0,0,0,.6,1.607,1.973,1.973,0,0,0,1.432.559,1.883,1.883,0,0,0,1.041-.3,1.95,1.95,0,0,0,.716-.831l1,.211a2.836,2.836,0,0,1-1.073,1.348,2.93,2.93,0,0,1-1.667.492,3.035,3.035,0,0,1-2.262-.875,3.728,3.728,0,0,1,0-4.773,3,3,0,0,1,2.227-.875,2.835,2.835,0,0,1,2.111.805A3.18,3.18,0,0,1,3503.1,537.6Zm-2.907-2.287a1.957,1.957,0,0,0-1.307.444,2.032,2.032,0,0,0-.662,1.294h3.763a1.868,1.868,0,0,0-.55-1.294A1.773,1.773,0,0,0,3500.194,535.312Z" transform="translate(-3432.713 -531.05)"/>
          <path id="Trazado_9427" data-name="Trazado 9427" d="M3516.127,541a2.974,2.974,0,0,1-1.693-.454,1.873,1.873,0,0,1-.824-1.291l.964-.274a1.346,1.346,0,0,0,.515.872,1.666,1.666,0,0,0,1.031.31,2.063,2.063,0,0,0,.6-.083.969.969,0,0,0,.463-.31.83.83,0,0,0,.185-.572.815.815,0,0,0-.052-.259,1.083,1.083,0,0,0-.1-.208.639.639,0,0,0-.179-.172,2.426,2.426,0,0,0-.217-.134,2.313,2.313,0,0,0-.285-.118q-.188-.067-.3-.1l-.352-.1c-.157-.044-.279-.08-.364-.105q-.4-.122-.652-.23a2.836,2.836,0,0,1-.53-.3,1.214,1.214,0,0,1-.412-.5,1.668,1.668,0,0,1-.137-.7,1.624,1.624,0,0,1,.307-1,1.724,1.724,0,0,1,.8-.591,3.167,3.167,0,0,1,1.115-.182,2.729,2.729,0,0,1,1.53.409,1.746,1.746,0,0,1,.764,1.227l-.908.23a1.2,1.2,0,0,0-.479-.8,1.529,1.529,0,0,0-.9-.265,1.55,1.55,0,0,0-.843.221.741.741,0,0,0-.352.674.667.667,0,0,0,.093.349,1.082,1.082,0,0,0,.188.246,1.152,1.152,0,0,0,.345.189c.166.066.289.111.37.134s.234.063.46.118c.042.013.074.021.1.026q.371.1.6.169a3.8,3.8,0,0,1,.544.23,1.819,1.819,0,0,1,.489.342,1.581,1.581,0,0,1,.307.485,1.72,1.72,0,0,1,.128.677,1.825,1.825,0,0,1-.189.847,1.474,1.474,0,0,1-.514.578,2.508,2.508,0,0,1-.731.316A3.517,3.517,0,0,1,3516.127,541Z" transform="translate(-3442.021 -531.067)"/>
        </g>
        <g id="Grupo_10313" data-name="Grupo 10313" transform="translate(0 100.649)">
          <g id="Grupo_10312" data-name="Grupo 10312">
            <path id="Trazado_9428" data-name="Trazado 9428" d="M2487.623,528.515h1.137v9h-1.208l-4.85-7.278v7.278h-1.125v-9h1.2l4.85,7.246Z" transform="translate(-2481.578 -527.697)"/>
            <path id="Trazado_9429" data-name="Trazado 9429" d="M2508.5,537.6l-.012.3h-4.908a2.217,2.217,0,0,0,.6,1.607,1.971,1.971,0,0,0,1.431.559,1.884,1.884,0,0,0,1.042-.3,1.943,1.943,0,0,0,.715-.831l1,.211a2.839,2.839,0,0,1-1.074,1.348,2.93,2.93,0,0,1-1.668.492,3.033,3.033,0,0,1-2.261-.875,3.727,3.727,0,0,1,0-4.773,3,3,0,0,1,2.226-.875,2.836,2.836,0,0,1,2.112.805A3.18,3.18,0,0,1,2508.5,537.6Zm-2.907-2.287a1.957,1.957,0,0,0-1.306.444,2.034,2.034,0,0,0-.662,1.294h3.763a1.863,1.863,0,0,0-.549-1.294A1.776,1.776,0,0,0,2505.588,535.312Z" transform="translate(-2493.372 -531.05)"/>
            <path id="Trazado_9430" data-name="Trazado 9430" d="M2522.142,540.98a3.025,3.025,0,0,1-2.249-.9,3.578,3.578,0,0,1,0-4.715,3.272,3.272,0,0,1,4.07-.352,2.776,2.776,0,0,1,1.058,1.527l-1.035.166a1.911,1.911,0,0,0-.709-.978,1.93,1.93,0,0,0-1.137-.345,1.857,1.857,0,0,0-1.454.645,2.789,2.789,0,0,0,0,3.384,1.861,1.861,0,0,0,1.454.642,1.88,1.88,0,0,0,1.846-1.323l1.035.172a2.775,2.775,0,0,1-1.064,1.524A3.038,3.038,0,0,1,2522.142,540.98Z" transform="translate(-2502.679 -531.05)"/>
            <path id="Trazado_9431" data-name="Trazado 9431" d="M2541.367,537.6l-.012.3h-4.907a2.219,2.219,0,0,0,.6,1.607,1.971,1.971,0,0,0,1.431.559,1.884,1.884,0,0,0,1.042-.3,1.945,1.945,0,0,0,.716-.831l1,.211a2.836,2.836,0,0,1-1.073,1.348,2.931,2.931,0,0,1-1.668.492,3.033,3.033,0,0,1-2.261-.875,3.726,3.726,0,0,1,0-4.773,2.994,2.994,0,0,1,2.226-.875,2.836,2.836,0,0,1,2.112.805A3.18,3.18,0,0,1,2541.367,537.6Zm-2.907-2.287a1.958,1.958,0,0,0-1.306.444,2.032,2.032,0,0,0-.661,1.294h3.763a1.866,1.866,0,0,0-.549-1.294A1.775,1.775,0,0,0,2538.459,535.312Z" transform="translate(-2511.904 -531.05)"/>
            <path id="Trazado_9432" data-name="Trazado 9432" d="M2554.394,541a2.976,2.976,0,0,1-1.693-.454,1.877,1.877,0,0,1-.824-1.291l.965-.274a1.342,1.342,0,0,0,.515.872,1.667,1.667,0,0,0,1.032.31,2.06,2.06,0,0,0,.6-.083.969.969,0,0,0,.463-.31.831.831,0,0,0,.185-.572.851.851,0,0,0-.051-.259,1.128,1.128,0,0,0-.1-.208.635.635,0,0,0-.179-.172,2.327,2.327,0,0,0-.217-.134,2.3,2.3,0,0,0-.284-.118q-.189-.067-.3-.1l-.352-.1c-.157-.044-.279-.08-.364-.105a6.907,6.907,0,0,1-.652-.23,2.831,2.831,0,0,1-.531-.3,1.215,1.215,0,0,1-.412-.5,1.667,1.667,0,0,1-.138-.7,1.627,1.627,0,0,1,.307-1,1.724,1.724,0,0,1,.8-.591,3.165,3.165,0,0,1,1.115-.182,2.726,2.726,0,0,1,1.53.409,1.743,1.743,0,0,1,.764,1.227l-.907.23a1.2,1.2,0,0,0-.479-.8,1.531,1.531,0,0,0-.9-.265,1.554,1.554,0,0,0-.844.221.741.741,0,0,0-.351.674.665.665,0,0,0,.093.349,1.075,1.075,0,0,0,.188.246,1.153,1.153,0,0,0,.345.189c.166.066.29.111.371.134s.234.063.46.118c.042.013.074.021.1.026q.371.1.6.169a3.789,3.789,0,0,1,.544.23,1.821,1.821,0,0,1,.489.342,1.585,1.585,0,0,1,.306.485,1.707,1.707,0,0,1,.128.677,1.831,1.831,0,0,1-.188.847,1.475,1.475,0,0,1-.514.578,2.506,2.506,0,0,1-.731.316A3.52,3.52,0,0,1,2554.394,541Z" transform="translate(-2521.212 -531.067)"/>
            <path id="Trazado_9433" data-name="Trazado 9433" d="M2567.258,529.433a.753.753,0,0,1-.748-.748.71.71,0,0,1,.22-.524.726.726,0,0,1,.528-.217.715.715,0,0,1,.52.217.706.706,0,0,1,.221.524.716.716,0,0,1-.221.527A.708.708,0,0,1,2567.258,529.433Zm-.563,7.757v-6.281h1.112v6.281Z" transform="translate(-2529.463 -527.375)"/>
            <path id="Trazado_9434" data-name="Trazado 9434" d="M2578.618,526.64h1.105v9.814h-1.067l-.026-1.22a2.312,2.312,0,0,1-.895.991,2.5,2.5,0,0,1-1.329.364,2.832,2.832,0,0,1-1.137-.233,2.863,2.863,0,0,1-.937-.652,3.023,3.023,0,0,1-.632-1.038,3.794,3.794,0,0,1-.233-1.348,3.305,3.305,0,0,1,.853-2.358,2.755,2.755,0,0,1,2.086-.907,2.506,2.506,0,0,1,1.313.355,2.329,2.329,0,0,1,.9.962Zm-1.981,8.99a1.878,1.878,0,0,0,1.46-.661,2.593,2.593,0,0,0,0-3.3,1.88,1.88,0,0,0-1.457-.664,1.924,1.924,0,0,0-1.47.642,2.647,2.647,0,0,0,0,3.342A1.925,1.925,0,0,0,2576.637,535.63Z" transform="translate(-2533.385 -526.64)"/>
            <path id="Trazado_9435" data-name="Trazado 9435" d="M2593.813,541a2.136,2.136,0,0,1-1.377-.431,1.547,1.547,0,0,1-.54-1.287,1.839,1.839,0,0,1,.172-.821,1.451,1.451,0,0,1,.511-.571,3.067,3.067,0,0,1,.738-.355,6.805,6.805,0,0,1,.955-.227l1.016-.166q.556-.1.556-.582a1.1,1.1,0,0,0-.393-.937,1.6,1.6,0,0,0-.994-.3,1.628,1.628,0,0,0-.984.287,1.2,1.2,0,0,0-.466.882l-1-.211a1.918,1.918,0,0,1,.786-1.345,2.932,2.932,0,0,1,1.712-.451,3.5,3.5,0,0,1,.911.112,2.468,2.468,0,0,1,.76.352,1.578,1.578,0,0,1,.543.677,2.524,2.524,0,0,1,.194,1.032v2.594a1.065,1.065,0,0,0,.144.655.622.622,0,0,0,.5.169h.1v.8h-.55a1.048,1.048,0,0,1-1.189-.85h-.051A2.4,2.4,0,0,1,2593.813,541Zm.256-.894a1.676,1.676,0,0,0,1.348-.607,2.5,2.5,0,0,0,.511-1.661l-1.661.32a2.232,2.232,0,0,0-.975.349.809.809,0,0,0-.316.687.8.8,0,0,0,.3.69A1.3,1.3,0,0,0,2594.068,540.109Z" transform="translate(-2543.776 -531.067)"/>
            <path id="Trazado_9436" data-name="Trazado 9436" d="M2612.368,526.64h1.106v9.814h-1.067l-.026-1.22a2.315,2.315,0,0,1-.895.991,2.494,2.494,0,0,1-1.329.364,2.853,2.853,0,0,1-2.074-.885,3.02,3.02,0,0,1-.632-1.038,3.794,3.794,0,0,1-.233-1.348,3.3,3.3,0,0,1,.853-2.358,2.755,2.755,0,0,1,2.086-.907,2.507,2.507,0,0,1,1.313.355,2.33,2.33,0,0,1,.9.962Zm-1.981,8.99a1.879,1.879,0,0,0,1.46-.661,2.594,2.594,0,0,0,0-3.3,1.88,1.88,0,0,0-1.457-.664,1.924,1.924,0,0,0-1.47.642,2.647,2.647,0,0,0,0,3.342A1.925,1.925,0,0,0,2610.387,535.63Z" transform="translate(-2552.414 -526.64)"/>
            <path id="Trazado_9437" data-name="Trazado 9437" d="M2631.558,537.6l-.013.3h-4.907a2.219,2.219,0,0,0,.6,1.607,1.972,1.972,0,0,0,1.432.559,1.882,1.882,0,0,0,1.041-.3,1.95,1.95,0,0,0,.716-.831l1,.211a2.833,2.833,0,0,1-1.073,1.348,2.931,2.931,0,0,1-1.668.492,3.035,3.035,0,0,1-2.262-.875,3.728,3.728,0,0,1,0-4.773,3,3,0,0,1,2.227-.875,2.835,2.835,0,0,1,2.111.805A3.18,3.18,0,0,1,2631.558,537.6Zm-2.907-2.287a1.956,1.956,0,0,0-1.307.444,2.032,2.032,0,0,0-.662,1.294h3.763a1.868,1.868,0,0,0-.55-1.294A1.773,1.773,0,0,0,2628.651,535.312Z" transform="translate(-2562.754 -531.05)"/>
            <path id="Trazado_9438" data-name="Trazado 9438" d="M2644.584,541a2.974,2.974,0,0,1-1.693-.454,1.874,1.874,0,0,1-.824-1.291l.965-.274a1.341,1.341,0,0,0,.514.872,1.666,1.666,0,0,0,1.031.31,2.061,2.061,0,0,0,.6-.083.968.968,0,0,0,.463-.31.862.862,0,0,0,.134-.831,1.113,1.113,0,0,0-.1-.208.64.64,0,0,0-.179-.172,2.358,2.358,0,0,0-.217-.134,2.265,2.265,0,0,0-.285-.118c-.126-.044-.226-.078-.3-.1l-.352-.1c-.157-.044-.279-.08-.364-.105q-.4-.122-.652-.23a2.834,2.834,0,0,1-.53-.3,1.213,1.213,0,0,1-.412-.5,1.667,1.667,0,0,1-.137-.7,1.625,1.625,0,0,1,.307-1,1.724,1.724,0,0,1,.8-.591,3.166,3.166,0,0,1,1.115-.182,2.729,2.729,0,0,1,1.53.409,1.745,1.745,0,0,1,.764,1.227l-.908.23a1.2,1.2,0,0,0-.479-.8,1.53,1.53,0,0,0-.9-.265,1.549,1.549,0,0,0-.843.221.741.741,0,0,0-.352.674.667.667,0,0,0,.093.349,1.082,1.082,0,0,0,.189.246,1.139,1.139,0,0,0,.345.189c.166.066.289.111.37.134s.234.063.46.118c.043.013.074.021.1.026q.371.1.6.169a3.813,3.813,0,0,1,.544.23,1.823,1.823,0,0,1,.489.342,1.581,1.581,0,0,1,.307.485,1.72,1.72,0,0,1,.128.677,1.828,1.828,0,0,1-.189.847,1.472,1.472,0,0,1-.514.578,2.508,2.508,0,0,1-.731.316A3.519,3.519,0,0,1,2644.584,541Z" transform="translate(-2572.062 -531.067)"/>
          </g>
        </g>
        <g id="Grupo_10314" data-name="Grupo 10314" transform="translate(73.588 225.756)">
          <path id="Trazado_9439" data-name="Trazado 9439" d="M2693.342,815.7h-4.686V818.5h4.046v2.223h-4.046v5.044h-2.573V813.452h7.259Z" transform="translate(-2670.467 -813.452)"/>
          <path id="Trazado_9440" data-name="Trazado 9440" d="M2712.548,827.758a8.214,8.214,0,0,0,.213,2.138v.239h-2.292l-.2-.954a2.842,2.842,0,0,1-1.227.844,4.515,4.515,0,0,1-1.584.281,4.176,4.176,0,0,1-.818-.076,2.785,2.785,0,0,1-.737-.26,2.22,2.22,0,0,1-.609-.456,1.988,1.988,0,0,1-.409-.694,2.763,2.763,0,0,1-.153-.95,2.645,2.645,0,0,1,.161-.95,2.231,2.231,0,0,1,.426-.711,2.592,2.592,0,0,1,.69-.52,5.354,5.354,0,0,1,.869-.375,10.406,10.406,0,0,1,1.04-.273l1.44-.324a1.587,1.587,0,0,0,.651-.277.553.553,0,0,0,.192-.439.9.9,0,0,0-.431-.843,2.006,2.006,0,0,0-1.043-.256,1.5,1.5,0,0,0-1.713,1.337l-2.173-.392a2.94,2.94,0,0,1,1.27-2,5.046,5.046,0,0,1,2.752-.643q3.68,0,3.681,3.161Zm-4.32.886a1.975,1.975,0,0,0,1.517-.635,2.676,2.676,0,0,0,.588-1.879l-2.079.588a2.469,2.469,0,0,0-.874.358.735.735,0,0,0-.3.63.815.815,0,0,0,.323.694A1.34,1.34,0,0,0,2708.229,828.644Z" transform="translate(-2680.983 -817.824)"/>
          <path id="Trazado_9441" data-name="Trazado 9441" d="M2730.68,830.3a4.678,4.678,0,0,1-3.382-1.261,4.784,4.784,0,0,1,0-6.577,5.2,5.2,0,0,1,6.223-.409,3.765,3.765,0,0,1,1.466,2.377l-2.266.247a1.94,1.94,0,0,0-.732-1.15,2.228,2.228,0,0,0-1.329-.383,2.009,2.009,0,0,0-1.6.715,3.217,3.217,0,0,0,0,3.778,2,2,0,0,0,1.6.72,2.209,2.209,0,0,0,1.325-.383,1.986,1.986,0,0,0,.737-1.15l2.266.247a3.775,3.775,0,0,1-1.478,2.377A4.645,4.645,0,0,1,2730.68,830.3Z" transform="translate(-2692.964 -817.824)"/>
          <path id="Trazado_9442" data-name="Trazado 9442" d="M2752.413,826.7a2.643,2.643,0,0,1-1.976-.711,2.766,2.766,0,0,1-.7-2.023v-4.14h-1.72v-1.883h.553a1.444,1.444,0,0,0,1.09-.366,1.883,1.883,0,0,0,.349-1.3v-1.159h2.215v2.829h1.806v1.883h-1.806V823.7q0,1.133,1.013,1.133h.793V826.7Z" transform="translate(-2705.385 -814.388)"/>
          <path id="Trazado_9443" data-name="Trazado 9443" d="M2769.239,830.3a5.509,5.509,0,0,1-2.479-.536,4.012,4.012,0,0,1-1.7-1.576,4.694,4.694,0,0,1-.617-2.445,4.284,4.284,0,0,1,1.329-3.323,5.555,5.555,0,0,1,6.943,0,4.834,4.834,0,0,1,0,6.658A4.93,4.93,0,0,1,2769.239,830.3Zm-.026-1.951a2.248,2.248,0,0,0,1.734-.716,3.041,3.041,0,0,0,0-3.783,2.249,2.249,0,0,0-1.734-.715,2.166,2.166,0,0,0-1.682.72,3.058,3.058,0,0,0,0,3.774A2.165,2.165,0,0,0,2769.214,828.354Z" transform="translate(-2714.646 -817.824)"/>
          <path id="Trazado_9444" data-name="Trazado 9444" d="M2792.985,822.853a2.849,2.849,0,0,1,1.15-1.052,3.514,3.514,0,0,1,1.713-.439v2.19a3.32,3.32,0,0,0-2.1.528,2.307,2.307,0,0,0-.647,1.874v4.268h-2.47v-8.758h2.352Z" transform="translate(-2729.413 -817.912)"/>
          <path id="Trazado_9445" data-name="Trazado 9445" d="M2813.105,825.606l-.025.588h-6.492a2.265,2.265,0,0,0,.7,1.6,2.23,2.23,0,0,0,1.542.554,2.15,2.15,0,0,0,1.154-.3,1.857,1.857,0,0,0,.737-.882l2.249.332a3.826,3.826,0,0,1-1.534,2.053,4.559,4.559,0,0,1-2.59.732,4.738,4.738,0,0,1-3.412-1.205,5.045,5.045,0,0,1,0-6.688,4.6,4.6,0,0,1,3.332-1.223,4.009,4.009,0,0,1,4.336,4.439Zm-4.319-2.7a1.939,1.939,0,0,0-2.13,1.687h4.022a1.851,1.851,0,0,0-.605-1.253A1.917,1.917,0,0,0,2808.786,822.9Z" transform="translate(-2737.044 -817.802)"/>
          <path id="Trazado_9446" data-name="Trazado 9446" d="M2831.083,830.3a4.889,4.889,0,0,1-2.555-.613,2.589,2.589,0,0,1-1.252-1.823l2.053-.579a1.649,1.649,0,0,0,1.755,1.3,1.814,1.814,0,0,0,.895-.2.7.7,0,0,0,.35-.677.719.719,0,0,0-.145-.451,1.156,1.156,0,0,0-.448-.324,5.63,5.63,0,0,0-.6-.23q-.294-.093-.78-.226t-.81-.252a5.42,5.42,0,0,1-.771-.328,3.282,3.282,0,0,1-.639-.452,1.813,1.813,0,0,1-.478-.686,2.472,2.472,0,0,1-.166-.937,2.239,2.239,0,0,1,.95-1.96,4.248,4.248,0,0,1,2.484-.664,4.352,4.352,0,0,1,2.291.562,2.546,2.546,0,0,1,1.176,1.755l-1.9.426a1.488,1.488,0,0,0-1.559-1.107,1.709,1.709,0,0,0-.861.2.63.63,0,0,0-.341.579.666.666,0,0,0,.051.264.524.524,0,0,0,.179.213,2.51,2.51,0,0,0,.247.162,1.85,1.85,0,0,0,.349.141q.23.072.384.11l.447.115.456.12q.468.128.822.255a4.827,4.827,0,0,1,.754.358,2.71,2.71,0,0,1,.66.515,2.3,2.3,0,0,1,.43.724,2.67,2.67,0,0,1,.171.975,2.638,2.638,0,0,1-.294,1.269,2.2,2.2,0,0,1-.805.856,3.907,3.907,0,0,1-1.137.46A5.918,5.918,0,0,1,2831.083,830.3Z" transform="translate(-2750.071 -817.824)"/>
          <path id="Trazado_9447" data-name="Trazado 9447" d="M2655.42,869.206a4.258,4.258,0,0,1,1.635.315,4.1,4.1,0,0,1,1.342.886,4.014,4.014,0,0,1,.907,1.444,5.715,5.715,0,0,1,0,3.842,4.006,4.006,0,0,1-.907,1.444,4.09,4.09,0,0,1-1.342.886,4.267,4.267,0,0,1-1.635.315,3.8,3.8,0,0,1-1.585-.324,2.479,2.479,0,0,1-1.1-.92v5.3h-2.454V869.376h2.326l.069,1.176a2.4,2.4,0,0,1,1.094-.992A3.766,3.766,0,0,1,2655.42,869.206Zm-.554,7.1a2.2,2.2,0,0,0,1.657-.686,2.906,2.906,0,0,0,0-3.689,2.345,2.345,0,0,0-3.327.013,2.856,2.856,0,0,0,0,3.663A2.208,2.208,0,0,0,2654.865,876.3Z" transform="translate(-2650.282 -844.886)"/>
          <path id="Trazado_9448" data-name="Trazado 9448" d="M2678.114,878.3a4.893,4.893,0,0,1-2.556-.613,2.59,2.59,0,0,1-1.252-1.823l2.053-.579a1.649,1.649,0,0,0,1.755,1.3,1.812,1.812,0,0,0,.895-.2.7.7,0,0,0,.349-.677.714.714,0,0,0-.145-.451,1.155,1.155,0,0,0-.447-.324,5.6,5.6,0,0,0-.6-.23q-.294-.093-.78-.226t-.809-.252a5.418,5.418,0,0,1-.771-.328,3.288,3.288,0,0,1-.639-.452,1.813,1.813,0,0,1-.477-.686,2.472,2.472,0,0,1-.167-.937,2.238,2.238,0,0,1,.95-1.96,4.248,4.248,0,0,1,2.484-.664,4.354,4.354,0,0,1,2.292.562,2.545,2.545,0,0,1,1.175,1.755l-1.9.426a1.489,1.489,0,0,0-1.559-1.108,1.708,1.708,0,0,0-.86.2.629.629,0,0,0-.341.579.654.654,0,0,0,.052.264.514.514,0,0,0,.179.213,2.46,2.46,0,0,0,.247.162,1.857,1.857,0,0,0,.349.141q.23.073.384.11l.447.115.456.12q.468.128.823.255a4.863,4.863,0,0,1,.754.358,2.7,2.7,0,0,1,.66.515,2.3,2.3,0,0,1,.43.724,2.665,2.665,0,0,1,.171.975,2.632,2.632,0,0,1-.294,1.269,2.2,2.2,0,0,1-.8.856,3.924,3.924,0,0,1-1.138.46A5.923,5.923,0,0,1,2678.114,878.3Z" transform="translate(-2663.827 -844.886)"/>
          <path id="Trazado_9449" data-name="Trazado 9449" d="M2696.373,862.944a1.38,1.38,0,0,1-1.006-.413,1.358,1.358,0,0,1-.417-1,1.343,1.343,0,0,1,.422-.993,1.383,1.383,0,0,1,1-.413,1.41,1.41,0,0,1,0,2.82Zm-1.252,10.07v-8.758h2.471v8.758Z" transform="translate(-2675.466 -839.766)"/>
          <path id="Trazado_9450" data-name="Trazado 9450" d="M2709.84,878.3a4.676,4.676,0,0,1-3.382-1.261,4.783,4.783,0,0,1,0-6.577,5.2,5.2,0,0,1,6.223-.409,3.763,3.763,0,0,1,1.466,2.377l-2.266.247a1.94,1.94,0,0,0-.732-1.15,2.229,2.229,0,0,0-1.329-.383,2.009,2.009,0,0,0-1.6.715,3.215,3.215,0,0,0,0,3.778,2,2,0,0,0,1.6.72,2.207,2.207,0,0,0,1.324-.383,1.988,1.988,0,0,0,.737-1.15l2.266.247a3.775,3.775,0,0,1-1.478,2.377A4.645,4.645,0,0,1,2709.84,878.3Z" transform="translate(-2681.214 -844.886)"/>
          <path id="Trazado_9451" data-name="Trazado 9451" d="M2732.93,878.3a5.509,5.509,0,0,1-2.479-.536,4.011,4.011,0,0,1-1.7-1.576,4.7,4.7,0,0,1-.617-2.445,4.285,4.285,0,0,1,1.329-3.322,5.556,5.556,0,0,1,6.944,0,4.834,4.834,0,0,1,0,6.658A4.931,4.931,0,0,1,2732.93,878.3Zm-.026-1.951a2.248,2.248,0,0,0,1.734-.716,3.039,3.039,0,0,0,0-3.783,2.249,2.249,0,0,0-1.734-.715,2.166,2.166,0,0,0-1.682.72,3.058,3.058,0,0,0,0,3.774A2.165,2.165,0,0,0,2732.9,876.354Z" transform="translate(-2694.175 -844.886)"/>
          <path id="Trazado_9452" data-name="Trazado 9452" d="M2754.325,872.761V859.675h2.479v13.086Z" transform="translate(-2708.941 -839.513)"/>
          <path id="Trazado_9453" data-name="Trazado 9453" d="M2768.985,872.931a5.51,5.51,0,0,1-2.479-.536,4.009,4.009,0,0,1-1.7-1.576,4.691,4.691,0,0,1-.618-2.445,4.283,4.283,0,0,1,1.329-3.322,5.555,5.555,0,0,1,6.943,0,4.835,4.835,0,0,1,0,6.658A4.932,4.932,0,0,1,2768.985,872.931Zm-.026-1.951a2.249,2.249,0,0,0,1.734-.716,3.041,3.041,0,0,0,0-3.783,2.249,2.249,0,0,0-1.734-.715,2.166,2.166,0,0,0-1.683.72,3.058,3.058,0,0,0,0,3.774A2.165,2.165,0,0,0,2768.96,870.98Zm-.733-8.17,2.232-3.135,1.21.852-1.934,2.283Z" transform="translate(-2714.503 -839.513)"/>
          <path id="Trazado_9454" data-name="Trazado 9454" d="M2795.388,869.376h2.335v8.1a6.555,6.555,0,0,1-.328,2.181,3.6,3.6,0,0,1-.95,1.5,3.956,3.956,0,0,1-1.457.839,6.137,6.137,0,0,1-1.908.273q-3.468,0-4.515-2.717l2.036-.869a2.973,2.973,0,0,0,.946,1.269,2.409,2.409,0,0,0,1.44.409q2.275,0,2.275-2.7v-1.022a2.755,2.755,0,0,1-1.1.865,3.663,3.663,0,0,1-1.555.328,3.922,3.922,0,0,1-2.811-1.18,4.047,4.047,0,0,1-.865-1.376,5.08,5.08,0,0,1,0-3.548,3.881,3.881,0,0,1,.869-1.359,4,4,0,0,1,1.278-.852,3.939,3.939,0,0,1,1.546-.307,3.565,3.565,0,0,1,1.623.362,2.589,2.589,0,0,1,1.086.967Zm-3.761,5.793a2.247,2.247,0,0,0,3.216-.009,2.448,2.448,0,0,0,0-3.331,2.268,2.268,0,0,0-3.229-.013,2.331,2.331,0,0,0-.643,1.683A2.307,2.307,0,0,0,2791.626,875.17Z" transform="translate(-2728.246 -844.886)"/>
          <path id="Trazado_9455" data-name="Trazado 9455" d="M2816.432,862.944a1.378,1.378,0,0,1-1.005-.413,1.355,1.355,0,0,1-.418-1,1.342,1.342,0,0,1,.422-.993,1.382,1.382,0,0,1,1-.413,1.41,1.41,0,0,1,0,2.82Zm-1.252,10.07v-8.758h2.471v8.758Z" transform="translate(-2743.155 -839.766)"/>
          <path id="Trazado_9456" data-name="Trazado 9456" d="M2829.9,878.3a4.678,4.678,0,0,1-3.382-1.261,4.783,4.783,0,0,1,0-6.577,5.2,5.2,0,0,1,6.224-.409,3.765,3.765,0,0,1,1.465,2.377l-2.266.247a1.94,1.94,0,0,0-.733-1.15,2.227,2.227,0,0,0-1.329-.383,2.009,2.009,0,0,0-1.6.715,3.214,3.214,0,0,0,0,3.778,2,2,0,0,0,1.6.72,2.21,2.21,0,0,0,1.325-.383,1.991,1.991,0,0,0,.737-1.15l2.266.247a3.777,3.777,0,0,1-1.478,2.377A4.648,4.648,0,0,1,2829.9,878.3Z" transform="translate(-2748.904 -844.886)"/>
          <path id="Trazado_9457" data-name="Trazado 9457" d="M2852.989,878.3a5.506,5.506,0,0,1-2.479-.536,4.011,4.011,0,0,1-1.7-1.576,4.694,4.694,0,0,1-.618-2.445,4.284,4.284,0,0,1,1.329-3.322,5.555,5.555,0,0,1,6.943,0,4.834,4.834,0,0,1,0,6.658A4.93,4.93,0,0,1,2852.989,878.3Zm-.026-1.951a2.248,2.248,0,0,0,1.734-.716,3.04,3.04,0,0,0,0-3.783,2.249,2.249,0,0,0-1.734-.715,2.166,2.166,0,0,0-1.682.72,3.058,3.058,0,0,0,0,3.774A2.165,2.165,0,0,0,2852.963,876.354Z" transform="translate(-2761.865 -844.886)"/>
          <path id="Trazado_9458" data-name="Trazado 9458" d="M2876.532,878.3a4.892,4.892,0,0,1-2.556-.613,2.59,2.59,0,0,1-1.252-1.823l2.053-.579a1.65,1.65,0,0,0,1.755,1.3,1.811,1.811,0,0,0,.895-.2.7.7,0,0,0,.349-.677.716.716,0,0,0-.145-.451,1.161,1.161,0,0,0-.448-.324,5.647,5.647,0,0,0-.6-.23q-.294-.093-.78-.226t-.809-.252a5.43,5.43,0,0,1-.771-.328,3.288,3.288,0,0,1-.639-.452,1.811,1.811,0,0,1-.477-.686,2.472,2.472,0,0,1-.166-.937,2.238,2.238,0,0,1,.949-1.96,4.251,4.251,0,0,1,2.484-.664,4.353,4.353,0,0,1,2.292.562,2.546,2.546,0,0,1,1.176,1.755l-1.9.426a1.488,1.488,0,0,0-1.559-1.108,1.707,1.707,0,0,0-.861.2.63.63,0,0,0-.341.579.658.658,0,0,0,.052.264.518.518,0,0,0,.179.213,2.4,2.4,0,0,0,.247.162,1.854,1.854,0,0,0,.35.141c.153.048.281.085.383.11l.447.115.456.12q.468.128.822.255a4.854,4.854,0,0,1,.754.358,2.7,2.7,0,0,1,.66.515,2.29,2.29,0,0,1,.43.724,2.67,2.67,0,0,1,.17.975,2.635,2.635,0,0,1-.294,1.269,2.2,2.2,0,0,1-.805.856,3.912,3.912,0,0,1-1.137.46A5.925,5.925,0,0,1,2876.532,878.3Z" transform="translate(-2775.696 -844.886)"/>
        </g>
        <g id="Grupo_10315" data-name="Grupo 10315" transform="translate(229.672 278.003)">
          <line id="Lnea_107" data-name="Lnea 107" y2="68.241" transform="translate(0.436 0)"/>
          <rect id="Rectngulo_2795" data-name="Rectngulo 2795" width="0.872" height="68.241" transform="translate(0 0)" fill="#231f20"/>
        </g>
        <rect id="Rectngulo_2796" data-name="Rectngulo 2796" width="1.309" height="71.801" transform="matrix(0.464, -0.886, 0.886, 0.464, 90.609, 107.206)" fill="#231f20"/>
        <rect id="Rectngulo_2797" data-name="Rectngulo 2797" width="71.801" height="1.309" transform="translate(301.918 139.384) rotate(-27.658)" fill="#231f20"/>
        <g id="Grupo_10316" data-name="Grupo 10316" transform="translate(86.648 102.361)">
          <circle id="Elipse_668" data-name="Elipse 668" cx="4.265" cy="4.265" r="4.265"/>
          <circle id="Elipse_669" data-name="Elipse 669" cx="2.326" cy="2.326" r="2.326" transform="translate(1.939 1.939)" fill="#fff"/>
        </g>
        <g id="Grupo_10317" data-name="Grupo 10317" transform="translate(361.549 102.361)">
          <circle id="Elipse_670" data-name="Elipse 670" cx="4.265" cy="4.265" r="4.265"/>
          <circle id="Elipse_671" data-name="Elipse 671" cx="2.326" cy="2.326" r="2.326" transform="translate(1.939 1.939)" fill="#fff"/>
        </g>
        <g id="Grupo_10318" data-name="Grupo 10318" transform="translate(225.843 342.92)">
          <circle id="Elipse_672" data-name="Elipse 672" cx="4.265" cy="4.265" r="4.265"/>
          <circle id="Elipse_673" data-name="Elipse 673" cx="2.326" cy="2.326" r="2.326" transform="translate(1.939 1.939)" fill="#fff"/>
        </g>
      </g>
      <g id="Grupo_10324" data-name="Grupo 10324" transform="translate(210.436 162.172)">
        <g id="Grupo_10321" data-name="Grupo 10321" transform="translate(9.835 3.934)">
          <g id="Grupo_10320" data-name="Grupo 10320">
            <path id="Trazado_9459" data-name="Trazado 9459" d="M3000.852,683.672a4.837,4.837,0,0,0,.458-2.053,4.917,4.917,0,1,0-9.835,0,4.851,4.851,0,0,0,.458,2.053,6.436,6.436,0,0,0-5.375,6.341v9.31a.983.983,0,0,0,.983.983h2.951v12.786a.983.983,0,0,0,.983.983h9.835a.983.983,0,0,0,.984-.983V700.306h2.95a.983.983,0,0,0,.984-.983v-9.31A6.437,6.437,0,0,0,3000.852,683.672Zm3.409,14.667h-1.967V688.5h-1.967v23.6h-2.95V698.339h-1.967v13.769h-2.951V688.5h-1.967v9.835h-1.967v-8.326a4.465,4.465,0,0,1,4.46-4.46h.831a.983.983,0,0,0,.647-1.723,2.907,2.907,0,0,1-1.021-2.21,2.951,2.951,0,1,1,5.9,0,2.909,2.909,0,0,1-1.02,2.21.983.983,0,0,0,.647,1.723h.831a4.465,4.465,0,0,1,4.459,4.46Z" transform="translate(-2986.558 -676.702)"/>
          </g>
        </g>
        <g id="Grupo_10323" data-name="Grupo 10323">
          <g id="Grupo_10322" data-name="Grupo 10322">
            <path id="Trazado_9460" data-name="Trazado 9460" d="M3001.521,679.071A19.671,19.671,0,1,0,2975.4,705.2l.829-1.784a17.7,17.7,0,1,1,14.907,0l.829,1.784A19.673,19.673,0,0,0,3001.521,679.071Z" transform="translate(-2964.01 -667.683)"/>
          </g>
        </g>
      </g>
    </g>
  </g>
</svg>
