<svg xmlns="http://www.w3.org/2000/svg" width="15" height="13.959" viewBox="0 0 15 13.959">
  <g id="Grupo_12256" data-name="Grupo 12256" transform="translate(-174.229 -652.104)">
    <path id="Trazado_13710" data-name="Trazado 13710" d="M182.332,657.961l-5.391-5.391a1.588,1.588,0,1,0-2.246,2.246l4.268,4.268-4.268,4.268a1.588,1.588,0,1,0,2.246,2.246l5.391-5.391A1.588,1.588,0,0,0,182.332,657.961Z" transform="translate(0 0)" fill="#ff8f00"/>
    <path id="Trazado_13711" data-name="Trazado 13711" d="M214.07,657.961l-5.391-5.391a1.588,1.588,0,1,0-2.246,2.246l4.268,4.268-4.268,4.268a1.588,1.588,0,1,0,2.246,2.246l5.391-5.391A1.589,1.589,0,0,0,214.07,657.961Z" transform="translate(-25.305)" fill="#ff8f00"/>
  </g>
</svg>
