<svg xmlns="http://www.w3.org/2000/svg" width="121" height="121" viewBox="0 0 121 121">
  <g id="Grupo_12514" data-name="Grupo 12514" transform="translate(-325 -12412)">
    <circle id="Elipse_804" data-name="Elipse 804" cx="60.5" cy="60.5" r="60.5" transform="translate(325 12412)" fill="#ff8f00"/>
    <path id="Trazado_14009" data-name="Trazado 14009" d="M53.993,0A53.993,53.993,0,1,1,0,53.993,53.993,53.993,0,0,1,53.993,0Z" transform="translate(332 12419)" fill="#fff"/>
    <path id="Trazado_14471" data-name="Trazado 14471" d="M19.451,39.391q-5.273,0-7.7-2.578T9.334,28.922l5.762-.254a20.4,20.4,0,0,0,.088,2.07,7.156,7.156,0,0,0,.352,1.6,2.866,2.866,0,0,0,.742,1.2,3.372,3.372,0,0,0,1.27.693,6.274,6.274,0,0,0,1.9.254,4.576,4.576,0,0,0,3.33-1.133,3.96,3.96,0,0,0,1.162-2.969A3.992,3.992,0,0,0,22.83,27.33a4.19,4.19,0,0,0-2.988-1.045H18.748V21.91h1.016a3.054,3.054,0,0,0,2.334-1,3.552,3.552,0,0,0,.928-2.52,2.839,2.839,0,0,0-1.016-2.344,4.129,4.129,0,0,0-2.676-.82,4.01,4.01,0,0,0-1.523.264,2.841,2.841,0,0,0-1.025.674A2.98,2.98,0,0,0,16.18,17.2a5.44,5.44,0,0,0-.293,1.23,12.287,12.287,0,0,0-.068,1.367l-5.684-.273q0-4.434,2.422-6.787a9.235,9.235,0,0,1,6.719-2.354,9.6,9.6,0,0,1,6.445,2.158,6.759,6.759,0,0,1,2.539,5.361,6.1,6.1,0,0,1-1.084,3.633,6.206,6.206,0,0,1-2.471,2.148,6.955,6.955,0,0,1,1.8.8,7.366,7.366,0,0,1,1.572,1.348,6.014,6.014,0,0,1,1.162,2.051,8.252,8.252,0,0,1,.43,2.734A7.976,7.976,0,0,1,26.873,37,11.017,11.017,0,0,1,19.451,39.391Z" transform="translate(365 12447)" fill="#00223d"/>
  </g>
</svg>
