<svg xmlns="http://www.w3.org/2000/svg" width="423.976" height="399.402" viewBox="0 0 423.976 399.402">
  <g id="Grupo_12499" data-name="Grupo 12499" transform="translate(-47.018 -55.214)">
    <g id="Grupo_12390" data-name="Grupo 12390" transform="translate(47.018 78.045)">
      <path id="Trazado_14320" data-name="Trazado 14320" d="M122.421,211.17c-5.273,6.084-12.151,11.08-19.2,15.057C90.6,233.351,76.69,238.354,65.195,247.181S44.7,270.231,47.548,284.354c2.853,14.167,16.293,23.477,29.35,29.712,10.209,4.874,21.242,9.109,29.861,16.128Z" transform="translate(-47.018 -53.35)" fill="#71a8ff"/>
      <g id="Grupo_12389" data-name="Grupo 12389" transform="translate(101.163 24.436)">
        <path id="Trazado_14321" data-name="Trazado 14321" d="M322.4,268.544l39.009-114.77.839,1.223c-5.554-12.354-11.429-24.543-19.874-35.072-11.793-14.7-30.035-25.924-48.875-23.6-20.971,2.587-36.611,20.544-56.373,28.062-16.881,6.421-35.56,4.822-53.506,6.717s-37.6,9.173-44.767,25.672c-6.636,15.267-.429,33.513-4.5,49.338Z" transform="translate(-134.352 -96.02)" fill="#71a8ff"/>
      </g>
      <path id="Trazado_14322" data-name="Trazado 14322" d="M440.233,170.375a93.009,93.009,0,0,1-9.18,12.788c-7.017,8.309-10,17.147-10,28.3,0,24.855,33.252,44.374,17.03,90.322-5.1,14.434-16.326,22.2-22.826,36.054-7.864,16.767-6.08,38.293-18.327,52.084-12.945,14.577-40.805,5.36-59.088,11.053-24.713,7.7-46.291,32.986-71.906,32.285-19.295-.527-45.591-30.644-64.516-26.146-14.253,3.387-24.867,19.208-39.4,18.832-13.736-.354-22.23-14.752-33.993-21.755-11.49-6.841-25.706-6.332-39.085-7.245s-28.093-4.412-35.2-15.921c-7.086-11.475-3.92-27.2,3.181-39.041S74.461,320.837,83.1,310.1s15.742-24.15,13.986-37.727c-2.417-18.685-20.623-31.631-23.318-50.27-2.6-17.989,10.123-35,24.229-46.5s30.656-20.422,41.5-35.18c12.693-17.279,16.454-41.173,32.742-54.923,14.633-12.351,35.851-12.848,53.465-6.831s32.708,17.548,48.3,27.756,32.72,19.454,51.406,19.968c20.093.55,39.186-9,58.622-14.85,13.174-3.969,27.954-5.589,41.229-2.2,6.908,1.762,13.875,5.239,18.278,11.094,4.025,5.354,5.623,12.372,5.546,19.13A60.861,60.861,0,0,1,440.233,170.375Z" transform="translate(-46.586 -74.924)" fill="#ccedf6"/>
    </g>
    <g id="Grupo_12394" data-name="Grupo 12394" transform="translate(352.182 154.848)">
      <g id="Grupo_12391" data-name="Grupo 12391" transform="translate(0 35.766)">
        <path id="Trazado_14323" data-name="Trazado 14323" d="M362.807,225.143a44.569,44.569,0,0,1-4.787.263,299.558,299.558,0,0,1-47.554-3.518l.614-4.2a295.367,295.367,0,0,0,46.882,3.473c3.125-.043,6.138-.184,8.572-1.424,1.989-1.012,3.863-3.3,3.419-5.547s-3.075-3.781-5.487-4.3a31.057,31.057,0,0,0-4.841-.5,38.764,38.764,0,0,1-4.884-.463c-4.7-.843-8.143-3.459-9.209-7-1.329-4.4,1.457-8.9,4.9-11.069,3.329-2.1,7.213-2.863,10.968-3.6a37.469,37.469,0,0,0,7.782-2.1c5.786-2.534,11.776-6.6,15.35-13.06l3.718,2.057c-3.981,7.194-10.8,12.019-17.364,14.9a41.251,41.251,0,0,1-8.667,2.373c-3.529.694-6.863,1.349-9.523,3.027-2.028,1.278-3.8,3.9-3.094,6.248.7,2.327,3.5,3.614,5.891,4.043a35.049,35.049,0,0,0,4.354.4,34.651,34.651,0,0,1,5.506.586c3.5.746,7.9,3.191,8.771,7.627.857,4.338-2.2,8.393-5.66,10.156A16.765,16.765,0,0,1,362.807,225.143Z" transform="translate(-310.466 -172.105)" fill="#28ceea"/>
      </g>
      <g id="Grupo_12393" data-name="Grupo 12393" transform="translate(66.504)">
        <path id="Trazado_14324" data-name="Trazado 14324" d="M383.245,167.716l-3.812-1.76a1.365,1.365,0,0,0-.837-.1,1.434,1.434,0,0,0-.206.057,1.378,1.378,0,0,0-.768.709,31.821,31.821,0,0,1-6.216,9.172,2.5,2.5,0,0,0,.1,3.665l1.468,1.27a2.493,2.493,0,0,0,3.4-.127,39.019,39.019,0,0,0,7.536-11.075,1.364,1.364,0,0,0-.666-1.811Z" transform="translate(-367.439 -137.332)" fill="#aa72ec"/>
        <g id="Grupo_12392" data-name="Grupo 12392">
          <circle id="Elipse_821" data-name="Elipse 821" cx="18.639" cy="18.639" r="18.639" transform="translate(0 5.7) rotate(-8.795)" fill="#3171bc"/>
          <circle id="Elipse_822" data-name="Elipse 822" cx="11.546" cy="11.546" r="11.546" transform="translate(5.579 25.787) rotate(-61.056)" fill="#28ceea"/>
          <path id="Trazado_14325" data-name="Trazado 14325" d="M390.489,159.373a3.8,3.8,0,1,1-4.465-2.991A3.8,3.8,0,0,1,390.489,159.373Z" transform="translate(-365.491 -138.84)" fill="#fff"/>
        </g>
      </g>
    </g>
    <g id="Grupo_12399" data-name="Grupo 12399" transform="translate(222.475 55.214)">
      <rect id="Rectángulo_3106" data-name="Rectángulo 3106" width="4.232" height="27.96" transform="translate(22.889 88.787)" fill="#28ceea"/>
      <g id="Grupo_12398" data-name="Grupo 12398">
        <g id="Grupo_12396" data-name="Grupo 12396" transform="translate(1.641 1.286)">
          <g id="Grupo_12395" data-name="Grupo 12395">
            <path id="Trazado_14326" data-name="Trazado 14326" d="M236.844,66.314a2.052,2.052,0,1,1,4.1,0v34.947a2.238,2.238,0,0,0-4.1,0Z" transform="translate(-194.058 -55.067)" fill="#28ceea"/>
            <path id="Trazado_14327" data-name="Trazado 14327" d="M239.725,71.254a2.053,2.053,0,0,1-2.051-2.053v-4.76a4.018,4.018,0,0,0-4.014-4.013,2.053,2.053,0,0,1,0-4.105,8.127,8.127,0,0,1,8.118,8.118V69.2A2.054,2.054,0,0,1,239.725,71.254Z" transform="translate(-194.887 -56.324)" fill="#28ceea"/>
            <path id="Trazado_14328" data-name="Trazado 14328" d="M199.907,66.314a2.052,2.052,0,1,1,4.1,0v34.949a2.238,2.238,0,0,0-4.1,0Z" transform="translate(-199.907 -55.067)" fill="#28ceea"/>
            <path id="Trazado_14329" data-name="Trazado 14329" d="M201.958,71.254a2.053,2.053,0,0,1-2.051-2.053v-4.76a8.127,8.127,0,0,1,8.118-8.118,2.053,2.053,0,0,1,0,4.105,4.018,4.018,0,0,0-4.014,4.013V69.2A2.054,2.054,0,0,1,201.958,71.254Z" transform="translate(-199.907 -56.324)" fill="#28ceea"/>
          </g>
        </g>
        <g id="Grupo_12397" data-name="Grupo 12397" transform="translate(8.831)">
          <path id="Trazado_14330" data-name="Trazado 14330" d="M213.282,61.186H209.1a2.987,2.987,0,0,1-2.987-2.986h0a2.987,2.987,0,0,1,2.987-2.986h4.18a2.987,2.987,0,0,1,2.987,2.986h0A2.987,2.987,0,0,1,213.282,61.186Z" transform="translate(-206.114 -55.214)" fill="#aa72ec"/>
          <path id="Trazado_14331" data-name="Trazado 14331" d="M232.2,61.186h-4.18a2.987,2.987,0,0,1-2.987-2.986h0a2.987,2.987,0,0,1,2.987-2.986h4.18a2.987,2.987,0,0,1,2.987,2.986h0A2.987,2.987,0,0,1,232.2,61.186Z" transform="translate(-203.118 -55.214)" fill="#aa72ec"/>
        </g>
        <path id="Trazado_14332" data-name="Trazado 14332" d="M244.848,93.044c-2.027,0-3.672-.192-3.672,1.836v6.9a17.671,17.671,0,1,1-35.342,0v-6.9c0-2.028-1.645-1.836-3.672-1.836s-3.672-.192-3.672,1.836v6.9a25.051,25.051,0,0,0,15.449,23.11,19.186,19.186,0,0,1,5.138,12.236V139.6a1.178,1.178,0,0,0,1.178,1.178h6.479a1.178,1.178,0,0,0,1.178-1.178v-2.277h.012c0-5.649,3.015-10.031,5.148-12.43a25.052,25.052,0,0,0,15.45-23.11v-6.9C248.521,92.851,246.876,93.044,244.848,93.044Z" transform="translate(-198.49 -49.225)" fill="#aa72ec"/>
      </g>
    </g>
    <circle id="Elipse_823" data-name="Elipse 823" cx="8.063" cy="8.063" r="8.063" transform="translate(441.561 216.303)" fill="#ccedf6"/>
    <circle id="Elipse_824" data-name="Elipse 824" cx="10.505" cy="10.505" r="10.505" transform="translate(351.583 100.882) rotate(-80.809)" fill="#ccedf6"/>
    <path id="Trazado_14333" data-name="Trazado 14333" d="M114.027,121.92a14.654,14.654,0,1,1-14.653-14.654A14.654,14.654,0,0,1,114.027,121.92Z" transform="translate(5.97 8.242)" fill="#ccedf6"/>
    <circle id="Elipse_825" data-name="Elipse 825" cx="9.37" cy="9.37" r="9.37" transform="translate(193.585 441.365) rotate(-45)" fill="#ccedf6"/>
    <g id="Grupo_12420" data-name="Grupo 12420" transform="translate(88.603 155.637)">
      <circle id="Elipse_826" data-name="Elipse 826" cx="51.476" cy="51.476" r="51.476" transform="translate(0 95.457) rotate(-68)" fill="#fff"/>
      <g id="Grupo_12419" data-name="Grupo 12419" transform="translate(28.415 26.013)">
        <g id="Grupo_12403" data-name="Grupo 12403" transform="translate(0 51.869)">
          <g id="Grupo_12402" data-name="Grupo 12402">
            <g id="Grupo_12400" data-name="Grupo 12400" transform="translate(22.173)">
              <path id="Trazado_14334" data-name="Trazado 14334" d="M147.6,209.159h-4.83v-.015h-4.881c0,8.85-11.122,14.588-11.122,14.588l-.175,5.239,16.128,8.091v.232l16.179-8.118-.161-5.47S147.6,218.009,147.6,209.159Z" transform="translate(-126.591 -209.144)" fill="#fcc"/>
              <path id="Trazado_14335" data-name="Trazado 14335" d="M138.595,211.828l5.58-.69v.017l3.543-.438a10.461,10.461,0,0,1-.119-1.558h-4.83v-.015h-4.881c0,8.85-11.122,14.588-11.122,14.588l-.175,5.239,1.033.518C130.009,227.813,139.344,220.657,138.595,211.828Z" transform="translate(-126.591 -209.144)" fill="#f7b2b2"/>
            </g>
            <path id="Trazado_14336" data-name="Trazado 14336" d="M163.379,223.359c-1.706-.773-3.19-1.325-4.1-1.643-3.626,6.318-9.438,10.418-16,10.418s-12.346-4.094-15.972-10.393c-.937.328-2.423.885-4.118,1.656,4.289,8.45,11.678,14.043,20.09,14.043S159.092,231.827,163.379,223.359Z" transform="translate(-104.957 -207.153)" fill="#e2496d"/>
            <g id="Grupo_12401" data-name="Grupo 12401" transform="translate(0 14.591)">
              <path id="Trazado_14337" data-name="Trazado 14337" d="M155.883,222.288c.324.127.67.268,1.031.419Q156.372,222.48,155.883,222.288Z" transform="translate(-99.78 -221.653)" fill="#c6c6c6"/>
              <path id="Trazado_14338" data-name="Trazado 14338" d="M155.047,221.969c.25.093.529.2.82.313C155.574,222.168,155.3,222.063,155.047,221.969Z" transform="translate(-99.912 -221.704)" fill="#c6c6c6"/>
              <path id="Trazado_14339" data-name="Trazado 14339" d="M156.83,222.673c.378.159.773.332,1.182.515Q157.4,222.912,156.83,222.673Z" transform="translate(-99.63 -221.592)" fill="#c6c6c6"/>
              <path id="Trazado_14340" data-name="Trazado 14340" d="M124.312,222.734c.354-.149.7-.288,1.015-.416C125.007,222.445,124.666,222.584,124.312,222.734Z" transform="translate(-104.779 -221.648)" fill="#c6c6c6"/>
              <path id="Trazado_14341" data-name="Trazado 14341" d="M123.277,223.2c.382-.174.758-.338,1.114-.489C124.033,222.858,123.66,223.022,123.277,223.2Z" transform="translate(-104.943 -221.587)" fill="#c6c6c6"/>
              <path id="Trazado_14342" data-name="Trazado 14342" d="M145.769,237.216c-8.412,0-15.8-5.593-20.09-14.042-3.37,1.535-14.8,3.9-18.23,6.927a51.447,51.447,0,0,0,76.991.235c-3.1-3.166-15.1-5.63-18.568-7.2C161.583,231.6,154.193,237.216,145.769,237.216Z" transform="translate(-107.449 -221.519)" fill="#f4617e"/>
              <path id="Trazado_14343" data-name="Trazado 14343" d="M126.159,221.982c.242-.089.475-.174.671-.242C126.632,221.809,126.4,221.892,126.159,221.982Z" transform="translate(-104.486 -221.74)" fill="#c6c6c6"/>
              <path id="Trazado_14344" data-name="Trazado 14344" d="M125.359,222.293c.275-.107.54-.21.778-.3C125.9,222.084,125.635,222.186,125.359,222.293Z" transform="translate(-104.613 -221.7)" fill="#c6c6c6"/>
            </g>
            <path id="Trazado_14345" data-name="Trazado 14345" d="M125.679,223.169c-3.37,1.535-14.8,3.9-18.23,6.927a51.57,51.57,0,0,0,19.135,13.615c2.589-8.408,5.237-12.08,5.237-12.08l.045-.173A29.217,29.217,0,0,1,125.679,223.169Z" transform="translate(-107.449 -206.923)" fill="#e2496d"/>
          </g>
        </g>
        <path id="Trazado_14346" data-name="Trazado 14346" d="M136.758,209.144a12.884,12.884,0,0,1-3.029,7.9,17.919,17.919,0,0,0,8.184,4.365,17.694,17.694,0,0,0,7.836-4.059,13.019,13.019,0,0,1-3.279-8.194h-4.83v-.015Z" transform="translate(-103.288 -157.275)" opacity="0.09"/>
        <g id="Grupo_12418" data-name="Grupo 12418" transform="translate(16.188)">
          <g id="Grupo_12417" data-name="Grupo 12417" transform="translate(2.059 7.982)">
            <g id="Grupo_12416" data-name="Grupo 12416">
              <g id="Grupo_12409" data-name="Grupo 12409" transform="translate(0 23.542)">
                <g id="Grupo_12408" data-name="Grupo 12408">
                  <g id="Grupo_12407" data-name="Grupo 12407">
                    <g id="Grupo_12406" data-name="Grupo 12406">
                      <g id="Grupo_12405" data-name="Grupo 12405">
                        <g id="Grupo_12404" data-name="Grupo 12404">
                          <path id="Trazado_14347" data-name="Trazado 14347" d="M128.27,196.659c.649,3.073.107,5.8-1.22,6.091s-2.923-1.98-3.574-5.054-.109-5.8,1.219-6.091S127.614,193.585,128.27,196.659Z" transform="translate(-123.201 -191.581)" fill="#fcc"/>
                        </g>
                      </g>
                    </g>
                  </g>
                </g>
              </g>
              <g id="Grupo_12415" data-name="Grupo 12415" transform="translate(35.403 23.542)">
                <g id="Grupo_12414" data-name="Grupo 12414">
                  <g id="Grupo_12413" data-name="Grupo 12413">
                    <g id="Grupo_12412" data-name="Grupo 12412">
                      <g id="Grupo_12411" data-name="Grupo 12411">
                        <g id="Grupo_12410" data-name="Grupo 12410">
                          <path id="Trazado_14348" data-name="Trazado 14348" d="M154.037,196.659c-.649,3.073-.1,5.8,1.221,6.091s2.921-1.98,3.574-5.054.108-5.8-1.215-6.091S154.694,193.585,154.037,196.659Z" transform="translate(-153.764 -191.581)" fill="#fcc"/>
                        </g>
                      </g>
                    </g>
                  </g>
                </g>
              </g>
              <path id="Trazado_14349" data-name="Trazado 14349" d="M143.357,171.257c-21.8,0-18.578,21.153-18.578,21.153,1.319,28.691,18.578,31.351,18.578,31.351s17.266-2.66,18.585-31.351C161.941,192.41,165.157,171.257,143.357,171.257Z" transform="translate(-122.978 -171.257)" fill="#fcc"/>
            </g>
          </g>
          <path id="Trazado_14350" data-name="Trazado 14350" d="M137.687,171.834c-12.365,2.841-13.012,14.587-12.818,18.893h0c.014.329.035.614.053.848,0,.025,0,.043.007.067.017.2.035.37.048.481s.025.195.025.195c.038.842.115,1.624.181,2.422a1.156,1.156,0,0,0-.488-.009c-1.327.292-1.87,3.014-1.219,6.092s2.252,5.334,3.575,5.054a1.178,1.178,0,0,0,.139-.067h0c.329,1.065.69,2.056,1.07,3,.035.086.067.176.1.261.366.892.758,1.725,1.161,2.512.053.1.107.211.162.313q.6,1.143,1.248,2.145c.058.092.118.181.176.271.437.664.884,1.288,1.336,1.863.043.054.086.105.13.159a23.162,23.162,0,0,0,4.419,4.257l.073.053c.466.336.922.636,1.362.9l.037.022C131.689,199.128,133.719,182.765,137.687,171.834Z" transform="translate(-121.142 -163.183)" opacity="0.09"/>
          <path id="Trazado_14351" data-name="Trazado 14351" d="M130.789,177.492s9.881,4.882,16.972,3.255a14.9,14.9,0,0,0,10.345,5,6.931,6.931,0,0,1,.778,7.673l3.853,2.5a14.012,14.012,0,0,0,1.881-14.121s2.439-8.835-3.838-11.857c0,0-12.341-9.948-20.644-3.256,0,0-7.372-2.673-10.046,1.163,0,0-12.016,6.974-7.752,18.717,0,0,.825,6.509,2.777,8.835A28.145,28.145,0,0,0,130.789,177.492Z" transform="translate(-121.424 -164.366)" fill="#3a3a3a"/>
        </g>
      </g>
    </g>
    <g id="Grupo_12442" data-name="Grupo 12442" transform="translate(214.216 148.313)">
      <rect id="Rectángulo_3107" data-name="Rectángulo 3107" width="18.88" height="18.88" transform="translate(13.35 60.645) rotate(45)" fill="#66a4ff"/>
      <g id="Grupo_12427" data-name="Grupo 12427" transform="translate(13.35)">
        <g id="Grupo_12421" data-name="Grupo 12421" transform="translate(0 22.849)">
          <path id="Rectángulo_3108" data-name="Rectángulo 3108" d="M3.4,0H148.7a3.394,3.394,0,0,1,3.394,3.394V195.069a3.4,3.4,0,0,1-3.4,3.4H3.394A3.394,3.394,0,0,1,0,195.07V3.4A3.4,3.4,0,0,1,3.4,0Z" fill="#66a4ff"/>
        </g>
        <g id="Grupo_12422" data-name="Grupo 12422" transform="translate(8.476 31.522)">
          <rect id="Rectángulo_3109" data-name="Rectángulo 3109" width="135.14" height="181.117" fill="#fff"/>
        </g>
        <g id="Grupo_12426" data-name="Grupo 12426" transform="translate(34.562)">
          <g id="Grupo_12425" data-name="Grupo 12425">
            <g id="Grupo_12424" data-name="Grupo 12424">
              <g id="Grupo_12423" data-name="Grupo 12423">
                <path id="Trazado_14352" data-name="Trazado 14352" d="M289.25,146.825a4.426,4.426,0,0,1-4.234-3.183,11.281,11.281,0,0,0-21.619,0,4.423,4.423,0,0,1-4.235,3.182l-22.017,0a4.421,4.421,0,0,0-4.421,4.42v19.789c0,2.441,1.978,2.77,4.419,2.77l74.124.014c2.442,0,4.421-.328,4.421-2.768l0-19.788a4.42,4.42,0,0,0-4.419-4.421Z" transform="translate(-232.723 -135.586)" fill="#f4617e"/>
              </g>
            </g>
          </g>
          <path id="Trazado_14353" data-name="Trazado 14353" d="M232.725,166.733c.009,2.423,1.982,2.752,4.418,2.752l74.123.014c2.438,0,4.416-.328,4.42-2.761V162.8H232.725Z" transform="translate(-232.723 -131.277)" fill="#d8446e"/>
        </g>
      </g>
      <circle id="Elipse_827" data-name="Elipse 827" cx="4.894" cy="4.894" r="4.894" transform="translate(84.503 6.713)" fill="#ccedf6"/>
      <g id="Grupo_12441" data-name="Grupo 12441" transform="translate(34.494 50.433)">
        <g id="Grupo_12429" data-name="Grupo 12429">
          <g id="Grupo_12428" data-name="Grupo 12428">
            <circle id="Elipse_828" data-name="Elipse 828" cx="20.524" cy="20.524" r="20.524" transform="translate(0 40.512) rotate(-80.731)" fill="#f4617e"/>
          </g>
          <path id="Trazado_14354" data-name="Trazado 14354" d="M253.221,198.232h-7.54v-7.541a.593.593,0,0,0-.593-.593h-4.249a.593.593,0,0,0-.593.593v7.541h-7.541a.593.593,0,0,0-.593.593v4.249a.593.593,0,0,0,.593.593h7.541v7.54a.593.593,0,0,0,.593.593h4.249a.593.593,0,0,0,.593-.593v-7.54h7.54a.593.593,0,0,0,.593-.593v-4.249A.593.593,0,0,0,253.221,198.232Z" transform="translate(-219.401 -177.387)" fill="#fff"/>
        </g>
        <g id="Grupo_12434" data-name="Grupo 12434" transform="translate(56.472 4.13)">
          <g id="Grupo_12430" data-name="Grupo 12430" transform="translate(0)">
            <path id="Rectángulo_3110" data-name="Rectángulo 3110" d="M1.982,0H38.8a1.983,1.983,0,0,1,1.983,1.983v.629A1.982,1.982,0,0,1,38.8,4.594H1.982A1.982,1.982,0,0,1,0,2.612V1.982A1.982,1.982,0,0,1,1.982,0Z" fill="#28ceea"/>
          </g>
          <g id="Grupo_12431" data-name="Grupo 12431" transform="translate(0 11.633)">
            <path id="Trazado_14355" data-name="Trazado 14355" d="M317.168,197.326h-44.98a2.3,2.3,0,0,1-2.3-2.3h0a2.3,2.3,0,0,1,2.3-2.3h44.98a2.3,2.3,0,0,1,2.3,2.3h0A2.3,2.3,0,0,1,317.168,197.326Z" transform="translate(-269.891 -192.733)" fill="#e5e5e5"/>
          </g>
          <g id="Grupo_12432" data-name="Grupo 12432" transform="translate(0 22.951)">
            <path id="Trazado_14356" data-name="Trazado 14356" d="M308.376,207.1H272.188a2.3,2.3,0,0,1-2.3-2.3h0a2.3,2.3,0,0,1,2.3-2.3h36.188a2.3,2.3,0,0,1,2.3,2.3h0A2.3,2.3,0,0,1,308.376,207.1Z" transform="translate(-269.891 -202.504)" fill="#e5e5e5"/>
          </g>
          <g id="Grupo_12433" data-name="Grupo 12433" transform="translate(0 34.269)">
            <rect id="Rectángulo_3111" data-name="Rectángulo 3111" width="49.573" height="4.594" rx="1.982" fill="#e5e5e5"/>
          </g>
        </g>
        <g id="Grupo_12437" data-name="Grupo 12437" transform="translate(3.037 52.902)">
          <g id="Grupo_12435" data-name="Grupo 12435">
            <path id="Trazado_14357" data-name="Trazado 14357" d="M324.472,229.388H226.058a2.3,2.3,0,0,1-2.3-2.3h0a2.3,2.3,0,0,1,2.3-2.3h98.414a2.3,2.3,0,0,1,2.3,2.3h0A2.3,2.3,0,0,1,324.472,229.388Z" transform="translate(-223.761 -224.795)" fill="#e5e5e5"/>
          </g>
          <g id="Grupo_12436" data-name="Grupo 12436" transform="translate(0 11.319)">
            <path id="Rectángulo_3112" data-name="Rectángulo 3112" d="M1.982,0h99.042a1.982,1.982,0,0,1,1.982,1.982V2.61a1.983,1.983,0,0,1-1.983,1.983H1.983A1.983,1.983,0,0,1,0,2.61V1.982A1.982,1.982,0,0,1,1.982,0Z" fill="#e5e5e5"/>
          </g>
        </g>
        <g id="Grupo_12440" data-name="Grupo 12440" transform="translate(3.037 130.419)">
          <g id="Grupo_12438" data-name="Grupo 12438">
            <path id="Trazado_14358" data-name="Trazado 14358" d="M317.217,296.308H226.058a2.3,2.3,0,0,1-2.3-2.3h0a2.3,2.3,0,0,1,2.3-2.3h91.159a2.3,2.3,0,0,1,2.3,2.3h0A2.3,2.3,0,0,1,317.217,296.308Z" transform="translate(-223.761 -291.715)" fill="#e5e5e5"/>
          </g>
          <g id="Grupo_12439" data-name="Grupo 12439" transform="translate(0 11.318)">
            <path id="Rectángulo_3113" data-name="Rectángulo 3113" d="M1.982,0h99.764a1.982,1.982,0,0,1,1.982,1.982V2.61a1.983,1.983,0,0,1-1.983,1.983H1.983A1.983,1.983,0,0,1,0,2.61V1.982A1.982,1.982,0,0,1,1.982,0Z" fill="#e5e5e5"/>
          </g>
        </g>
      </g>
      <path id="Trazado_14359" data-name="Trazado 14359" d="M325.419,244.337H225.112a1.351,1.351,0,0,0-1.351,1.351v13.17h0v4.757h0v9.763h0v4.757h0v13.169a1.35,1.35,0,0,0,1.351,1.349H325.419a1.349,1.349,0,0,0,1.349-1.349V245.688A1.35,1.35,0,0,0,325.419,244.337Zm-52.172,42.21A1.351,1.351,0,0,1,271.9,287.9H229.87a1.351,1.351,0,0,1-1.351-1.351v-7.061a1.35,1.35,0,0,1,1.351-1.349H271.9a1.35,1.35,0,0,1,1.351,1.349Zm0-14.52a1.351,1.351,0,0,1-1.351,1.351H229.87a1.351,1.351,0,0,1-1.351-1.351v-7.061a1.351,1.351,0,0,1,1.351-1.351H271.9a1.351,1.351,0,0,1,1.351,1.351Zm0-14.52a1.351,1.351,0,0,1-1.351,1.351H229.87a1.351,1.351,0,0,1-1.351-1.351v-7.061a1.351,1.351,0,0,1,1.351-1.351H271.9a1.351,1.351,0,0,1,1.351,1.351Zm48.764,29.04a1.351,1.351,0,0,1-1.351,1.351H279.355a1.35,1.35,0,0,1-1.349-1.351v-7.061a1.35,1.35,0,0,1,1.349-1.349H320.66a1.35,1.35,0,0,1,1.351,1.349Zm0-14.52a1.351,1.351,0,0,1-1.351,1.351H279.355a1.35,1.35,0,0,1-1.349-1.351v-7.061a1.35,1.35,0,0,1,1.349-1.351H320.66a1.351,1.351,0,0,1,1.351,1.351Zm0-14.52a1.351,1.351,0,0,1-1.351,1.351H279.355a1.35,1.35,0,0,1-1.349-1.351v-7.061a1.35,1.35,0,0,1,1.349-1.351H320.66a1.351,1.351,0,0,1,1.351,1.351Z" transform="translate(-186.23 -118.365)" fill="#e5e5e5"/>
    </g>
    <g id="Grupo_12475" data-name="Grupo 12475" transform="translate(263.055 289.645)">
      <g id="Grupo_12472" data-name="Grupo 12472" transform="translate(0 0)">
        <g id="Grupo_12464" data-name="Grupo 12464">
          <g id="Grupo_12463" data-name="Grupo 12463">
            <g id="Grupo_12462" data-name="Grupo 12462">
              <g id="Grupo_12461" data-name="Grupo 12461">
                <g id="Grupo_12460" data-name="Grupo 12460">
                  <g id="Grupo_12453" data-name="Grupo 12453" transform="translate(49.089 55.602)">
                    <g id="Grupo_12448" data-name="Grupo 12448">
                      <g id="Grupo_12447" data-name="Grupo 12447">
                        <g id="Grupo_12446" data-name="Grupo 12446">
                          <g id="Grupo_12445" data-name="Grupo 12445">
                            <g id="Grupo_12444" data-name="Grupo 12444">
                              <g id="Grupo_12443" data-name="Grupo 12443">
                                <path id="Trazado_14360" data-name="Trazado 14360" d="M278.4,308.46c-.976.7-1.465.139-2.5.657l5.634,7.612,5.314-3.907-5.2-7.222A22.166,22.166,0,0,1,278.4,308.46Z" transform="translate(-275.901 -305.599)" fill="#225593"/>
                              </g>
                            </g>
                          </g>
                        </g>
                      </g>
                    </g>
                    <g id="Grupo_12452" data-name="Grupo 12452" transform="translate(2.41 3.849)">
                      <g id="Grupo_12451" data-name="Grupo 12451">
                        <g id="Grupo_12450" data-name="Grupo 12450">
                          <g id="Grupo_12449" data-name="Grupo 12449">
                            <path id="Trazado_14361" data-name="Trazado 14361" d="M311.367,346.14l-6.264,4.55a2.413,2.413,0,0,1-3.36-.533l-23.3-32.346a2.412,2.412,0,0,1,.533-3.359l6.266-4.55c1.07-.777,1.867-1.515,2.645-.444L311.9,342.781A2.412,2.412,0,0,1,311.367,346.14Z" transform="translate(-277.982 -308.922)" fill="#2368ad"/>
                          </g>
                        </g>
                      </g>
                    </g>
                    <path id="Trazado_14362" data-name="Trazado 14362" d="M311.307,342.781l-24.018-33.322c-.777-1.071-1.574-.334-2.645.444l-2.923,2.122L307.6,348.448l3.179-2.309a2.376,2.376,0,0,0,.644-.7,2.425,2.425,0,0,0,.315-.868,2.453,2.453,0,0,0,.029-.461A2.382,2.382,0,0,0,311.307,342.781Z" transform="translate(-274.979 -305.073)" fill="#3387cc"/>
                  </g>
                  <g id="Grupo_12456" data-name="Grupo 12456">
                    <g id="Grupo_12455" data-name="Grupo 12455">
                      <g id="Grupo_12454" data-name="Grupo 12454">
                        <path id="Trazado_14363" data-name="Trazado 14363" d="M247.046,263.7a32.466,32.466,0,1,1-7.419,45.312A32.468,32.468,0,0,1,247.046,263.7Z" transform="translate(-233.522 -257.598)" fill="#f4617e"/>
                      </g>
                    </g>
                  </g>
                  <g id="Grupo_12459" data-name="Grupo 12459">
                    <g id="Grupo_12458" data-name="Grupo 12458">
                      <g id="Grupo_12457" data-name="Grupo 12457">
                        <path id="Trazado_14364" data-name="Trazado 14364" d="M247.046,263.7a32.466,32.466,0,1,1-7.419,45.312A32.468,32.468,0,0,1,247.046,263.7Z" transform="translate(-233.522 -257.598)" fill="#f4617e"/>
                      </g>
                    </g>
                  </g>
                </g>
              </g>
            </g>
          </g>
        </g>
        <g id="Grupo_12471" data-name="Grupo 12471" transform="translate(7.285 7.287)">
          <g id="Grupo_12470" data-name="Grupo 12470">
            <g id="Grupo_12469" data-name="Grupo 12469">
              <g id="Grupo_12468" data-name="Grupo 12468">
                <g id="Grupo_12467" data-name="Grupo 12467">
                  <g id="Grupo_12466" data-name="Grupo 12466">
                    <g id="Grupo_12465" data-name="Grupo 12465">
                      <path id="Trazado_14365" data-name="Trazado 14365" d="M289.955,285.76a25.179,25.179,0,1,1-28.272-21.65A25.178,25.178,0,0,1,289.955,285.76Z" transform="translate(-239.812 -263.889)" fill="#fff"/>
                    </g>
                  </g>
                </g>
              </g>
            </g>
          </g>
        </g>
      </g>
      <g id="Grupo_12474" data-name="Grupo 12474" transform="translate(12.957 18.042)">
        <g id="Grupo_12473" data-name="Grupo 12473">
          <path id="Trazado_14366" data-name="Trazado 14366" d="M264.219,302.027a1.717,1.717,0,0,1-1.6-1.107l-4.5-12.006a.833.833,0,0,0-.781-.541.682.682,0,0,0-.068,0,.834.834,0,0,0-.751.668l-.8,3.981a1.712,1.712,0,0,1-1.675,1.373h-7.63a1.709,1.709,0,0,1,0-3.417h5.547a.834.834,0,0,0,.818-.671l2.134-10.673a1.718,1.718,0,0,1,1.536-1.368c.031,0,.073,0,.115,0a1.717,1.717,0,0,1,1.625,1.107l4.5,12.005a.835.835,0,0,0,.781.542c.022,0,.045,0,.068,0a.834.834,0,0,0,.751-.667l3.341-16.7a1.707,1.707,0,0,1,1.607-1.371c.057,0,.095,0,.133,0a1.616,1.616,0,0,1,1.579,1.243l4.558,15.957a.834.834,0,0,0,.8.606h5.712a1.709,1.709,0,0,1,0,3.417h-7.63a1.718,1.718,0,0,1-1.644-1.241l-2.2-7.713a.834.834,0,0,0-.8-.606h-.035a.833.833,0,0,0-.784.671l-3.03,15.145a1.718,1.718,0,0,1-1.536,1.368C264.316,302.026,264.267,302.027,264.219,302.027Z" transform="translate(-244.708 -273.174)" fill="#28ceea"/>
        </g>
      </g>
    </g>
    <g id="Grupo_12482" data-name="Grupo 12482" transform="translate(174.985 281.492)">
      <g id="Grupo_12480" data-name="Grupo 12480" transform="translate(0)">
        <g id="Grupo_12478" data-name="Grupo 12478">
          <g id="Grupo_12476" data-name="Grupo 12476" transform="translate(0 19.796)">
            <rect id="Rectángulo_3114" data-name="Rectángulo 3114" width="45.5" height="68.338" rx="8.897" fill="#aa72ec"/>
          </g>
          <rect id="Rectángulo_3115" data-name="Rectángulo 3115" width="31.876" height="29.764" rx="1.347" transform="translate(6.812 38.478)" fill="#fff"/>
          <g id="Grupo_12477" data-name="Grupo 12477" transform="translate(7.483)">
            <rect id="Rectángulo_3116" data-name="Rectángulo 3116" width="30.533" height="14.583" rx="1.199" fill="#fff"/>
            <rect id="Rectángulo_3117" data-name="Rectángulo 3117" width="30.533" height="3.173" transform="translate(0 7.292)" fill="#e5e5e5"/>
          </g>
        </g>
        <g id="Grupo_12479" data-name="Grupo 12479" transform="translate(14.034 44.643)">
          <path id="Trazado_14367" data-name="Trazado 14367" d="M186.5,295.337H180.8v-5.694a.542.542,0,0,0-.542-.542h-3.877a.541.541,0,0,0-.541.542v5.694h-5.7a.541.541,0,0,0-.541.541v3.878a.541.541,0,0,0,.541.541h5.7v5.7a.541.541,0,0,0,.541.541h3.877a.542.542,0,0,0,.542-.541v-5.7H186.5a.542.542,0,0,0,.542-.541v-3.878A.542.542,0,0,0,186.5,295.337Z" transform="translate(-169.607 -289.1)" fill="#28ceea"/>
        </g>
      </g>
      <g id="Grupo_12481" data-name="Grupo 12481" transform="translate(9.808 14.583)">
        <rect id="Rectángulo_3118" data-name="Rectángulo 3118" width="17.433" height="5.212" transform="translate(4.226)" fill="#8452cc"/>
        <path id="Trazado_14368" data-name="Trazado 14368" d="M188.883,268.227h-4.226V264A4.239,4.239,0,0,0,188.883,268.227Z" transform="translate(-162.998 -263.014)" fill="#8452cc"/>
        <path id="Trazado_14369" data-name="Trazado 14369" d="M165.959,268.227h4.226V264A4.239,4.239,0,0,1,165.959,268.227Z" transform="translate(-165.959 -263.014)" fill="#8452cc"/>
      </g>
    </g>
    <g id="Grupo_12484" data-name="Grupo 12484" transform="translate(396.063 265.859)">
      <g id="Grupo_12483" data-name="Grupo 12483" transform="translate(0 0)">
        <circle id="Elipse_829" data-name="Elipse 829" cx="30.249" cy="30.249" r="30.249" transform="translate(0 58.113) rotate(-73.859)" fill="#f4617e"/>
      </g>
      <path id="Trazado_14370" data-name="Trazado 14370" d="M389.421,257.671c-2.636,0-4.749,1.856-6.293,3.211l0,0a.538.538,0,0,1-.712,0l0,0c-1.544-1.355-3.657-3.211-6.293-3.211-5.6,0-8.525,5.246-8.525,10.427,0,10.888,14.105,19.427,14.705,19.8h0a.926.926,0,0,0,.945,0h0c.6-.374,14.706-8.912,14.706-19.8C397.946,262.917,395.018,257.671,389.421,257.671Z" transform="translate(-345.301 -233.801)" fill="#fff"/>
    </g>
    <g id="Grupo_12487" data-name="Grupo 12487" transform="translate(78.255 374.697)">
      <circle id="Elipse_830" data-name="Elipse 830" cx="29.726" cy="29.726" r="29.726" transform="translate(0 0)" fill="#28ceea"/>
      <g id="Grupo_12486" data-name="Grupo 12486" transform="translate(15.286 20.668)">
        <g id="Grupo_12485" data-name="Grupo 12485">
          <path id="Trazado_14371" data-name="Trazado 14371" d="M98.3,370.191l-10.825-10.4a.937.937,0,0,1-.029-1.325l2.918-3.046a.936.936,0,0,1,1.324-.029l6.425,6.188a.936.936,0,0,0,1.324-.029L111.4,349.154a.936.936,0,0,1,1.324-.028l3.048,2.918a.937.937,0,0,1,.029,1.325L99.619,370.163A.937.937,0,0,1,98.3,370.191Z" transform="translate(-87.181 -348.866)" fill="#fff"/>
        </g>
      </g>
    </g>
    <g id="Grupo_12489" data-name="Grupo 12489" transform="translate(357.244 352.711)">
      <g id="Grupo_12488" data-name="Grupo 12488">
        <rect id="Rectángulo_3119" data-name="Rectángulo 3119" width="40.143" height="16.914" rx="6.514" transform="translate(40.143 16.914) rotate(180)" fill="#fff"/>
        <path id="Trazado_14372" data-name="Trazado 14372" d="M322.382,312.043h12.526v16.914H322.382a7.567,7.567,0,0,1-7.546-7.545v-1.823A7.567,7.567,0,0,1,322.382,312.043Z" transform="translate(-314.836 -312.043)" fill="#f4617e"/>
      </g>
      <path id="Trazado_14373" data-name="Trazado 14373" d="M328.182,316.615h-4.958a1.238,1.238,0,0,1-1.238-1.238h0a1.239,1.239,0,0,1,1.238-1.239h4.958a1.239,1.239,0,0,1,1.238,1.239h0A1.238,1.238,0,0,1,328.182,316.615Z" transform="translate(-313.704 -311.711)" fill="#fff" opacity="0.6"/>
    </g>
    <g id="Grupo_12494" data-name="Grupo 12494" transform="translate(119.62 300.842)">
      <g id="Grupo_12492" data-name="Grupo 12492" transform="translate(10.893)">
        <path id="Trazado_14374" data-name="Trazado 14374" d="M119.476,303.627l22.3-35.235a2.429,2.429,0,0,1,3.35-.751l17.32,10.977a2.429,2.429,0,0,1,.751,3.35L140.9,317.2a2.425,2.425,0,0,1-3.349.751l-17.32-10.975A2.428,2.428,0,0,1,119.476,303.627Z" transform="translate(-119.099 -267.264)" fill="#fff"/>
        <g id="Grupo_12490" data-name="Grupo 12490" transform="translate(23.031 6.327)">
          <path id="Trazado_14375" data-name="Trazado 14375" d="M143.426,273.177a2.894,2.894,0,1,1-3.994.9A2.893,2.893,0,0,1,143.426,273.177Z" transform="translate(-138.981 -272.726)" fill="#28ceea"/>
          <path id="Trazado_14376" data-name="Trazado 14376" d="M151.6,278.353a2.895,2.895,0,1,1-4,.9A2.894,2.894,0,0,1,151.6,278.353Z" transform="translate(-137.688 -271.906)" fill="#28ceea"/>
        </g>
        <g id="Grupo_12491" data-name="Grupo 12491" transform="translate(18.49 13.491)">
          <path id="Trazado_14377" data-name="Trazado 14377" d="M139.506,279.362a2.894,2.894,0,1,1-3.994.9A2.894,2.894,0,0,1,139.506,279.362Z" transform="translate(-135.061 -278.912)" fill="#28ceea"/>
          <path id="Trazado_14378" data-name="Trazado 14378" d="M147.676,284.54a2.895,2.895,0,1,1-4,.9A2.894,2.894,0,0,1,147.676,284.54Z" transform="translate(-133.768 -278.092)" fill="#28ceea"/>
        </g>
      </g>
      <rect id="Rectángulo_3120" data-name="Rectángulo 3120" width="39.469" height="29.358" rx="0.443" transform="translate(0 50.411) rotate(-57.675)" fill="#f4617e"/>
      <g id="Grupo_12493" data-name="Grupo 12493" transform="translate(8.563 26.19)">
        <path id="Trazado_14379" data-name="Trazado 14379" d="M131.829,292.042l-12.137,19.2a1.412,1.412,0,0,1-1.948.437h0a1.41,1.41,0,0,1-.437-1.947l12.137-19.2a1.412,1.412,0,0,1,1.948-.437h0A1.412,1.412,0,0,1,131.829,292.042Z" transform="translate(-117.088 -289.875)" fill="#dd436b"/>
        <path id="Trazado_14380" data-name="Trazado 14380" d="M143.765,299.606l-12.138,19.2a1.411,1.411,0,0,1-1.948.437h0a1.412,1.412,0,0,1-.437-1.947l12.138-19.2a1.413,1.413,0,0,1,1.948-.437h0A1.413,1.413,0,0,1,143.765,299.606Z" transform="translate(-115.198 -288.677)" fill="#dd436b"/>
      </g>
    </g>
    <g id="Grupo_12498" data-name="Grupo 12498" transform="translate(114.096 356.759)">
      <g id="Grupo_12496" data-name="Grupo 12496" transform="translate(0 0)">
        <g id="Grupo_12495" data-name="Grupo 12495">
          <path id="Trazado_14381" data-name="Trazado 14381" d="M112.345,320.527H106.37a1.443,1.443,0,1,0,0,2.887h5.972c11.28.3,32.119,4.99,32.119,4.99h46.771a6.452,6.452,0,0,0,6.433-6.433h0a6.453,6.453,0,0,0-6.433-6.434H144.462S123.625,320.229,112.345,320.527Z" transform="translate(-104.926 -315.537)" fill="#28ceea"/>
        </g>
        <path id="Trazado_14382" data-name="Trazado 14382" d="M176.087,328.4h3.877a6.433,6.433,0,1,0,0-12.867h-3.877Z" transform="translate(-93.658 -315.537)" fill="#fff"/>
        <path id="Trazado_14383" data-name="Trazado 14383" d="M108.324,320.527v2.887H111.8c11.28.3,32.119,4.99,32.119,4.99V315.537s-20.836,4.693-32.116,4.99Z" transform="translate(-104.388 -315.537)" fill="#fff"/>
        <path id="Trazado_14384" data-name="Trazado 14384" d="M113.438,319.809q-.559.028-1.092.042H106.37a1.443,1.443,0,1,0,0,2.887h5.972c.356.009.722.023,1.095.042Z" transform="translate(-104.926 -314.861)" fill="#3171bc"/>
      </g>
      <g id="Grupo_12497" data-name="Grupo 12497" transform="translate(48.608 2.903)">
        <rect id="Rectángulo_3121" data-name="Rectángulo 3121" width="24.749" height="7.062" rx="0.344" fill="#3171bc"/>
        <path id="Trazado_14385" data-name="Trazado 14385" d="M165.737,321.215h0a.906.906,0,0,1-.9.9H152.274a.905.905,0,0,1-.9-.9h0a.905.905,0,0,1,.9-.9h12.559A.906.906,0,0,1,165.737,321.215Z" transform="translate(-146.18 -317.684)" fill="#fff"/>
      </g>
    </g>
  </g>
</svg>
