<svg xmlns="http://www.w3.org/2000/svg" width="494.583" height="424.819" viewBox="0 0 494.583 424.819">
  <g id="Grupo_12503" data-name="Grupo 12503" transform="translate(-726 -118.204)">
    <path id="Trazado_10195" data-name="Trazado 10195" d="M794.52,201.293c-22.661-70.68-103.848-92.573-166.992-59.812q-5.778,2.247-11.244,4.977c-14.6,7.264-27.779,16.994-40.55,27.941-26.454,22.805-51.084,46.523-80.94,61.9-3.5,1.955-10.31,5.762-18.154,10.218-15.69,8.912-35.5,20.5-41.608,24.587q-2.363,1.585-4.822,3.016c-31.813,18.423-57.358,47.856-70.083,81.382l-.064.167a82.68,82.68,0,0,0-5.222,32.778c2.065,47.9,23.894,99.827,64.843,124.869a165.316,165.316,0,0,0,16.938,8.036,206.084,206.084,0,0,0,54.727,13.558,244.3,244.3,0,0,0,35.849,1.714,229.942,229.942,0,0,0,34.767-3.511c9.805-1.24,19.509-2.917,29.021-4.97,4.045-.671,8.033-1.332,11.9-1.979,31.235-7.863,60.426,5.82,89.616,16.766C724.424,555.7,761.824,552.966,794.5,541.9a94.147,94.147,0,0,0,16.026-8.7q.941-.636,1.866-1.293c32.419-23.054,45.007-65.2,31.738-102.706-10.473-29.6-26.617-68.607-30.035-87.485C809.872,318.375,814.371,255.963,794.52,201.293Z" transform="translate(371.237 -8.386)" fill="#2681cc"/>
    <g id="Grupo_11880" data-name="Grupo 11880" transform="translate(670.16 23.833)">
      <path id="Trazado_11838" data-name="Trazado 11838" d="M456.625,106.939c-39.084-.288-70.859,31.031-70.859,69.706,0-38.674-31.774-69.993-70.859-69.706-38.776.284-69.793,32.144-69.793,70.581h0a123.716,123.716,0,0,0,38.514,89.6l102.137,97.244L487.9,267.124a123.716,123.716,0,0,0,38.514-89.6h0C526.417,139.083,495.4,107.223,456.625,106.939Z" transform="translate(-31.577 0)" fill="#ff5c5c"/>
      <path id="Trazado_11839" data-name="Trazado 11839" d="M576.476,415.163H541.09V379.777H508.836v35.385H473.45v32.255h35.386V482.8H541.09V447.417h35.385Z" transform="translate(-112.609 -96.825)" fill="#91c4f4"/>
      <g id="Grupo_11879" data-name="Grupo 11879" transform="translate(156.133 144.64)">
        <ellipse id="Elipse_770" data-name="Elipse 770" cx="118.992" cy="7.327" rx="118.992" ry="7.327" transform="translate(0 346.97)" fill="#d9d9d9"/>
        <g id="Grupo_11878" data-name="Grupo 11878" transform="translate(19.394 0)">
          <path id="Trazado_11841" data-name="Trazado 11841" d="M248.7,586.491c22.052-96.881,16.4-184.679,16.4-184.679S265.616,378.4,229.5,472.3c-11.584,30.118-9.311,67.586-3.548,92.14a102.523,102.523,0,0,1,2.228,24.627l.072,11.612H275.8Z" transform="translate(-198.622 -248.365)" fill="#161e57"/>
          <path id="Trazado_11842" data-name="Trazado 11842" d="M237.245,441.312s16.147-23.411,15.422-38.075h-60.81a244.958,244.958,0,0,0-2.1,40.267,213.634,213.634,0,0,1-1.6,35.03c-1.049,8.194-1.921,20.856-1.96,40.345-.009,4.514,1.223,25.8,3.379,43.232,1.542,12.462,2.284,28.385,2.284,28.385v11.612h47.493L212.079,590.5Z" transform="translate(-186.195 -249.79)" fill="#3a4f73"/>
          <path id="Trazado_11843" data-name="Trazado 11843" d="M352.1,403.6s-2.177,109.437-2.384,181.046h13.264c1.93-20.925,19.559-57,21.186-93.63,1.915-43.078,17.2-66.724,17.2-82.2,0-32.256-15.881,1-15.784-15.771C385.681,375.431,350.308,402.723,352.1,403.6Z" transform="translate(-244.224 -244.076)" fill="#598fba"/>
          <path id="Trazado_11844" data-name="Trazado 11844" d="M404.875,403.237s10.614,20.713,9.834,41.791c-.433,11.7-.34,21.183,2.326,32.586,12.169,52.038.2,70.5,1.583,99.041.408,8.438.664,13.842.664,13.842H407.449L363.574,406.476s-15.5,11.425-14.777-3.239Z" transform="translate(-243.89 -249.79)" fill="#91c4f4"/>
          <g id="Grupo_11876" data-name="Grupo 11876" transform="translate(3.379)">
            <path id="Trazado_11845" data-name="Trazado 11845" d="M376.913,187.372s-16.508-.583-11.47-10.107c7.9-14.932,36.726-6.451,38.528,16.271.936,11.8-10.579,17.1,3.238,22.532,16.128,6.343,19.784,17.834,12.541,32.349-5.607,11.238,16.06,37.109-15.348,44.392-38.627,8.955-39.929,10.217-51.054-19.732C341.406,240.937,376.913,187.372,376.913,187.372Z" transform="translate(-248.022 -166.946)" fill="#1f2e54"/>
            <g id="Grupo_11866" data-name="Grupo 11866" transform="translate(0 53.849)">
              <path id="Trazado_11846" data-name="Trazado 11846" d="M297.789,306.457l-8.575,3.827c.986,12.538.019,28.856.019,28.856,12.154,12.645,38.125,3.729,38.125,3.729l.024-14.6C311.811,336.275,306.351,324.285,297.789,306.457Z" transform="translate(-226.133 -269.293)" fill="#fbb98c"/>
              <path id="Trazado_11847" data-name="Trazado 11847" d="M254.514,289.84l8.463-3.777c-1.575-3.458-3.235-7.145-5.063-10.967-11.345-23.721-38.464-26.247-38.464-26.247l-5.94,2.617c-6.278,3.017-11.677,6.772-16.26,15.117a48.383,48.383,0,0,0-5.5,28.743l-.322,59.2h65.135S255.5,302.378,254.514,289.84Z" transform="translate(-191.433 -248.85)" fill="#0c9fc6"/>
            </g>
            <g id="Grupo_11867" data-name="Grupo 11867" transform="translate(65.283 55.466)">
              <path id="Trazado_11848" data-name="Trazado 11848" d="M381.341,260.3s-3.094-3.266-16.674-8.938l-14.463.968s-13.406-4.033-24.149,8.343c-9.632,11.1-17.5,20.2-33.428,13,.415.75.817,1.518,1.2,2.314,2.437,5.1,6.278,13.264,8.432,17.6A31.071,31.071,0,0,0,328.57,289v47.958s36.441,1.719,45.551-21.486S381.341,260.3,381.341,260.3Z" transform="translate(-292.628 -251.357)" fill="#fff"/>
            </g>
            <path id="Trazado_11849" data-name="Trazado 11849" d="M232.74,233.873l.141,8.445a7.928,7.928,0,0,0,3.429,6.42c4.581,3.135,12.269,6.919,12.75-2.577l-1.694-6.765Z" transform="translate(-206.092 -189.686)" fill="#fbb98c"/>
            <g id="Grupo_11868" data-name="Grupo 11868" transform="translate(26.728 22.478)">
              <path id="Trazado_11850" data-name="Trazado 11850" d="M235.352,224.6v-8.42a9.667,9.667,0,0,0-2.486,1.17v11.435l2.486-.459Z" transform="translate(-232.864 -205.885)" fill="#ffc9a4"/>
              <path id="Trazado_11851" data-name="Trazado 11851" d="M246.8,200.222a22.194,22.194,0,0,0-2.9.4,5.246,5.246,0,0,0-3.339,2.271v11.74a9.116,9.116,0,0,0,8.868,1.4A12.02,12.02,0,0,1,255,215.1a5.822,5.822,0,0,1,3.591,1.784c.017-2.23.052-7.509.048-14.726-2.82-.534-6.174-1.627-9.586-1.932Z" transform="translate(-235.596 -200.222)" fill="#ffc9a4"/>
            </g>
            <path id="Trazado_11852" data-name="Trazado 11852" d="M255.443,174.615c.6-4.916-3.3-10.844-8.993-8.834-5.844,2.063-.859,7.976-8.767,8.874s-19.749-4.119-17.447,11.139c0,0-4.587-.032-3.7,8.136.86,7.872,7.4,16.138,10.492,16.825V199.322a9.666,9.666,0,0,1,2.486-1.17v17.058s6.008,8.119,16.178,8.026a6.076,6.076,0,0,0,6.023-6.071v-8.445a5.99,5.99,0,0,0-5.281-5.987,12.02,12.02,0,0,0-5.576.941,9.116,9.116,0,0,1-8.868-1.4v-11.74a5.246,5.246,0,0,1,3.339-2.271,18.3,18.3,0,0,1,5.158-.4c6.624.59,13.039,4.164,15.724.817,1.59-1.982.943-3.452-.38-4.5C261.921,179.836,258.518,176.44,255.443,174.615Z" transform="translate(-200.302 -165.379)" fill="#1f2e54"/>
            <g id="Grupo_11869" data-name="Grupo 11869" transform="translate(23.587 27.42)">
              <path id="Trazado_11853" data-name="Trazado 11853" d="M233.624,208a4.6,4.6,0,1,0,0,8.956Z" transform="translate(-227.995 -207.883)" fill="#ffc9a4"/>
            </g>
            <path id="Trazado_11854" data-name="Trazado 11854" d="M407.652,332.384l-1.894,11.83a80.056,80.056,0,0,0,2.659,36.606c1.991,6.351,3.808,12.755,5.224,19.259l4.313,19.805H341.48l3.284-51.321L382,347.837Z" transform="translate(-244.681 -224.646)" fill="#f4f4f4"/>
            <path id="Trazado_11855" data-name="Trazado 11855" d="M373.251,275.422s13.5-9.11,20.028-24.065l-14.611,3.051S373.506,262.7,373.251,275.422Z" transform="translate(-255.956 -195.891)" fill="#91c4f4"/>
            <path id="Trazado_11856" data-name="Trazado 11856" d="M373.306,280.963a58.5,58.5,0,0,0,6.787-5.682l1.2-8.2s-4.837,1.433-7.961,12.06c-.034.577-.059,1.161-.073,1.758Z" transform="translate(-255.958 -201.47)" fill="#1f2e54"/>
            <path id="Trazado_11857" data-name="Trazado 11857" d="M384.21,258.677l-1.084,2.25a5.613,5.613,0,0,0-.034,4.8h0l1.017-.352a5.61,5.61,0,0,0,3.4-3.283l1.6-4.153Z" transform="translate(-259.264 -198.226)" fill="#1f2e54"/>
            <path id="Trazado_11858" data-name="Trazado 11858" d="M380.229,254.408a33.1,33.1,0,0,0-2.58,5.647l6.19-2.219,3.6,5.547a53.7,53.7,0,0,0,7.4-12.026Z" transform="translate(-257.517 -195.891)" fill="#fff"/>
            <path id="Trazado_11859" data-name="Trazado 11859" d="M377.876,265.413a11.454,11.454,0,0,1,16.765,1.293c3.913,5.024,7.576,14.006,7.09,29.953-1,32.99-15.573,45.717-53.754,47.056,0,0-11.245,6.838-18.536,6.618a.589.589,0,0,1-.435-.954,11.828,11.828,0,0,1,3.313-2.9,14.64,14.64,0,0,1-5.628,2.125.381.381,0,0,1-.321-.632,16.039,16.039,0,0,1,4.024-3.335s-4.186,1.926-5.777,1.758,4.772-4.689,4.772-4.689-6.447,4.019-7.2,3.015,6.658-8.59,11.89-9.461c2.01-.335,2.511-1.256.419-1.926a4.761,4.761,0,0,1-3.015-4.1c0-1.088,1.759-.837,2.763.5s3.1,2.6,4.019,2.6,5.861,3.014,5.861,3.014,29.724-11.221,28.887-29.431C372.313,290.707,367.471,275.007,377.876,265.413Z" transform="translate(-237.816 -199.797)" fill="#fbb98c"/>
            <path id="Trazado_11860" data-name="Trazado 11860" d="M356.222,335.341s29.724-11.221,28.887-29.431c-.7-15.2-5.542-30.9,4.864-40.5a11.454,11.454,0,0,1,16.765,1.293c3.913,5.024,7.576,14.006,7.09,29.953-1,32.99-15.573,45.717-53.754,47.056C359.531,337.092,356.222,335.341,356.222,335.341Z" transform="translate(-249.913 -199.797)" fill="#fff"/>
            <g id="Grupo_11870" data-name="Grupo 11870" transform="translate(101.999 71.979)">
              <path id="Trazado_11861" data-name="Trazado 11861" d="M352.208,300.207a21.582,21.582,0,0,1-.994-14.428c.881-3.211,6.123-12.009,8.925-5.64,2.7,6.133-1.335,15.172-3.864,20.633-.238.514.525.964.764.447,2.34-5.053,4.658-10.9,4.669-16.553.005-2.416-.324-6.585-3.1-7.521-3.5-1.183-6.436,3.422-7.463,6.013a22.73,22.73,0,0,0,.3,17.5c.221.523.984.072.764-.446Z" transform="translate(-349.54 -276.954)" fill="#1f2e54"/>
            </g>
            <g id="Grupo_11871" data-name="Grupo 11871" transform="translate(132.399 54.826)">
              <path id="Trazado_11862" data-name="Trazado 11862" d="M401.882,251.07c4.891,5.929-2.22,14.715-5.165,20.054-.251.455.445.862.7.407,3.149-5.711,10.339-14.6,5.039-21.031-.33-.4-.9.173-.57.57Z" transform="translate(-396.664 -250.364)" fill="#232a79"/>
            </g>
            <g id="Grupo_11872" data-name="Grupo 11872" transform="translate(109.415 54.887)">
              <path id="Trazado_11863" data-name="Trazado 11863" d="M372.574,250.459c-9.207.208-10.258,10.322-11.53,17.336-.1.557.752.8.854.235,1.185-6.536,1.951-16.488,10.676-16.685a.443.443,0,0,0,0-.885Z" transform="translate(-361.036 -250.459)" fill="#1f2e54"/>
            </g>
            <g id="Grupo_11873" data-name="Grupo 11873" transform="translate(103.336 94.865)">
              <path id="Trazado_11864" data-name="Trazado 11864" d="M352.34,314.591a1.228,1.228,0,0,0,1.768-.833,1.147,1.147,0,0,0-1.054-1.326,1.422,1.422,0,0,0-1.316.66c-.341.612.076,1.184.6,1.5a.443.443,0,0,0,.447-.764.685.685,0,0,1-.288-.248c-.019-.038-.005-.027,0-.041a.549.549,0,0,1,.384-.225.291.291,0,0,1,.324.137c.128.248-.2.485-.424.376C352.277,313.582,351.827,314.344,352.34,314.591Z" transform="translate(-351.614 -312.428)" fill="#1f2e54"/>
            </g>
            <g id="Grupo_11874" data-name="Grupo 11874" transform="translate(107.331 95.43)">
              <path id="Trazado_11865" data-name="Trazado 11865" d="M358.532,315.468a1.229,1.229,0,0,0,1.768-.833,1.148,1.148,0,0,0-1.054-1.326,1.421,1.421,0,0,0-1.316.66c-.342.612.076,1.185.6,1.5a.443.443,0,0,0,.446-.764.68.68,0,0,1-.288-.248c-.019-.038-.005-.027,0-.041a.551.551,0,0,1,.385-.224.291.291,0,0,1,.325.137c.128.248-.2.484-.425.376C358.468,314.459,358.019,315.222,358.532,315.468Z" transform="translate(-357.806 -313.305)" fill="#1f2e54"/>
            </g>
            <g id="Grupo_11875" data-name="Grupo 11875" transform="translate(127.433 74.636)">
              <path id="Trazado_11866" data-name="Trazado 11866" d="M391.248,288.7c2.61.877,6.366-1.283,5.085-5.063-1.526-4.506-7.627-2.53-7.359,1.784A3.4,3.4,0,0,0,391.248,288.7Z" transform="translate(-388.966 -281.072)" fill="#1f2e54"/>
              <path id="Trazado_11867" data-name="Trazado 11867" d="M393.6,287.681a1.394,1.394,0,0,0,1.785-1.778,1.338,1.338,0,0,0-2.584.626A1.2,1.2,0,0,0,393.6,287.681Z" transform="translate(-390.327 -282.468)" fill="#fff"/>
            </g>
            <path id="Trazado_11868" data-name="Trazado 11868" d="M200.626,266.839s-2.916.561-3.257,2.042-3.035,2.395-3.4,3.294a34.828,34.828,0,0,0-.476,5.52c-.015.234-.024.472-.024.718-.005.168-.008.266-.008.266l.01-.012a11.8,11.8,0,0,0,.236,2.159c.655,3.186,1.548,2.35,1.9-.657.623,1.782,1.341.676,1.627-2.07.685,2.664,1.558,1.415,1.836-1.9.977,3.564,2.3-.62,1.762-7.315.736.477,3.18,1.908,3.363-.014C204.419,266.611,200.626,266.839,200.626,266.839Z" transform="translate(-192.154 -201.383)" fill="#ffc9a4"/>
            <path id="Trazado_11869" data-name="Trazado 11869" d="M392.688,203.588a4.277,4.277,0,0,0-3.693-4.789l-.041,0c.386-2,.821-3.658,1.1-4.646-3.891.186-11.016-.679-14.309-8.785a4.265,4.265,0,0,1-.352-1.923c-2.578,1.58-4.907,4.45-6.664,9.125-1.521,4.046-4.6,13.206-3.451,19.113,1.586,8.135,6.344,9.074,12.344,7.855,0,0-7.116,16.5,1.433,15.466,7.015-.852,11.325-7.974,11.325-7.974l1.187-10.584c-.033-.025-.066-.046-.1-.072-2.408-1.943-3.254-5.405-3.344-9.072A4.273,4.273,0,0,0,392.688,203.588Z" transform="translate(-253.037 -171.789)" fill="#ffc9a4"/>
          </g>
          <g id="Grupo_11877" data-name="Grupo 11877" transform="translate(5.198 100.276)">
            <path id="Trazado_11870" data-name="Trazado 11870" d="M290.9,357.452c-2.01-.335-2.512-1.255-.419-1.926a4.761,4.761,0,0,0,3.014-4.1c0-1.088-1.759-.837-2.763.5s-3.1,2.6-4.019,2.6-5.861,3.014-5.861,3.014-23.8-.9-38.646-4.663c-14-3.548-18.158-.645-18.847-24.469a58.862,58.862,0,0,1,.6-7.587v0H194.717c-2.284,16.57,3.938,39.826,16.754,45.794,10.355,4.822,28.622,7.165,65.533-.705,0,0,11.245,6.838,18.536,6.618.478-.014,3.234-3.771,4.825-3.938s1.674-.67,2.428-1.674S296.136,358.324,290.9,357.452Z" transform="translate(-194.253 -320.816)" fill="#ffc9a4"/>
          </g>
          <path id="Trazado_11871" data-name="Trazado 11871" d="M332.9,693.3l-30.568,11.612h44.606l-.775-11.612Z" transform="translate(-227.409 -352.725)" fill="#1f2e54"/>
          <path id="Trazado_11872" data-name="Trazado 11872" d="M421.645,693.507l-32.872,11.612h44.706V693.507Z" transform="translate(-258.085 -352.8)" fill="#1f2e54"/>
        </g>
        <rect id="Rectángulo_2979" data-name="Rectángulo 2979" width="0.852" height="19.825" transform="translate(123.147 78.457)" fill="#ff5c5c"/>
      </g>
    </g>
  </g>
</svg>
