<?xml version="1.0" encoding="utf-8"?>
<!-- Generator: Adobe Illustrator 24.2.3, SVG Export Plug-In . SVG Version: 6.00 Build 0)  -->
<svg version="1.1" id="Layer_1" xmlns="http://www.w3.org/2000/svg" xmlns:xlink="http://www.w3.org/1999/xlink" x="0px" y="0px"
	 viewBox="0 0 2400 1847.5" style="enable-background:new 0 0 2400 1847.5;" xml:space="preserve">
<style type="text/css">
	.st0{opacity:0.1;}
	.st1{fill:#FFFFFF;}
</style>
<g class="st0">
	<path class="st1" d="M1045.4,326.6c-14.9,5.6-31.6-2-37.2-16.9l-16-42.6l-42.6,16c-14.9,5.6-31.6-2-37.2-16.9
		c-5.6-14.9,2-31.6,16.9-37.2l42.6-16l-16-42.6c-5.6-14.9,2-31.6,16.9-37.2c14.9-5.6,31.6,2,37.2,16.9l16,42.6l42.6-16
		c14.9-5.6,31.6,2,37.2,16.9s-2,31.6-16.9,37.2l-42.6,16l16,42.6C1067.9,304.3,1060.3,321,1045.4,326.6z M933.6,240.6
		c-8.5,3.2-12.8,12.7-9.6,21.3c3.2,8.5,12.7,12.8,21.3,9.6l48.4-18.2c3.2-1.2,6.8,0.4,8,3.6l18.2,48.4c3.2,8.5,12.7,12.8,21.3,9.6
		c8.5-3.2,12.8-12.7,9.6-21.3l-18.2-48.4c-1.2-3.2,0.4-6.8,3.6-8l48.4-18.2c8.5-3.2,12.8-12.7,9.6-21.3c-3.2-8.5-12.7-12.8-21.3-9.6
		l-48.4,18.2c-3.2,1.2-6.8-0.4-8-3.6l-18.2-48.4c-3.2-8.5-12.7-12.8-21.3-9.6c-8.5,3.2-12.8,12.7-9.6,21.3l18.2,48.4
		c1.2,3.2-0.4,6.8-3.6,8L933.6,240.6z"/>
	<path class="st1" d="M1904.1,1240.1c-7.4,2.8-15.8-1-18.6-8.4l-8-21.3l-21.3,8c-7.4,2.8-15.8-1-18.6-8.4c-2.8-7.4,1-15.8,8.4-18.6
		l21.3-8l-8-21.3c-2.8-7.4,1-15.8,8.4-18.6c7.4-2.8,15.8,1,18.6,8.4l8,21.3l21.3-8c7.4-2.8,15.8,1,18.6,8.4c2.8,7.4-1,15.8-8.4,18.6
		l-21.3,8l8,21.3C1915.4,1228.9,1911.6,1237.3,1904.1,1240.1z M1848.3,1197.2c-4.3,1.6-6.4,6.4-4.8,10.6c1.6,4.3,6.4,6.4,10.6,4.8
		l24.2-9.1c1.6-0.6,3.4,0.2,4,1.8l9.1,24.2c1.6,4.3,6.4,6.4,10.6,4.8c4.3-1.6,6.4-6.4,4.8-10.6l-9.1-24.2c-0.6-1.6,0.2-3.4,1.8-4
		l24.2-9.1c4.3-1.6,6.4-6.4,4.8-10.6c-1.6-4.3-6.4-6.4-10.6-4.8l-24.2,9.1c-1.6,0.6-3.4-0.2-4-1.8l-9.1-24.2
		c-1.6-4.3-6.4-6.4-10.6-4.8c-4.3,1.6-6.4,6.4-4.8,10.6l9.1,24.2c0.6,1.6-0.2,3.4-1.8,4L1848.3,1197.2z"/>
	<path class="st1" d="M2051.6,1682.3c-14.5-6.6-21-23.7-14.4-38.2l18.8-41.4l-41.4-18.8c-14.5-6.6-21-23.7-14.4-38.2
		s23.7-21,38.2-14.4l41.4,18.8l18.8-41.4c6.6-14.5,23.7-21,38.2-14.4s21,23.7,14.4,38.2l-18.8,41.4l41.4,18.8
		c14.5,6.6,21,23.7,14.4,38.2c-6.6,14.5-23.7,21-38.2,14.4l-41.4-18.8l-18.8,41.4C2083.3,1682.5,2066.1,1688.9,2051.6,1682.3z
		 M2033.4,1542.5c-8.3-3.8-18.1-0.1-21.9,8.2c-3.8,8.3-0.1,18.1,8.2,21.9l47.1,21.3c3.1,1.4,4.5,5.1,3.1,8.2l-21.3,47.1
		c-3.8,8.3-0.1,18.1,8.2,21.9s18.1,0.1,21.9-8.2l21.3-47.1c1.4-3.1,5.1-4.5,8.2-3.1l47.1,21.3c8.3,3.8,18.1,0.1,21.9-8.2
		c3.8-8.3,0.1-18.1-8.2-21.9l-47.1-21.3c-3.1-1.4-4.5-5.1-3.1-8.2l21.3-47.1c3.8-8.3,0.1-18.1-8.2-21.9s-18.1-0.1-21.9,8.2
		l-21.3,47.1c-1.4,3.1-5.1,4.5-8.2,3.1L2033.4,1542.5z"/>
	<g>
		<path class="st1" d="M466.7,1307.6c-1.1,1.1-2.6,1.7-4.1,1.7h-99.8c-30.7,0-55.7-25-55.7-55.7c0-14.9,5.8-28.9,16.3-39.4
			c9.2-9.2,21.1-14.8,33.8-16c1.3-12.8,6.8-24.6,16-33.8c10.5-10.5,24.5-16.3,39.4-16.3c30.7,0,55.7,25,55.7,55.7v99.8
			C468.4,1305.1,467.8,1306.5,466.7,1307.6z M331.6,1222.5c-8.3,8.3-12.9,19.4-12.9,31.2c0,24.3,19.8,44.1,44.1,44.1h93.9v-93.9
			c0-24.3-19.8-44.1-44.1-44.1c-11.8,0-22.8,4.6-31.2,12.9c-8.3,8.3-12.9,19.4-12.9,31.2c0,3.2-2.6,5.8-5.8,5.8
			C351,1209.6,340,1214.1,331.6,1222.5z"/>
		<path class="st1" d="M445.3,1207.9c-1.1,1.1-2.5,1.7-4.1,1.7c-3.2,0-5.8-2.6-5.8-5.8c0-6-2.4-11.7-6.6-16c-4.3-4.3-10-6.7-16-6.7
			c-6.1,0-11.7,2.4-16,6.6c-2.3,2.3-6,2.3-8.2,0c-2.3-2.3-2.3-6,0-8.2c6.5-6.5,15.1-10.1,24.3-10.1c9.2,0,17.8,3.6,24.3,10.1
			s10.1,15.1,10.1,24.3C447,1205.3,446.4,1206.8,445.3,1207.9z"/>
	</g>
	<g>
		<path class="st1" d="M1674.9,1151.2c-1.1,1.1-2.6,1.7-4.1,1.7H1571c-30.7,0-55.7-25-55.7-55.7c0-14.9,5.8-28.9,16.3-39.4
			c9.2-9.2,21.1-14.8,33.8-16c1.3-12.8,6.8-24.6,16-33.8c10.5-10.5,24.5-16.3,39.4-16.3c30.7,0,55.7,25,55.7,55.7v99.8
			C1676.6,1148.7,1676,1150.1,1674.9,1151.2z M1539.8,1066.1c-8.3,8.3-12.9,19.4-12.9,31.2c0,24.3,19.8,44.1,44.1,44.1h93.9v-93.9
			c0-24.3-19.8-44.1-44.1-44.1c-11.8,0-22.8,4.6-31.2,12.9c-8.3,8.3-12.9,19.4-12.9,31.2c0,3.2-2.6,5.8-5.8,5.8
			C1559.2,1053.2,1548.2,1057.7,1539.8,1066.1z"/>
		<path class="st1" d="M1653.5,1051.5c-1.1,1.1-2.5,1.7-4.1,1.7c-3.2,0-5.8-2.6-5.8-5.8c0-6-2.4-11.7-6.6-16c-4.3-4.3-10-6.7-16-6.7
			c-6.1,0-11.7,2.4-16,6.6c-2.3,2.3-6,2.3-8.2,0c-2.3-2.3-2.3-6,0-8.2c6.5-6.5,15.1-10.1,24.3-10.1c9.2,0,17.8,3.6,24.3,10.1
			c6.5,6.5,10.1,15.1,10.1,24.3C1655.2,1048.9,1654.6,1050.4,1653.5,1051.5z"/>
	</g>
	<g>
		<path class="st1" d="M639.1,1661.4c-1.2-1.2-1.8-2.7-1.8-4.3v-105.2c0-32.4,26.4-58.7,58.7-58.7c15.7,0,30.4,6.1,41.5,17.2
			c9.7,9.7,15.6,22.2,16.9,35.7c13.5,1.3,26,7.2,35.7,16.9c11.1,11.1,17.2,25.8,17.2,41.5c0,32.4-26.4,58.7-58.7,58.7H643.4
			C641.8,1663.2,640.2,1662.5,639.1,1661.4z M728.9,1519c-8.8-8.8-20.4-13.6-32.8-13.6c-25.6,0-46.4,20.8-46.4,46.4v99h99
			c25.6,0,46.4-20.8,46.4-46.4c0-12.4-4.8-24.1-13.6-32.8c-8.8-8.8-20.4-13.6-32.8-13.6c-3.4,0-6.1-2.8-6.1-6.1
			C742.5,1539.5,737.6,1527.8,728.9,1519z"/>
		<path class="st1" d="M744.3,1638.8c-1.1-1.1-1.8-2.6-1.8-4.3c0-3.4,2.8-6.1,6.2-6.1c6.4,0,12.4-2.5,16.9-7s7-10.5,7-16.9
			s-2.5-12.4-7-16.9c-2.4-2.4-2.4-6.3,0-8.7c2.4-2.4,6.3-2.4,8.7,0c6.8,6.8,10.6,15.9,10.6,25.6s-3.8,18.7-10.6,25.6
			c-6.8,6.8-15.9,10.6-25.6,10.6C746.9,1640.6,745.4,1640,744.3,1638.8z"/>
	</g>
	<g>
		<path class="st1" d="M2082.6,334.6c-0.6-0.6-0.9-1.4-0.9-2.2v-53.6c0-16.5,13.4-29.9,29.9-29.9c8,0,15.5,3.1,21.2,8.8
			c4.9,4.9,7.9,11.3,8.6,18.2c6.9,0.7,13.2,3.7,18.2,8.6c5.7,5.7,8.8,13.2,8.8,21.2c0,16.5-13.4,29.9-29.9,29.9h-53.6
			C2084,335.5,2083.2,335.2,2082.6,334.6z M2128.4,262c-4.5-4.5-10.4-6.9-16.7-6.9c-13.1,0-23.7,10.6-23.7,23.7v50.5h50.5
			c13.1,0,23.7-10.6,23.7-23.7c0-6.3-2.5-12.3-6.9-16.7c-4.5-4.5-10.4-6.9-16.7-6.9c-1.7,0-3.1-1.4-3.1-3.1
			C2135.3,272.4,2132.8,266.5,2128.4,262z"/>
		<path class="st1" d="M2136.2,323.1c-0.6-0.6-0.9-1.3-0.9-2.2c0-1.7,1.4-3.1,3.1-3.1c3.2,0,6.3-1.3,8.6-3.6
			c2.3-2.3,3.6-5.4,3.6-8.6c0-3.3-1.3-6.3-3.6-8.6c-1.2-1.2-1.2-3.2,0-4.4c1.2-1.2,3.2-1.2,4.4,0c3.5,3.5,5.4,8.1,5.4,13
			s-1.9,9.6-5.4,13c-3.5,3.5-8.1,5.4-13,5.4C2137.6,324,2136.8,323.7,2136.2,323.1z"/>
	</g>
	<path class="st1" d="M224.8,530.4c-22.9,0-41.5-18.6-41.5-41.5s18.6-41.5,41.5-41.5s41.5,18.6,41.5,41.5
		C266.3,511.8,247.7,530.4,224.8,530.4z M224.8,452.9c-19.9,0-36.1,16.2-36.1,36.1c0,19.9,16.2,36.1,36.1,36.1s36.1-16.2,36.1-36.1
		C260.9,469.1,244.7,452.9,224.8,452.9z"/>
	<path class="st1" d="M626.1,882.8c-16.7,0-30.3-13.6-30.3-30.3s13.6-30.3,30.3-30.3s30.3,13.6,30.3,30.3S642.8,882.8,626.1,882.8z
		 M626.1,827.6c-13.7,0-24.9,11.2-24.9,24.9s11.2,24.9,24.9,24.9s24.9-11.2,24.9-24.9S639.8,827.6,626.1,827.6z"/>
	<path class="st1" d="M211.5,1102.6c-16.7,0-30.3-13.6-30.3-30.3c0-16.7,13.6-30.3,30.3-30.3s30.3,13.6,30.3,30.3
		C241.8,1089,228.2,1102.6,211.5,1102.6z M211.5,1047.4c-13.7,0-24.9,11.2-24.9,24.9c0,13.7,11.2,24.9,24.9,24.9
		s24.9-11.2,24.9-24.9C236.4,1058.6,225.2,1047.4,211.5,1047.4z"/>
	<path class="st1" d="M1853.4,1016.2c-25.9,0-46.9-21.1-46.9-46.9c0-25.9,21.1-46.9,46.9-46.9c25.9,0,46.9,21.1,46.9,46.9
		S1879.3,1016.2,1853.4,1016.2z M1853.4,927.7c-22.9,0-41.5,18.6-41.5,41.5s18.6,41.5,41.5,41.5s41.5-18.6,41.5-41.5
		S1876.3,927.7,1853.4,927.7z"/>
	<path class="st1" d="M2096,1134.6c-15.9,0-28.9-13-28.9-28.9s13-28.9,28.9-28.9s28.9,13,28.9,28.9
		C2125,1121.6,2112,1134.6,2096,1134.6z M2096,1082.2c-13,0-23.5,10.5-23.5,23.5s10.5,23.5,23.5,23.5s23.5-10.5,23.5-23.5
		S2109,1082.2,2096,1082.2z"/>
	<path class="st1" d="M1872.9,1420.9c-15.9,0-28.9-13-28.9-28.9s13-28.9,28.9-28.9s28.9,13,28.9,28.9
		C1901.9,1407.9,1888.9,1420.9,1872.9,1420.9z M1872.9,1368.5c-13,0-23.5,10.5-23.5,23.5s10.5,23.5,23.5,23.5s23.5-10.5,23.5-23.5
		S1885.9,1368.5,1872.9,1368.5z"/>
	<path class="st1" d="M1093.4,534.8c-28.1,0-51-22.9-51-51c0-28.1,22.9-51,51-51s51,22.9,51,51
		C1144.4,511.9,1121.5,534.8,1093.4,534.8z M1093.4,438.2c-25.1,0-45.6,20.5-45.6,45.6s20.5,45.6,45.6,45.6s45.6-20.5,45.6-45.6
		C1139,458.6,1118.5,438.2,1093.4,438.2z"/>
	<path class="st1" d="M1070.1,1242.8c-15.3,0-27.8-12.5-27.8-27.8s12.5-27.8,27.8-27.8s27.8,12.5,27.8,27.8
		S1085.4,1242.8,1070.1,1242.8z M1070.1,1192.7c-12.3,0-22.3,10-22.3,22.3s10,22.3,22.3,22.3s22.3-10,22.3-22.3
		C1092.5,1202.7,1082.4,1192.7,1070.1,1192.7z"/>
	<path class="st1" d="M1398.4,475.5c-15.5,0-28.1-12.6-28.1-28.1s12.6-28.1,28.1-28.1c15.5,0,28.1,12.6,28.1,28.1
		S1413.9,475.5,1398.4,475.5z M1398.4,424.8c-12.4,0-22.5,10.1-22.5,22.5c0,12.4,10.1,22.5,22.5,22.5s22.5-10.1,22.5-22.5
		C1421,434.9,1410.8,424.8,1398.4,424.8z"/>
	<g>
		<g>
			<g>
				<path class="st1" d="M415.2,674.2c-20.3-20.3-47.4-31.5-76.1-31.5c-28.7,0-55.8,11.2-76.1,31.5c-20.1,20.1-31.3,46.8-31.5,75.2
					l-19.6,39.2c-0.9,1.8-0.3,3.9,1.4,4.9l18.2,10.9v57.8c0,2.1,1.7,3.7,3.7,3.7h36.2v28.2c0,2.1,1.7,3.7,3.7,3.7s3.7-1.7,3.7-3.7
					v-32c0-2.1-1.7-3.7-3.7-3.7H239v-56.2c0-1.3-0.7-2.5-1.8-3.2l-17-10.2l18.4-36.9c0.3-0.5,0.4-1.1,0.4-1.7
					c0-55.2,44.9-100.1,100.1-100.1s100.1,44.9,100.1,100.1c0,31-14,59.8-38.5,78.9c-0.9,0.7-1.4,1.8-1.4,3v61.9
					c0,2.1,1.7,3.7,3.7,3.7s3.7-1.7,3.7-3.7V834c25.4-20.6,40-51,40-83.7C446.7,721.5,435.5,694.5,415.2,674.2z"/>
			</g>
		</g>
		<g>
			<g>
				<path class="st1" d="M339.1,686.6c-13.1,0-23.7,10.6-23.7,23.7c0,13.1,10.6,23.7,23.7,23.7c13.1,0,23.7-10.6,23.7-23.7
					C362.8,697.3,352.2,686.6,339.1,686.6z M339.1,726.6c-8.9,0-16.2-7.3-16.2-16.2s7.3-16.2,16.2-16.2c8.9,0,16.2,7.3,16.2,16.2
					C355.3,719.3,348,726.6,339.1,726.6z"/>
			</g>
		</g>
		<g>
			<g>
				<path class="st1" d="M339.1,666.6c-2.1,0-3.7,1.7-3.7,3.7v8c0,2.1,1.7,3.7,3.7,3.7s3.7-1.7,3.7-3.7v-8
					C342.8,668.3,341.2,666.6,339.1,666.6z"/>
			</g>
		</g>
		<g>
			<g>
				<path class="st1" d="M326.4,680.8l-4-6.9c-1-1.8-3.3-2.4-5.1-1.4c-1.8,1-2.4,3.3-1.4,5.1l4,6.9c0.7,1.2,2,1.9,3.2,1.9
					C326,686.4,327.8,683.2,326.4,680.8z"/>
			</g>
		</g>
		<g>
			<g>
				<path class="st1" d="M313.3,691.1l-6.9-4c-1.8-1-4.1-0.4-5.1,1.4c-1,1.8-0.4,4.1,1.4,5.1l6.9,4c1.9,1.1,4.4,0.3,5.3-1.7
					C315.6,694.1,314.9,692.1,313.3,691.1z"/>
			</g>
		</g>
		<g>
			<g>
				<path class="st1" d="M307.1,706.6h-8c-2.1,0-3.7,1.7-3.7,3.7c0,2.1,1.7,3.7,3.7,3.7h8c2.1,0,3.7-1.7,3.7-3.7
					C310.9,708.3,309.2,706.6,307.1,706.6z"/>
			</g>
		</g>
		<g>
			<g>
				<path class="st1" d="M314.7,724.4c-1-1.8-3.3-2.4-5.1-1.4l-6.9,4c-1.6,0.9-2.3,3-1.6,4.7c0.9,2,3.4,2.8,5.3,1.7l6.9-4
					C315.1,728.5,315.7,726.2,314.7,724.4z"/>
			</g>
		</g>
		<g>
			<g>
				<path class="st1" d="M325,734.8c-1.8-1-4.1-0.4-5.1,1.4l-4,6.9c-0.9,1.6-0.5,3.8,1,4.9c1.8,1.3,4.4,0.8,5.5-1.1l4-6.9
					C327.4,738.1,326.8,735.8,325,734.8z"/>
			</g>
		</g>
		<g>
			<g>
				<path class="st1" d="M339.1,738.6c-2.1,0-3.7,1.7-3.7,3.7v8c0,2.1,1.7,3.7,3.7,3.7s3.7-1.7,3.7-3.7v-8
					C342.8,740.2,341.2,738.6,339.1,738.6z"/>
			</g>
		</g>
		<g>
			<g>
				<path class="st1" d="M362.3,743.1l-4-6.9c-1-1.8-3.3-2.4-5.1-1.4c-1.8,1-2.4,3.3-1.4,5.1l4,6.9c1.1,1.9,3.7,2.4,5.5,1.1
					C362.8,746.8,363.3,744.7,362.3,743.1z"/>
			</g>
		</g>
		<g>
			<g>
				<path class="st1" d="M375.6,727.1l-6.9-4c-1.8-1-4.1-0.4-5.1,1.4c-1,1.8-0.4,4.1,1.4,5.1l6.9,4c1.9,1.1,4.4,0.3,5.3-1.7
					C377.9,730.1,377.2,728,375.6,727.1z"/>
			</g>
		</g>
		<g>
			<g>
				<path class="st1" d="M379,706.6h-8c-2.1,0-3.7,1.7-3.7,3.7c0,2.1,1.7,3.7,3.7,3.7h8c2.1,0,3.7-1.7,3.7-3.7
					C382.8,708.3,381.1,706.6,379,706.6z"/>
			</g>
		</g>
		<g>
			<g>
				<path class="st1" d="M376.9,688.5c-1-1.8-3.3-2.4-5.1-1.4l-6.9,4c-1.6,0.9-2.3,3-1.6,4.7c0.9,2,3.4,2.8,5.3,1.7l6.9-4
					C377.4,692.6,378,690.3,376.9,688.5z"/>
			</g>
		</g>
		<g>
			<g>
				<path class="st1" d="M360.9,672.5c-1.8-1-4.1-0.4-5.1,1.4l-4,6.9c-1.4,2.4,0.4,5.6,3.2,5.6c1.3,0,2.6-0.7,3.2-1.9l4-6.9
					C363.3,675.8,362.7,673.5,360.9,672.5z"/>
			</g>
		</g>
		<g>
			<g>
				<path class="st1" d="M412.1,804l-23.4-23.4c-13-13-33.7-13.9-47.7-2.5l-17.3-17.3c-4.5-4.5-12.1-4.5-16.6,0
					c-1,1-1.9,2.3-2.4,3.6l-6.4-6.4c-4.6-4.6-12-4.6-16.6,0c-1,1-1.9,2.3-2.4,3.6l-3.6-3.6c-4.6-4.6-12-4.6-16.6,0
					c-4.5,4.5-4.5,12.1,0,16.6l3.4,3.4c-1.1,0.5-2.2,1.2-3.2,2c-4.9,4.4-5.1,12.3-0.4,17l5.8,5.8c1.4,1.4,3.9,1.4,5.3,0
					c1.4-1.4,1.4-3.9,0-5.3l-5.8-5.8c-1.8-1.8-1.6-4.8,0.4-6.3c1.7-1.4,4.3-1,5.8,0.5l16.8,16.8l0.4,0.4c0.5,6,5.5,10.8,11.6,10.9
					l30.2,0.2c0,0,0,0,0,0c2.1,0,3.7-1.7,3.7-3.7c0-2.1-1.6-3.8-3.7-3.8l-30.2-0.2c-2.3,0-4.2-1.9-4.2-4.3c0-2.3,1.9-4.2,4.2-4.2
					c0,0,0,0,0,0l29.3,0.2c1.2,0.3,2.6,0,3.5-1l11.3-11.3c11-11,28.9-11,39.9,0l23.4,23.4c1.5,1.5,4.1,1.4,5.5-0.2
					C413.5,807.6,413.4,805.4,412.1,804z M290,794.9l-25.7-25.7c-1.6-1.6-1.6-4.4,0-6c1.7-1.7,4.3-1.7,6,0l27.3,27.3
					C294.5,791,291.8,792.6,290,794.9z M308.1,790.5c-0.1-0.1-0.1-0.2-0.2-0.2l-21-21c-1.6-1.6-1.6-4.4,0-6c1.7-1.7,4.3-1.7,6,0
					l14.1,14.1c0,0,0,0,0,0l13.2,13.2L308.1,790.5z M329.5,789.2l-17.1-17.1c-0.8-0.8-1.2-1.9-1.2-3c0-3.7,4.6-5.6,7.2-3l17.1,17.1
					L329.5,789.2z"/>
			</g>
		</g>
		<g>
			<g>
				<path class="st1" d="M386.6,829.4l-12.1-12.1c-0.9-0.9-2.2-1.3-3.4-1l-27.9,5.6h-48.9l-10.2-10.2c-1.5-1.5-3.8-1.5-5.3,0
					c-1.5,1.5-1.5,3.8,0,5.3l11.3,11.3c0.7,0.7,1.7,1.1,2.6,1.1h50.9c0.2,0,0.5,0,0.7-0.1l26.3-5.3l10.7,10.7
					c1.5,1.5,4.1,1.4,5.5-0.2C388.1,833,388,830.8,386.6,829.4z"/>
			</g>
		</g>
	</g>
	<g>
		<g>
			<g>
				<path class="st1" d="M1874.9,195.6c-20.3-20.3-47.4-31.5-76.1-31.5c-28.7,0-55.8,11.2-76.1,31.5c-20.1,20.1-31.3,46.8-31.5,75.2
					l-19.6,39.2c-0.9,1.8-0.3,3.9,1.4,4.9l18.2,10.9v57.8c0,2.1,1.7,3.7,3.7,3.7h36.2v28.2c0,2.1,1.7,3.7,3.7,3.7s3.7-1.7,3.7-3.7
					v-32c0-2.1-1.7-3.7-3.7-3.7h-36.2v-56.2c0-1.3-0.7-2.5-1.8-3.2l-17-10.2l18.4-36.9c0.3-0.5,0.4-1.1,0.4-1.7
					c0-55.2,44.9-100.1,100.1-100.1c55.2,0,100.1,44.9,100.1,100.1c0,31-14,59.8-38.5,78.9c-0.9,0.7-1.4,1.8-1.4,3v61.9
					c0,2.1,1.7,3.7,3.7,3.7c2.1,0,3.7-1.7,3.7-3.7v-60.1c25.4-20.6,40-51,40-83.7C1906.4,242.9,1895.3,215.9,1874.9,195.6z"/>
			</g>
		</g>
		<g>
			<g>
				<path class="st1" d="M1798.8,208c-13.1,0-23.7,10.6-23.7,23.7c0,13.1,10.6,23.7,23.7,23.7c13.1,0,23.7-10.6,23.7-23.7
					C1822.5,218.6,1811.9,208,1798.8,208z M1798.8,248c-8.9,0-16.2-7.3-16.2-16.2c0-8.9,7.3-16.2,16.2-16.2
					c8.9,0,16.2,7.3,16.2,16.2C1815.1,240.7,1807.8,248,1798.8,248z"/>
			</g>
		</g>
		<g>
			<g>
				<path class="st1" d="M1798.8,188c-2.1,0-3.7,1.7-3.7,3.7v8c0,2.1,1.7,3.7,3.7,3.7c2.1,0,3.7-1.7,3.7-3.7v-8
					C1802.6,189.7,1800.9,188,1798.8,188z"/>
			</g>
		</g>
		<g>
			<g>
				<path class="st1" d="M1786.1,202.2l-4-6.9c-1-1.8-3.3-2.4-5.1-1.4c-1.8,1-2.4,3.3-1.4,5.1l4,6.9c0.7,1.2,2,1.9,3.2,1.9
					C1785.7,207.8,1787.5,204.6,1786.1,202.2z"/>
			</g>
		</g>
		<g>
			<g>
				<path class="st1" d="M1773,212.5l-6.9-4c-1.8-1-4.1-0.4-5.1,1.4c-1,1.8-0.4,4.1,1.4,5.1l6.9,4c1.9,1.1,4.4,0.3,5.3-1.7
					C1775.3,215.5,1774.6,213.4,1773,212.5z"/>
			</g>
		</g>
		<g>
			<g>
				<path class="st1" d="M1766.9,228h-8c-2.1,0-3.7,1.7-3.7,3.7c0,2.1,1.7,3.7,3.7,3.7h8c2.1,0,3.7-1.7,3.7-3.7
					C1770.6,229.7,1768.9,228,1766.9,228z"/>
			</g>
		</g>
		<g>
			<g>
				<path class="st1" d="M1774.4,245.8c-1-1.8-3.3-2.4-5.1-1.4l-6.9,4c-1.6,0.9-2.3,3-1.6,4.7c0.9,2,3.4,2.8,5.3,1.7l6.9-4
					C1774.8,249.9,1775.4,247.6,1774.4,245.8z"/>
			</g>
		</g>
		<g>
			<g>
				<path class="st1" d="M1784.7,256.2c-1.8-1-4.1-0.4-5.1,1.4l-4,6.9c-0.9,1.6-0.5,3.8,1,4.9c1.8,1.3,4.4,0.8,5.5-1.1l4-6.9
					C1787.1,259.5,1786.5,257.2,1784.7,256.2z"/>
			</g>
		</g>
		<g>
			<g>
				<path class="st1" d="M1798.8,259.9c-2.1,0-3.7,1.7-3.7,3.7v8c0,2.1,1.7,3.7,3.7,3.7c2.1,0,3.7-1.7,3.7-3.7v-8
					C1802.6,261.6,1800.9,259.9,1798.8,259.9z"/>
			</g>
		</g>
		<g>
			<g>
				<path class="st1" d="M1822,264.5l-4-6.9c-1-1.8-3.3-2.4-5.1-1.4c-1.8,1-2.4,3.3-1.4,5.1l4,6.9c1.1,1.9,3.7,2.4,5.5,1.1
					C1822.5,268.2,1823,266.1,1822,264.5z"/>
			</g>
		</g>
		<g>
			<g>
				<path class="st1" d="M1835.3,248.5l-6.9-4c-1.8-1-4.1-0.4-5.1,1.4c-1,1.8-0.4,4.1,1.4,5.1l6.9,4c1.9,1.1,4.4,0.3,5.3-1.7
					C1837.6,251.5,1836.9,249.4,1835.3,248.5z"/>
			</g>
		</g>
		<g>
			<g>
				<path class="st1" d="M1838.8,228h-8c-2.1,0-3.7,1.7-3.7,3.7c0,2.1,1.7,3.7,3.7,3.7h8c2.1,0,3.7-1.7,3.7-3.7
					C1842.5,229.7,1840.8,228,1838.8,228z"/>
			</g>
		</g>
		<g>
			<g>
				<path class="st1" d="M1836.7,209.9c-1-1.8-3.3-2.4-5.1-1.4l-6.9,4c-1.6,0.9-2.3,3-1.6,4.7c0.9,2,3.4,2.8,5.3,1.7l6.9-4
					C1837.1,214,1837.7,211.7,1836.7,209.9z"/>
			</g>
		</g>
		<g>
			<g>
				<path class="st1" d="M1820.7,193.9c-1.8-1-4.1-0.4-5.1,1.4l-4,6.9c-1.4,2.4,0.4,5.6,3.2,5.6c1.3,0,2.6-0.7,3.2-1.9l4-6.9
					C1823.1,197.2,1822.5,194.9,1820.7,193.9z"/>
			</g>
		</g>
		<g>
			<g>
				<path class="st1" d="M1871.8,325.4l-23.4-23.4c-13-13-33.7-13.9-47.7-2.5l-17.3-17.3c-4.5-4.5-12.1-4.5-16.6,0
					c-1,1-1.9,2.3-2.4,3.6l-6.4-6.4c-4.6-4.6-12-4.6-16.6,0c-1,1-1.9,2.3-2.4,3.6l-3.6-3.6c-4.6-4.6-12-4.6-16.6,0
					c-4.5,4.5-4.5,12.1,0,16.6l3.4,3.4c-1.1,0.5-2.2,1.2-3.2,2c-4.9,4.4-5.1,12.3-0.4,17l5.8,5.8c1.4,1.4,3.9,1.4,5.3,0
					s1.4-3.9,0-5.3l-5.8-5.8c-1.8-1.8-1.6-4.8,0.4-6.3c1.7-1.4,4.3-1,5.8,0.5l16.8,16.8l0.4,0.4c0.5,6,5.5,10.8,11.6,10.9l30.2,0.2
					c0,0,0,0,0,0c2.1,0,3.7-1.7,3.7-3.7c0-2.1-1.6-3.8-3.7-3.8l-30.2-0.2c-2.3,0-4.2-1.9-4.2-4.3c0-2.3,1.9-4.2,4.2-4.2c0,0,0,0,0,0
					l29.3,0.2c1.2,0.3,2.6,0,3.5-1l11.3-11.3c11-11,28.9-11,39.9,0l23.4,23.4c1.5,1.5,4.1,1.4,5.5-0.2
					C1873.3,329,1873.2,326.8,1871.8,325.4z M1749.7,316.3l-25.7-25.7c-1.6-1.6-1.6-4.4,0-6c1.7-1.7,4.3-1.7,6,0l27.3,27.3
					C1754.3,312.4,1751.6,314,1749.7,316.3z M1767.9,311.9c-0.1-0.1-0.1-0.2-0.2-0.2l-21-21c-1.6-1.6-1.6-4.4,0-6
					c1.7-1.7,4.3-1.7,6,0l14.1,14.1c0,0,0,0,0,0L1780,312L1767.9,311.9z M1789.2,310.6l-17.1-17.1c-0.8-0.8-1.2-1.9-1.2-3
					c0-3.7,4.6-5.6,7.2-3l17.1,17.1L1789.2,310.6z"/>
			</g>
		</g>
		<g>
			<g>
				<path class="st1" d="M1846.4,350.8l-12.1-12.1c-0.9-0.9-2.2-1.3-3.4-1l-27.9,5.6H1754l-10.2-10.2c-1.5-1.5-3.8-1.5-5.3,0
					c-1.5,1.5-1.5,3.8,0,5.3l11.3,11.3c0.7,0.7,1.7,1.1,2.6,1.1h50.9c0.2,0,0.5,0,0.7-0.1l26.3-5.3l10.7,10.7
					c1.5,1.5,4.1,1.4,5.5-0.2C1847.8,354.4,1847.7,352.2,1846.4,350.8z"/>
			</g>
		</g>
	</g>
	<g>
		<g>
			<g>
				<path class="st1" d="M1390.7,1108c-11.6-11.6-27-18-43.4-18c-16.4,0-31.8,6.4-43.4,18c-11.5,11.5-17.9,26.7-18,42.9l-11.2,22.4
					c-0.5,1-0.1,2.2,0.8,2.8l10.4,6.2v33c0,1.2,1,2.1,2.1,2.1h20.7v16.1c0,1.2,1,2.1,2.1,2.1c1.2,0,2.1-1,2.1-2.1v-18.2
					c0-1.2-1-2.1-2.1-2.1h-20.7v-32.1c0-0.8-0.4-1.4-1-1.8l-9.7-5.8l10.5-21c0.1-0.3,0.2-0.6,0.2-1c0-31.5,25.6-57.2,57.2-57.2
					s57.2,25.6,57.2,57.2c0,17.7-8,34.1-22,45.1c-0.5,0.4-0.8,1-0.8,1.7v35.4c0,1.2,1,2.1,2.1,2.1s2.1-1,2.1-2.1v-34.3
					c14.5-11.7,22.8-29.1,22.8-47.8C1408.7,1135,1402.3,1119.6,1390.7,1108z"/>
			</g>
		</g>
		<g>
			<g>
				<path class="st1" d="M1347.3,1115.1c-7.5,0-13.5,6.1-13.5,13.5c0,7.5,6.1,13.5,13.5,13.5c7.5,0,13.5-6.1,13.5-13.5
					C1360.8,1121.1,1354.8,1115.1,1347.3,1115.1z M1347.3,1137.9c-5.1,0-9.3-4.2-9.3-9.3c0-5.1,4.2-9.3,9.3-9.3
					c5.1,0,9.3,4.2,9.3,9.3C1356.6,1133.7,1352.4,1137.9,1347.3,1137.9z"/>
			</g>
		</g>
		<g>
			<g>
				<path class="st1" d="M1347.3,1103.7c-1.2,0-2.1,1-2.1,2.1v4.6c0,1.2,1,2.1,2.1,2.1s2.1-1,2.1-2.1v-4.6
					C1349.4,1104.6,1348.5,1103.7,1347.3,1103.7z"/>
			</g>
		</g>
		<g>
			<g>
				<path class="st1" d="M1340,1111.7l-2.3-3.9c-0.6-1-1.9-1.4-2.9-0.8c-1,0.6-1.4,1.9-0.8,2.9l2.3,3.9c0.4,0.7,1.1,1.1,1.9,1.1
					C1339.8,1114.9,1340.8,1113.1,1340,1111.7z"/>
			</g>
		</g>
		<g>
			<g>
				<path class="st1" d="M1332.6,1117.6l-3.9-2.3c-1-0.6-2.3-0.2-2.9,0.8c-0.6,1-0.2,2.3,0.8,2.9l3.9,2.3c1.1,0.6,2.5,0.2,3-1
					C1333.9,1119.4,1333.5,1118.2,1332.6,1117.6z"/>
			</g>
		</g>
		<g>
			<g>
				<path class="st1" d="M1329,1126.5h-4.6c-1.2,0-2.1,1-2.1,2.1c0,1.2,1,2.1,2.1,2.1h4.6c1.2,0,2.1-1,2.1-2.1
					C1331.2,1127.4,1330.2,1126.5,1329,1126.5z"/>
			</g>
		</g>
		<g>
			<g>
				<path class="st1" d="M1333.3,1136.7c-0.6-1-1.9-1.4-2.9-0.8l-3.9,2.3c-0.9,0.5-1.3,1.7-0.9,2.7c0.5,1.2,1.9,1.6,3,1l3.9-2.3
					C1333.6,1139,1333.9,1137.7,1333.3,1136.7z"/>
			</g>
		</g>
		<g>
			<g>
				<path class="st1" d="M1339.2,1142.6c-1-0.6-2.3-0.2-2.9,0.8l-2.3,3.9c-0.5,0.9-0.3,2.2,0.6,2.8c1,0.7,2.5,0.4,3.1-0.7l2.3-3.9
					C1340.6,1144.5,1340.3,1143.1,1339.2,1142.6z"/>
			</g>
		</g>
		<g>
			<g>
				<path class="st1" d="M1347.3,1144.7c-1.2,0-2.1,1-2.1,2.1v4.6c0,1.2,1,2.1,2.1,2.1s2.1-1,2.1-2.1v-4.6
					C1349.4,1145.7,1348.5,1144.7,1347.3,1144.7z"/>
			</g>
		</g>
		<g>
			<g>
				<path class="st1" d="M1360.5,1147.3l-2.3-3.9c-0.6-1-1.9-1.4-2.9-0.8c-1,0.6-1.4,1.9-0.8,2.9l2.3,3.9c0.6,1.1,2.1,1.4,3.1,0.7
					C1360.8,1149.4,1361.1,1148.2,1360.5,1147.3z"/>
			</g>
		</g>
		<g>
			<g>
				<path class="st1" d="M1368.1,1138.2l-3.9-2.3c-1-0.6-2.3-0.2-2.9,0.8c-0.6,1-0.2,2.3,0.8,2.9l3.9,2.3c1.1,0.6,2.5,0.2,3-1
					C1369.4,1139.9,1369,1138.7,1368.1,1138.2z"/>
			</g>
		</g>
		<g>
			<g>
				<path class="st1" d="M1370.1,1126.5h-4.6c-1.2,0-2.1,1-2.1,2.1c0,1.2,1,2.1,2.1,2.1h4.6c1.2,0,2.1-1,2.1-2.1
					C1372.2,1127.4,1371.3,1126.5,1370.1,1126.5z"/>
			</g>
		</g>
		<g>
			<g>
				<path class="st1" d="M1368.9,1116.1c-0.6-1-1.9-1.4-2.9-0.8l-3.9,2.3c-0.9,0.5-1.3,1.7-0.9,2.7c0.5,1.2,1.9,1.6,3,1l3.9-2.3
					C1369.1,1118.5,1369.5,1117.2,1368.9,1116.1z"/>
			</g>
		</g>
		<g>
			<g>
				<path class="st1" d="M1359.8,1107c-1-0.6-2.3-0.2-2.9,0.8l-2.3,3.9c-0.8,1.4,0.2,3.2,1.8,3.2c0.7,0,1.5-0.4,1.9-1.1l2.3-3.9
					C1361.1,1108.9,1360.8,1107.6,1359.8,1107z"/>
			</g>
		</g>
		<g>
			<g>
				<path class="st1" d="M1388.9,1182.1l-13.4-13.4c-7.4-7.4-19.2-7.9-27.2-1.4l-9.9-9.9c-2.6-2.6-6.9-2.6-9.5,0
					c-0.6,0.6-1.1,1.3-1.4,2l-3.6-3.6c-2.6-2.6-6.9-2.6-9.5,0c-0.6,0.6-1.1,1.3-1.4,2l-2-2c-2.6-2.6-6.9-2.6-9.5,0
					c-2.6,2.6-2.6,6.9,0,9.5l1.9,1.9c-0.6,0.3-1.3,0.7-1.8,1.2c-2.8,2.5-2.9,7-0.2,9.7l3.3,3.3c0.8,0.8,2.2,0.8,3,0
					c0.8-0.8,0.8-2.2,0-3l-3.3-3.3c-1-1-0.9-2.7,0.2-3.6c1-0.8,2.4-0.6,3.3,0.3l9.6,9.6l0.2,0.2c0.3,3.4,3.1,6.2,6.6,6.2l17.2,0.1
					c0,0,0,0,0,0c1.2,0,2.1-0.9,2.1-2.1c0-1.2-0.9-2.1-2.1-2.2l-17.2-0.1c-1.3,0-2.4-1.1-2.4-2.4c0-1.3,1.1-2.4,2.4-2.4c0,0,0,0,0,0
					l16.7,0.1c0.7,0.2,1.5,0,2-0.6l6.4-6.5c6.3-6.3,16.5-6.3,22.8,0l13.4,13.4c0.9,0.9,2.3,0.8,3.1-0.1
					C1389.8,1184.1,1389.7,1182.9,1388.9,1182.1z M1319.3,1176.9l-14.7-14.7c-0.9-0.9-0.9-2.5,0-3.4c0.9-0.9,2.5-0.9,3.4,0
					l15.6,15.6C1321.9,1174.6,1320.3,1175.6,1319.3,1176.9z M1329.6,1174.4c0,0-0.1-0.1-0.1-0.1l-12-12c-0.9-0.9-0.9-2.5,0-3.4
					c0.9-0.9,2.5-0.9,3.4,0l8.1,8.1c0,0,0,0,0,0l7.5,7.5L1329.6,1174.4z M1341.8,1173.6l-9.8-9.8c-0.5-0.5-0.7-1.1-0.7-1.7
					c0-2.1,2.6-3.2,4.1-1.7l9.8,9.8L1341.8,1173.6z"/>
			</g>
		</g>
		<g>
			<g>
				<path class="st1" d="M1374.4,1196.6l-6.9-6.9c-0.5-0.5-1.2-0.7-1.9-0.6l-15.9,3.2h-27.9l-5.8-5.8c-0.8-0.8-2.2-0.8-3,0
					c-0.8,0.8-0.8,2.2,0,3l6.5,6.5c0.4,0.4,0.9,0.6,1.5,0.6h29c0.1,0,0.3,0,0.4,0l15-3l6.1,6.1c0.9,0.9,2.3,0.8,3.1-0.1
					C1375.3,1198.6,1375.2,1197.4,1374.4,1196.6z"/>
			</g>
		</g>
	</g>
	<g>
		<g>
			<g>
				<path class="st1" d="M1050.2,688.3h-3.4v-3.4c0-2.5-2-4.5-4.5-4.5s-4.5,2-4.5,4.5v3.4h-3.4c-2.5,0-4.5,2-4.5,4.5s2,4.5,4.5,4.5
					h3.4v3.4c0,2.5,2,4.5,4.5,4.5s4.5-2,4.5-4.5v-3.4h3.4c2.5,0,4.5-2,4.5-4.5S1052.7,688.3,1050.2,688.3z"/>
			</g>
		</g>
		<g>
			<g>
				<path class="st1" d="M1173.3,959.9l-13.1-76.5c-1.4-8.3-7.3-15-15.4-17.4l-58.6-17.7c-2.6-0.8-5.3-0.4-7.5,0.8
					c-2.1-1.9-3.6-5-3.6-8v-14.6c0.2-0.1,0.3-0.3,0.5-0.4c0.2-0.2,0.5-0.4,0.7-0.6h5.7c8,0,15.4-3.2,20.8-9s8.2-13.4,7.7-21.4
					l-1.6-25.2v-0.4c0-0.7-0.1-1.4-0.2-2l-1.8-28.2c-0.2-2.5-2.3-4.3-4.7-4.2c-2.5,0.2-4.3,2.3-4.2,4.7l1.1,16.7
					c-1.2-0.3-2.4-0.5-3.7-0.5h-0.2c-1.3-2-3.5-3.4-6.1-3.6c-46.4-4.2-59.8-18-69.5-28.2c-2-2.1-5.4-2.3-9.9-0.5
					c-7.9,3.1-21.3,13.1-21.6,31c0,0,0,0,0,0.1v1.2c-0.9,0.1-1.8,0.2-2.6,0.5l1.4-21.8c0.7-11.6,6.6-21.9,15.9-28.5l0.3,0.9
					c2.2,5.9,8,9.8,14.2,9.8h51c6.3,0,12-3.9,14.2-9.8l0.1-0.2c4.8,3.6,8.7,8.4,11.3,13.9c0.8,1.6,2.4,2.5,4,2.5
					c0.6,0,1.3-0.1,1.9-0.4c2.2-1.1,3.2-3.7,2.1-6c-3.6-7.6-9.2-14-16.1-18.6l3.1-8c1.2-3.1,0.9-6.5-0.6-9.3
					c-1.6-2.9-4.3-4.9-7.5-5.5l-25.7-5.2c-8.2-1.7-16.6-1.7-24.8,0l-25.7,5.2c-3.2,0.7-6,2.7-7.5,5.5s-1.8,6.3-0.6,9.3l2.8,7.4
					c-12.6,8-20.6,21.4-21.5,36.5l-2.1,33.5c-0.1,0.6-0.1,1.2-0.1,1.8v0.4l-1.6,25.2c-0.5,8,2.2,15.5,7.7,21.4s12.9,9,20.8,9h5.7
					c0.2,0.2,0.5,0.4,0.7,0.6c0.2,0.1,0.3,0.3,0.5,0.4v14.6c0,2.9-1.5,6.1-3.6,8c-2.2-1.2-4.9-1.6-7.5-0.8l-58.6,17.7
					c-8.1,2.4-13.9,9.1-15.4,17.4l-4.9,28.7c-0.4,2.4,1.2,4.7,3.7,5.2c2.4,0.4,4.7-1.2,5.2-3.7l4.9-28.7c0.8-4.9,4.3-8.9,9.1-10.3
					l58.6-17.7c0.4-0.1,0.8,0.1,1,0.4c0,0,0,0,0,0l28,55.3c0.7,1.5,1.7,2.7,2.8,3.8c2.5,2.4,5.9,3.7,9.4,3.7c2.3,0,4.5-0.6,6.4-1.6
					c2.5-1.3,4.6-3.4,5.9-6l28-55.3c0.2-0.4,0.6-0.5,1-0.4l58.6,17.7c4.8,1.4,8.3,5.4,9.1,10.3l13.1,76.5c0.3,1.7-0.5,2.8-0.9,3.4
					c-0.5,0.6-1.5,1.5-3.2,1.5h-27.7l-7.3-42.8c-0.4-2.4-2.7-4.1-5.2-3.7c-2.4,0.4-4.1,2.7-3.7,5.2l7,41.3H961.1l7-41.3
					c0.4-2.4-1.2-4.7-3.7-5.2c-2.4-0.4-4.7,1.2-5.2,3.7l-7.3,42.8h-27.7c-1.7,0-2.7-0.9-3.2-1.5c-0.5-0.6-1.2-1.7-0.9-3.4l4.5-26.6
					c0.4-2.4-1.2-4.7-3.7-5.2c-2.4-0.4-4.7,1.2-5.2,3.7l-4.5,26.6c-0.7,3.8,0.4,7.7,2.9,10.6c2.5,3,6.1,4.6,10,4.6c0,0,0,0,0,0h236
					c3.9,0,7.5-1.7,10-4.6C1172.9,967.6,1173.9,963.8,1173.3,959.9z M1005.2,685.4c0.2-0.3,0.6-0.9,1.5-1.1l25.7-5.2
					c3.5-0.7,7.1-1.1,10.6-1.1c3.5,0,7.1,0.4,10.6,1.1l25.7,5.2c0,0,0,0,0,0c0.9,0.2,1.3,0.8,1.5,1.1c0.2,0.3,0.4,1,0.1,1.8
					l-6.5,16.9c-0.9,2.4-3.3,4.1-5.9,4.1h-51c-2.6,0-5-1.6-5.9-4.1l-6.5-16.9C1004.7,686.4,1005,685.7,1005.2,685.4z M1101.6,795.7
					c0.3,5.5-1.5,10.7-5.3,14.7c-3,3.2-7,5.3-11.3,6c4.9-6.1,9.7-14.1,11.1-23.3c1.9-0.1,3.6-0.6,5.2-1.3L1101.6,795.7z
					 M988.4,810.4c-3.7-4-5.6-9.2-5.3-14.7l0.3-4c1.6,0.8,3.3,1.3,5.2,1.3c1.4,9.2,6.2,17.2,11.1,23.3
					C995.3,815.7,991.4,813.6,988.4,810.4z M1047.2,907.5l-0.6,1.1c-0.1,0.2-0.2,0.3-0.3,0.4c0,0-0.1,0.1-0.1,0.1
					c-0.1,0.1-0.1,0.2-0.2,0.2c-0.2,0.3-0.4,0.5-0.7,0.7c-0.1,0-0.1,0.1-0.2,0.1c-0.8,0.6-1.8,1-2.9,1c-1.9,0-3.5-1-4.3-2.6
					l-18.6-36.7h45.8L1047.2,907.5z M1069.7,863h-54.8l-3.5-6.8c4.2-3.5,7.1-9.3,7.1-15v-7.7c5.9,3.8,13.2,6.7,23.8,6.8c0,0,0,0,0,0
					s0,0,0,0c10.6-0.1,17.9-3,23.8-6.8v7.7c0,5.7,2.8,11.5,7.1,15L1069.7,863z M1069.7,819.4c-8.3,7.1-14.6,11.8-27.4,12
					c-12.7-0.2-19.1-4.8-27.4-12c-11-9.4-17.7-21-17.9-30.9c-0.1-2.4-2-4.4-4.5-4.4h-3.4c-2.5,0-4.5-2-4.5-4.5v-10
					c0-0.2,0-0.4,0-0.6c0-0.1,0-0.1,0-0.2c0.4-2.1,2.2-3.7,4.4-3.7h3.4c2.5,0,4.5-2,4.5-4.5v-5.5c0.3-15.1,13.1-22.2,17.2-23.3
					c13.1,13.4,29.2,25.5,73.3,29.6c0.4,2.1,2.2,3.7,4.4,3.7h3.4c2.2,0,4.1,1.6,4.4,3.7c0,0.1,0,0.1,0,0.2c0,0.2,0,0.4,0,0.6v10
					c0,2.5-2,4.5-4.5,4.5h-3.4c-2.4,0-4.4,1.9-4.5,4.4C1087.4,798.4,1080.7,809.9,1069.7,819.4z"/>
			</g>
		</g>
	</g>
	<g>
		<g>
			<path class="st1" d="M560.9,375.6l-11.4-66.8c-1.2-7.2-6.3-13-13.3-15.1l-30.8-9.3c-0.6-7.5-3.7-14.6-8.9-20.2
				c-4.1-4.5-9.3-7.8-15-9.6c1-1.1,1.9-2.2,2.7-3.2c7.3-9.3,11.2-19.6,12.2-26.5h2.4c6.2,0,11.2-5,11.2-11.2V208
				c0-4.1-2.3-7.9-5.8-9.8v-13.8c0-2.1-1.7-3.8-3.8-3.8s-3.8,1.7-3.8,3.8v15.5c-1.5,0.3-3.2,0.7-5,1.5c-0.2,0.1-0.4,0.1-0.5,0.2
				c-0.4,0.2-0.8,0.4-1.2,0.6v-30.4c0-8.4-6.8-15.2-15.2-15.2h-10.4c-3.6,0-7.1,1.3-9.9,3.5l-1,0.8c-1.9,1.5-4.2,2.4-6.7,2.4
				c-2.4,0-4.8-0.8-6.7-2.4l-1-0.8c-2.8-2.3-6.3-3.5-9.9-3.5h-10.4c-8.4,0-15.2,6.8-15.2,15.2v30.4c-0.4-0.2-0.8-0.4-1.2-0.6
				c-0.2-0.1-0.3-0.2-0.5-0.2c-1.8-0.8-3.5-1.2-5-1.5v-39.2c0-12.2,9.9-22.2,22.2-22.2h55.7c12.2,0,22.2,9.9,22.2,22.2v5.9
				c0,2.1,1.7,3.8,3.8,3.8s3.8-1.7,3.8-3.8v-5.9c0-16.4-13.3-29.7-29.7-29.7h-55.7c-16.4,0-29.7,13.3-29.7,29.7v37.5
				c-3.5,1.9-5.8,5.7-5.8,9.8v5.7c0,6.2,5,11.2,11.2,11.2h2.4c1,7,4.9,17.2,12.2,26.5c0.8,1.1,1.7,2.1,2.7,3.2
				c-13.1,4.2-22.6,15.9-23.8,29.8l-30.8,9.3c-7,2.1-12.1,7.9-13.3,15.1l-4.6,27.1c-0.4,2.1,1,4,3.1,4.4c2.1,0.4,4-1,4.4-3.1
				l4.6-27.1c0.7-4.4,3.8-7.8,8.1-9.1l28.5-8.6v7.5c-6.5,1.2-12.1,5.7-14.4,11.9c-0.6,1.6-1,3.4-1.1,5.1l-2.7,35.3
				c-0.2,2.7,0.7,5.3,2.5,7.3c1.8,2,4.4,3.1,7,3.1h4.7c2.1,0,3.8-1.7,3.8-3.8c0-2.1-1.7-3.8-3.8-3.8h-4.7c-0.6,0-1.1-0.2-1.5-0.7
				c-0.4-0.4-0.6-1-0.5-1.5l2.7-35.3c0.1-1.1,0.3-2.1,0.7-3.1c1.6-4.3,5.9-7.2,10.7-7.3l0.6,0c0,0,0.1,0,0.1,0
				c4.7,0,8.8,2.6,10.5,6.8c0.5,1.2,0.8,2.4,0.9,3.6l2.8,35.3c0,0.6-0.2,1.1-0.5,1.5c-0.4,0.4-0.9,0.7-1.5,0.7h-4.7
				c-2.1,0-3.8,1.7-3.8,3.8c0,2.1,1.7,3.8,3.8,3.8h4.7c2.7,0,5.2-1.1,7-3.1c1.8-2,2.7-4.6,2.5-7.3l-2.8-35.3c-0.2-2.1-0.7-4.1-1.5-6
				c-2.5-5.9-7.8-10-14.1-11.1v-9.7l13-3.9c1.2,2.5,3.5,7.9,8.2,19.4c4.7,11.7,10.5,26.7,16,41.2c0,0.1,0.1,0.2,0.1,0.4
				c3.7,9.7,7.3,19.2,10.4,27.5c0.6,1.5,2,2.4,3.5,2.4c1.6,0,3-1,3.5-2.4c3.1-8.2,6.7-17.7,10.4-27.5c0.1-0.1,0.1-0.2,0.1-0.4
				c5.6-14.6,11.4-29.5,16-41.2c4.6-11.6,7-17,8.2-19.5l13,3.9v22.3c-9,1.7-15.8,9.7-15.8,19.2c0,10.8,8.8,19.5,19.5,19.5
				c10.8,0,19.5-8.8,19.5-19.5c0-9.5-6.8-17.4-15.7-19.2v-20L534,301c4.2,1.3,7.3,4.8,8.1,9.1l11.4,66.8c0.2,1.1-0.1,2.2-0.8,3
				c-0.7,0.9-1.7,1.3-2.9,1.3H343.7c-1.1,0-2.1-0.5-2.9-1.3c-0.7-0.9-1-1.9-0.8-3l3.8-22c0.4-2.1-1-4-3.1-4.4c-2.1-0.4-4,1-4.4,3.1
				l-3.8,22c-0.6,3.3,0.4,6.6,2.5,9.2c2.2,2.5,5.3,4,8.6,4h206.1c3.3,0,6.5-1.5,8.6-4C560.5,382.3,561.4,378.9,560.9,375.6z
				 M496.8,207.6c2-0.5,3.6-0.5,3.6-0.5c0.7,0,1.3-0.1,1.8-0.4c0.2,0.4,0.3,0.9,0.3,1.3v5.7c0,2-1.6,3.6-3.6,3.6h-2.1V207.6
				L496.8,207.6z M396.7,217.4L396.7,217.4h-2.1c-2,0-3.6-1.6-3.6-3.6V208c0-0.5,0.1-0.9,0.3-1.3c0.6,0.3,1.2,0.4,1.8,0.4
				c0,0,1.6,0,3.6,0.5L396.7,217.4L396.7,217.4z M404.2,221.6v-9.9c1.1,0.3,2.4,0.3,3.6-0.2c2-0.8,3.3-2.7,3.3-4.9v-34.9
				c0-4.2,3.5-7.7,7.7-7.7h10.4c1.9,0,3.7,0.6,5.1,1.8l1,0.8c3.2,2.6,7.3,4.1,11.5,4.1c4.2,0,8.2-1.5,11.5-4.1l1-0.8
				c1.4-1.2,3.3-1.8,5.1-1.8h10.4c4.2,0,7.7,3.5,7.7,7.7v34.9c0,2.1,1.3,4.1,3.3,4.9c0.7,0.3,1.4,0.4,2,0.4c0.5,0,1-0.1,1.5-0.2v9.9
				c0,5.5-3.8,16.2-10.9,25.2c-2.3,3-5.3,6.2-9,9c-0.1,0.1-0.2,0.2-0.3,0.3c-5.7,4.2-13.1,7.5-22.3,7.5s-16.5-3.2-22.3-7.5
				c-0.1-0.1-0.2-0.2-0.3-0.3c-3.7-2.8-6.7-6-9-9C408,237.9,404.2,227.2,404.2,221.6z M471.4,282.6l-24.7,18.5L422,282.6
				c2.5-3.1,3.8-7.1,3.8-10.7v-6.1c5.8,3.1,12.8,5.2,20.9,5.2s15.1-2.1,20.9-5.2v6.1C467.6,275.5,469,279.5,471.4,282.6z
				 M415.7,278.4c-2-0.8-4.3-0.9-6.4-0.3c-0.1,0-0.2,0-0.3,0.1l-13,3.9c2.2-10.8,11-19.5,22.3-21.2v11
				C418.3,274.3,417.2,276.8,415.7,278.4z M425.9,308.7C425.9,308.7,425.9,308.7,425.9,308.7c-0.2-0.5-0.4-1-0.6-1.5
				c0-0.1-0.1-0.2-0.1-0.3c-0.2-0.5-0.4-0.9-0.5-1.4c0,0,0-0.1,0-0.1c-0.6-1.4-1.1-2.8-1.6-4c0-0.1-0.1-0.2-0.1-0.3
				c-0.1-0.4-0.3-0.7-0.4-1.1c-0.1-0.1-0.1-0.3-0.2-0.4c-0.1-0.3-0.3-0.7-0.4-1c0-0.1-0.1-0.2-0.1-0.3c-0.3-0.6-0.5-1.2-0.7-1.8
				c-0.1-0.2-0.1-0.3-0.2-0.5c-0.1-0.2-0.2-0.5-0.3-0.7c-0.1-0.2-0.2-0.5-0.3-0.7c0-0.1-0.1-0.2-0.1-0.3c0-0.1-0.1-0.1-0.1-0.2
				c-0.4-1.1-0.9-2.1-1.2-3c0,0,0,0,0,0c-0.2-0.5-0.4-1-0.6-1.5c-0.1-0.2-0.2-0.5-0.3-0.7l21.3,15.9l-8.9,3.8c0,0,0,0,0,0l-3.7,1.6
				C426.3,309.8,426.1,309.2,425.9,308.7z M434.9,331.8c-0.7-1.9-1.5-3.9-2.2-5.8c-1.2-3-2.3-5.9-3.4-8.7l1.4-0.6l5.8,6.7
				L434.9,331.8z M446.8,362.5c-0.1-0.2-0.2-0.4-0.4-0.6c-1.7-4.5-3.9-10.2-6.3-16.5l3.5-19.3h6.1l3.5,19.3
				C450.8,352,448.5,357.9,446.8,362.5z M451.2,318.6h-8.9l-4.2-4.9l8.7-3.7l8.7,3.7L451.2,318.6z M460.7,326
				c-0.8,1.9-1.5,3.9-2.2,5.8l-1.5-8.4l5.8-6.7l1.4,0.6C463,320.1,461.9,323,460.7,326z M475.2,289.7c-0.2,0.4-0.4,0.9-0.6,1.4
				c0,0.1-0.1,0.1-0.1,0.2c-0.2,0.5-0.4,0.9-0.6,1.4c0,0,0,0.1,0,0.1c-0.2,0.4-0.4,0.9-0.5,1.3c0,0.1-0.1,0.2-0.1,0.2
				c0,0.1-0.1,0.2-0.1,0.3c-0.1,0.2-0.2,0.4-0.3,0.6c-0.1,0.3-0.2,0.5-0.3,0.8c0,0.1-0.1,0.2-0.1,0.3c-0.3,0.6-0.5,1.3-0.8,2
				c0,0.1-0.1,0.2-0.1,0.3c-0.1,0.3-0.3,0.7-0.4,1c-0.1,0.1-0.1,0.3-0.2,0.4c-0.1,0.4-0.3,0.7-0.4,1.1c0,0.1-0.1,0.2-0.1,0.3
				c-0.5,1.3-1,2.6-1.6,4c0,0,0,0.1-0.1,0.1c-0.2,0.4-0.4,0.9-0.5,1.4c0,0.1-0.1,0.2-0.1,0.3c-0.2,0.5-0.4,1-0.6,1.4c0,0,0,0,0,0
				c-0.2,0.5-0.4,1.1-0.6,1.6l-3.7-1.6c0,0,0,0,0,0l-8.9-3.8l21.3-15.9C475.4,289.3,475.3,289.5,475.2,289.7z M484.4,278.2
				C484.4,278.2,484.4,278.2,484.4,278.2C484.4,278.2,484.4,278.2,484.4,278.2c-2.2-0.7-4.5-0.6-6.6,0.2c-1.5-1.7-2.6-4.1-2.6-6.5
				v-11c11.3,1.7,20.1,10.2,22.3,21.2L484.4,278.2z M513.7,331.6c0,6.6-5.4,12-12,12s-12-5.4-12-12c0-6.6,5.4-12,12-12
				S513.7,325,513.7,331.6z"/>
		</g>
	</g>
	<g>
		<g>
			<path class="st1" d="M2218.6,854.3l-11.4-66.8c-1.2-7.2-6.3-13-13.3-15.1l-30.8-9.3c-0.6-7.5-3.7-14.6-8.9-20.2
				c-4.1-4.5-9.3-7.8-15-9.6c1-1.1,1.9-2.2,2.7-3.2c7.3-9.3,11.2-19.6,12.2-26.5h2.4c6.2,0,11.2-5,11.2-11.2v-5.7
				c0-4.1-2.3-7.9-5.8-9.8v-13.8c0-2.1-1.7-3.8-3.8-3.8s-3.8,1.7-3.8,3.8v15.5c-1.5,0.3-3.2,0.7-5,1.5c-0.2,0.1-0.4,0.1-0.5,0.2
				c-0.4,0.2-0.8,0.4-1.2,0.6v-30.4c0-8.4-6.8-15.2-15.2-15.2h-10.4c-3.6,0-7.1,1.3-9.9,3.5l-1,0.8c-1.9,1.5-4.2,2.4-6.7,2.4
				s-4.8-0.8-6.7-2.4l-1-0.8c-2.8-2.3-6.3-3.5-9.9-3.5h-10.4c-8.4,0-15.2,6.8-15.2,15.2v30.4c-0.4-0.2-0.8-0.4-1.2-0.6
				c-0.2-0.1-0.3-0.2-0.5-0.2c-1.8-0.8-3.5-1.2-5-1.5v-39.2c0-12.2,9.9-22.2,22.2-22.2h55.7c12.2,0,22.2,9.9,22.2,22.2v5.9
				c0,2.1,1.7,3.8,3.8,3.8c2.1,0,3.8-1.7,3.8-3.8v-5.9c0-16.4-13.3-29.7-29.7-29.7h-55.7c-16.4,0-29.7,13.3-29.7,29.7v37.5
				c-3.5,1.9-5.8,5.7-5.8,9.8v5.7c0,6.2,5,11.2,11.2,11.2h2.4c1,7,4.9,17.2,12.2,26.5c0.8,1.1,1.7,2.1,2.7,3.2
				c-13.1,4.2-22.6,15.9-23.8,29.8l-30.8,9.3c-7,2.1-12.1,7.9-13.3,15.1l-4.6,27.1c-0.4,2.1,1,4,3.1,4.4c2.1,0.4,4-1,4.4-3.1
				l4.6-27.1c0.7-4.4,3.8-7.8,8.1-9.1l28.5-8.6v7.5c-6.5,1.2-12.1,5.7-14.4,11.9c-0.6,1.6-1,3.4-1.1,5.1l-2.7,35.3
				c-0.2,2.7,0.7,5.3,2.5,7.3c1.8,2,4.4,3.1,7,3.1h4.7c2.1,0,3.8-1.7,3.8-3.8s-1.7-3.8-3.8-3.8h-4.7c-0.6,0-1.1-0.2-1.5-0.7
				c-0.4-0.4-0.6-1-0.5-1.5l2.7-35.3c0.1-1.1,0.3-2.1,0.7-3.1c1.6-4.3,5.9-7.2,10.7-7.3l0.6,0c0,0,0.1,0,0.1,0
				c4.7,0,8.8,2.6,10.5,6.8c0.5,1.2,0.8,2.4,0.9,3.6l2.8,35.3c0,0.6-0.2,1.1-0.5,1.5c-0.4,0.4-0.9,0.7-1.5,0.7h-4.7
				c-2.1,0-3.8,1.7-3.8,3.8s1.7,3.8,3.8,3.8h4.7c2.7,0,5.2-1.1,7-3.1c1.8-2,2.7-4.6,2.5-7.3l-2.8-35.3c-0.2-2.1-0.7-4.1-1.5-6
				c-2.5-5.9-7.8-10-14.1-11.1v-9.7l13-3.9c1.2,2.5,3.5,7.9,8.2,19.4c4.7,11.7,10.5,26.7,16,41.2c0,0.1,0.1,0.2,0.1,0.4
				c3.7,9.7,7.3,19.2,10.4,27.5c0.6,1.5,2,2.4,3.5,2.4c1.6,0,3-1,3.5-2.4c3.1-8.2,6.7-17.7,10.4-27.5c0.1-0.1,0.1-0.2,0.1-0.4
				c5.6-14.6,11.4-29.5,16-41.2c4.6-11.6,7-17,8.2-19.5l13,3.9v22.3c-9,1.7-15.8,9.7-15.8,19.2c0,10.8,8.8,19.5,19.5,19.5
				s19.5-8.8,19.5-19.5c0-9.5-6.8-17.4-15.7-19.2v-20l28.5,8.6c4.2,1.3,7.3,4.8,8.1,9.1l11.4,66.8c0.2,1.1-0.1,2.2-0.8,3
				c-0.7,0.9-1.7,1.3-2.9,1.3h-206.1c-1.1,0-2.1-0.5-2.9-1.3c-0.7-0.9-1-1.9-0.8-3l3.8-22c0.4-2.1-1-4-3.1-4.4c-2.1-0.4-4,1-4.4,3.1
				l-3.8,22c-0.6,3.3,0.4,6.6,2.5,9.2c2.2,2.5,5.3,4,8.6,4h206.1c3.3,0,6.5-1.5,8.6-4C2218.3,860.9,2219.2,857.5,2218.6,854.3z
				 M2154.5,686.2c2-0.5,3.6-0.5,3.6-0.5c0.7,0,1.3-0.1,1.8-0.4c0.2,0.4,0.3,0.9,0.3,1.3v5.7c0,2-1.6,3.6-3.6,3.6h-2.1V686.2
				L2154.5,686.2z M2054.4,696L2054.4,696h-2.1c-2,0-3.6-1.6-3.6-3.6v-5.7c0-0.5,0.1-0.9,0.3-1.3c0.6,0.3,1.2,0.4,1.8,0.4
				c0,0,1.6,0,3.6,0.5V696L2054.4,696z M2062,700.3v-9.9c1.1,0.3,2.4,0.3,3.6-0.2c2-0.8,3.3-2.7,3.3-4.9v-34.9
				c0-4.2,3.5-7.7,7.7-7.7h10.4c1.9,0,3.7,0.6,5.1,1.8l1,0.8c3.2,2.6,7.3,4.1,11.5,4.1c4.2,0,8.2-1.5,11.5-4.1l1-0.8
				c1.4-1.2,3.3-1.8,5.1-1.8h10.4c4.2,0,7.7,3.5,7.7,7.7v34.9c0,2.1,1.3,4.1,3.3,4.9c0.7,0.3,1.4,0.4,2,0.4c0.5,0,1-0.1,1.5-0.2v9.9
				c0,5.5-3.8,16.2-10.9,25.2c-2.3,3-5.3,6.2-9,9c-0.1,0.1-0.2,0.2-0.3,0.3c-5.7,4.2-13.1,7.5-22.3,7.5s-16.5-3.2-22.3-7.5
				c-0.1-0.1-0.2-0.2-0.3-0.3c-3.7-2.8-6.7-6-9-9C2065.8,716.5,2062,705.8,2062,700.3z M2129.2,761.2l-24.7,18.5l-24.7-18.5
				c2.5-3.1,3.8-7.1,3.8-10.7v-6.1c5.8,3.1,12.8,5.2,20.9,5.2s15.1-2.1,20.9-5.2v6.1C2125.4,754.1,2126.8,758.1,2129.2,761.2z
				 M2073.4,757c-2-0.8-4.3-0.9-6.4-0.3c-0.1,0-0.2,0-0.3,0.1l-13,3.9c2.2-10.8,11-19.5,22.3-21.2v11
				C2076,752.9,2075,755.4,2073.4,757z M2083.7,787.3C2083.7,787.3,2083.7,787.3,2083.7,787.3c-0.2-0.5-0.4-1-0.6-1.5
				c0-0.1-0.1-0.2-0.1-0.3c-0.2-0.5-0.4-0.9-0.5-1.4c0,0,0-0.1,0-0.1c-0.6-1.4-1.1-2.8-1.6-4c0-0.1-0.1-0.2-0.1-0.3
				c-0.1-0.4-0.3-0.7-0.4-1.1c-0.1-0.1-0.1-0.3-0.2-0.4c-0.1-0.3-0.3-0.7-0.4-1c0-0.1-0.1-0.2-0.1-0.3c-0.3-0.6-0.5-1.2-0.7-1.8
				c-0.1-0.2-0.1-0.3-0.2-0.5c-0.1-0.2-0.2-0.5-0.3-0.7c-0.1-0.2-0.2-0.5-0.3-0.7c0-0.1-0.1-0.2-0.1-0.3c0-0.1-0.1-0.1-0.1-0.2
				c-0.4-1.1-0.9-2.1-1.2-3c0,0,0,0,0,0c-0.2-0.5-0.4-1-0.6-1.5c-0.1-0.2-0.2-0.5-0.3-0.7l21.3,15.9l-8.9,3.8c0,0,0,0,0,0l-3.7,1.6
				C2084.1,788.4,2083.9,787.9,2083.7,787.3z M2092.7,810.5c-0.7-1.9-1.5-3.9-2.2-5.8c-1.2-3-2.3-5.9-3.4-8.7l1.4-0.6l5.8,6.7
				L2092.7,810.5z M2104.6,841.1c-0.1-0.2-0.2-0.4-0.4-0.6c-1.7-4.5-3.9-10.2-6.3-16.5l3.5-19.3h6.1l3.5,19.3
				C2108.6,830.6,2106.3,836.5,2104.6,841.1z M2109,797.2h-8.9l-4.2-4.9l8.7-3.7l8.7,3.7L2109,797.2z M2118.5,804.6
				c-0.8,1.9-1.5,3.9-2.2,5.8l-1.5-8.4l5.8-6.7l1.4,0.6C2120.8,798.7,2119.7,801.6,2118.5,804.6z M2133,768.4
				c-0.2,0.4-0.4,0.9-0.6,1.4c0,0.1-0.1,0.1-0.1,0.2c-0.2,0.5-0.4,0.9-0.6,1.4c0,0,0,0.1,0,0.1c-0.2,0.4-0.4,0.9-0.5,1.3
				c0,0.1-0.1,0.2-0.1,0.2c0,0.1-0.1,0.2-0.1,0.3c-0.1,0.2-0.2,0.4-0.3,0.6c-0.1,0.3-0.2,0.5-0.3,0.8c0,0.1-0.1,0.2-0.1,0.3
				c-0.3,0.6-0.5,1.3-0.8,2c0,0.1-0.1,0.2-0.1,0.3c-0.1,0.3-0.3,0.7-0.4,1c-0.1,0.1-0.1,0.3-0.2,0.4c-0.1,0.4-0.3,0.7-0.4,1.1
				c0,0.1-0.1,0.2-0.1,0.3c-0.5,1.3-1,2.6-1.6,4c0,0,0,0.1-0.1,0.1c-0.2,0.4-0.4,0.9-0.5,1.4c0,0.1-0.1,0.2-0.1,0.3
				c-0.2,0.5-0.4,1-0.6,1.4c0,0,0,0,0,0c-0.2,0.5-0.4,1.1-0.6,1.6l-3.7-1.6c0,0,0,0,0,0l-8.9-3.8l21.3-15.9
				C2133.2,767.9,2133.1,768.1,2133,768.4z M2142.2,756.8C2142.2,756.8,2142.2,756.8,2142.2,756.8
				C2142.1,756.8,2142.1,756.8,2142.2,756.8c-2.2-0.7-4.5-0.6-6.6,0.2c-1.5-1.7-2.6-4.1-2.6-6.5v-11c11.3,1.7,20.1,10.2,22.3,21.2
				L2142.2,756.8z M2171.5,810.2c0,6.6-5.4,12-12,12s-12-5.4-12-12s5.4-12,12-12S2171.5,803.6,2171.5,810.2z"/>
		</g>
	</g>
	<g>
		<g>
			<path class="st1" d="M810.9,1237.3l-8-43.7c-0.9-4.7-4.3-8.5-8.9-9.8l-20.3-5.8c-0.5-4.9-2.6-9.6-6-13.2c-2.7-2.9-6.1-5-9.9-6.2
				c0.6-0.7,1.2-1.4,1.7-2.1c4.7-6.2,7.2-12.9,7.8-17.5l1.6,0c4,0,7.3-3.4,7.3-7.4l0-3.8c0-2.7-1.6-5.1-3.9-6.4l-0.1-9.1
				c0-1.4-1.1-2.5-2.5-2.4c-1.4,0-2.5,1.1-2.4,2.5l0.1,10.2c-1,0.2-2.1,0.5-3.3,1c-0.1,0-0.2,0.1-0.3,0.2c-0.3,0.1-0.5,0.3-0.8,0.4
				l-0.2-20c-0.1-5.5-4.6-9.9-10.1-9.9l-6.8,0.1c-2.4,0-4.7,0.9-6.5,2.4l-0.7,0.6c-1.2,1-2.8,1.6-4.4,1.6c-1.6,0-3.2-0.5-4.4-1.5
				l-0.7-0.5c-1.8-1.5-4.2-2.3-6.5-2.2l-6.8,0.1c-5.5,0.1-9.9,4.6-9.9,10.1l0.2,20c-0.3-0.1-0.5-0.3-0.8-0.4
				c-0.1-0.1-0.2-0.1-0.4-0.2c-1.2-0.5-2.3-0.8-3.3-0.9l-0.3-25.7c-0.1-8,6.3-14.6,14.4-14.7l36.5-0.4c8-0.1,14.6,6.3,14.7,14.4
				l0,3.9c0,1.4,1.1,2.5,2.5,2.4s2.5-1.1,2.4-2.5l0-3.9c-0.1-10.8-9-19.4-19.7-19.3l-36.5,0.4c-10.8,0.1-19.4,9-19.3,19.7l0.3,24.6
				c-2.3,1.3-3.8,3.8-3.7,6.5l0,3.8c0,4,3.4,7.3,7.4,7.3l1.6,0c0.7,4.6,3.4,11.3,8.2,17.3c0.6,0.7,1.2,1.4,1.8,2.1
				c-8.5,2.8-14.7,10.6-15.4,19.7l-20.1,6.3c-4.6,1.4-7.9,5.3-8.6,10l-2.8,17.8c-0.2,1.4,0.7,2.6,2.1,2.8c1.4,0.2,2.6-0.7,2.8-2.1
				l2.8-17.8c0.5-2.9,2.5-5.2,5.2-6.1l18.6-5.9l0.1,4.9c-4.3,0.8-7.9,3.8-9.3,7.9c-0.4,1.1-0.6,2.2-0.7,3.4l-1.5,23.2
				c-0.1,1.7,0.5,3.5,1.7,4.7c1.2,1.3,2.9,2,4.6,2l3.1,0c1.4,0,2.5-1.1,2.4-2.5c0-1.4-1.1-2.5-2.5-2.4l-3.1,0c-0.4,0-0.7-0.1-1-0.4
				c-0.3-0.3-0.4-0.6-0.4-1l1.5-23.2c0-0.7,0.2-1.4,0.4-2c1-2.8,3.8-4.8,7-4.9l0.4,0c0,0,0,0,0.1,0c3.1,0,5.8,1.7,7,4.4
				c0.3,0.8,0.5,1.6,0.6,2.4l2.1,23.1c0,0.4-0.1,0.7-0.3,1c-0.2,0.3-0.6,0.4-1,0.4l-3.1,0c-1.4,0-2.5,1.1-2.4,2.5s1.1,2.5,2.5,2.4
				l3.1,0c1.7,0,3.4-0.8,4.6-2.1c1.2-1.3,1.8-3,1.6-4.8l-2.1-23.1c-0.1-1.4-0.5-2.7-1-3.9c-1.7-3.8-5.2-6.5-9.3-7.1l-0.1-6.4
				l8.5-2.7c0.8,1.6,2.4,5.1,5.5,12.7c3.2,7.6,7.1,17.4,10.9,26.9c0,0.1,0.1,0.2,0.1,0.2c2.5,6.3,5,12.6,7,17.9
				c0.4,1,1.3,1.6,2.3,1.6c1,0,1.9-0.7,2.3-1.6c2-5.4,4.2-11.7,6.6-18.1c0-0.1,0.1-0.2,0.1-0.2c3.5-9.6,7.2-19.5,10.2-27.2
				c3-7.6,4.4-11.2,5.2-12.8l8.5,2.5l0.2,14.6c-5.9,1.2-10.3,6.5-10.2,12.7c0.1,7.1,5.9,12.7,13,12.7c7.1-0.1,12.7-5.9,12.7-13
				c-0.1-6.2-4.6-11.3-10.5-12.4l-0.2-13.1l18.7,5.4c2.8,0.8,4.8,3.1,5.4,5.9l8,43.7c0.1,0.7-0.1,1.4-0.5,2
				c-0.5,0.6-1.1,0.9-1.9,0.9l-135.2,1.7c-0.7,0-1.4-0.3-1.9-0.9c-0.5-0.6-0.7-1.3-0.6-2l2.3-14.5c0.2-1.4-0.7-2.6-2.1-2.8
				c-1.4-0.2-2.6,0.7-2.8,2.1l-2.3,14.5c-0.3,2.2,0.3,4.4,1.7,6c1.4,1.7,3.5,2.6,5.7,2.6l135.2-1.7c2.2,0,4.2-1,5.6-2.7
				C810.7,1241.7,811.3,1239.5,810.9,1237.3z M767.5,1127.6c1.3-0.3,2.4-0.4,2.4-0.4c0.4,0,0.8-0.1,1.2-0.3c0.1,0.3,0.2,0.6,0.2,0.9
				l0,3.8c0,1.3-1,2.4-2.4,2.4l-1.4,0L767.5,1127.6L767.5,1127.6z M701.9,1134.8L701.9,1134.8l-1.4,0c-1.3,0-2.4-1-2.4-2.4l0-3.8
				c0-0.3,0.1-0.6,0.2-0.9c0.4,0.2,0.8,0.3,1.2,0.3c0,0,1.1,0,2.4,0.3L701.9,1134.8L701.9,1134.8z M706.9,1137.5l-0.1-6.5
				c0.8,0.2,1.6,0.2,2.3-0.2c1.3-0.6,2.1-1.8,2.1-3.2l-0.3-22.9c0-2.8,2.2-5.1,5-5.1l6.8-0.1c1.2,0,2.4,0.4,3.4,1.2l0.7,0.5
				c2.1,1.7,4.8,2.6,7.5,2.6c2.7,0,5.4-1,7.5-2.8l0.7-0.6c0.9-0.8,2.1-1.2,3.3-1.2l6.8-0.1c2.8,0,5.1,2.2,5.1,5l0.3,22.9
				c0,1.4,0.9,2.7,2.2,3.2c0.4,0.2,0.9,0.3,1.3,0.3c0.3,0,0.7-0.1,1-0.2l0.1,6.5c0,3.6-2.4,10.7-6.9,16.6c-1.5,2-3.5,4.1-5.9,6
				c-0.1,0.1-0.1,0.1-0.2,0.2c-3.7,2.8-8.5,5-14.5,5.1s-10.9-2-14.7-4.7c-0.1-0.1-0.1-0.1-0.2-0.2c-2.5-1.8-4.5-3.9-6-5.8
				C709.5,1148.1,706.9,1141.1,706.9,1137.5z M751.5,1177l-16.1,12.3l-16.4-11.9c1.6-2.1,2.5-4.7,2.4-7l0-4c3.8,2,8.4,3.3,13.8,3.3
				c5.3-0.1,9.9-1.5,13.7-3.6l0,4C748.9,1172.4,749.8,1175,751.5,1177z M714.9,1174.7c-1.3-0.5-2.8-0.6-4.2-0.2c-0.1,0-0.1,0-0.2,0
				l-8.5,2.7c1.4-7.1,7.1-12.9,14.4-14.1l0.1,7.2C716.5,1172,715.8,1173.6,714.9,1174.7z M721.8,1194.5
				C721.8,1194.5,721.8,1194.5,721.8,1194.5c-0.1-0.4-0.3-0.7-0.4-1c0-0.1,0-0.1-0.1-0.2c-0.1-0.3-0.2-0.6-0.4-0.9c0,0,0,0,0-0.1
				c-0.4-0.9-0.7-1.8-1.1-2.6c0-0.1-0.1-0.1-0.1-0.2c-0.1-0.2-0.2-0.5-0.3-0.7c0-0.1-0.1-0.2-0.1-0.3c-0.1-0.2-0.2-0.5-0.3-0.7
				c0-0.1-0.1-0.1-0.1-0.2c-0.2-0.4-0.3-0.8-0.5-1.2c0-0.1-0.1-0.2-0.1-0.3c-0.1-0.1-0.1-0.3-0.2-0.4c-0.1-0.2-0.1-0.3-0.2-0.5
				c0-0.1,0-0.1-0.1-0.2c0,0,0-0.1-0.1-0.1c-0.3-0.7-0.6-1.3-0.8-2c0,0,0,0,0,0c-0.1-0.3-0.3-0.6-0.4-0.9c-0.1-0.2-0.1-0.3-0.2-0.5
				l14.1,10.3l-5.8,2.5c0,0,0,0,0,0l-2.4,1.1C722.1,1195.2,722,1194.8,721.8,1194.5z M727.9,1209.6c-0.5-1.3-1-2.5-1.5-3.8
				c-0.8-2-1.6-3.9-2.3-5.7l0.9-0.4l3.8,4.3L727.9,1209.6z M735.9,1229.6c-0.1-0.1-0.2-0.3-0.3-0.4c-1.2-2.9-2.6-6.7-4.2-10.8
				l2.2-12.7l4,0l2.5,12.6C738.5,1222.7,737,1226.6,735.9,1229.6z M738.5,1200.7l-5.9,0.1l-2.8-3.2l5.7-2.5l5.7,2.4L738.5,1200.7z
				 M744.8,1205.6c-0.5,1.3-1,2.6-1.4,3.8l-1.1-5.5l3.7-4.4l0.9,0.4C746.3,1201.6,745.6,1203.5,744.8,1205.6z M754,1181.6
				c-0.1,0.3-0.2,0.6-0.4,0.9c0,0,0,0.1,0,0.1c-0.1,0.3-0.3,0.6-0.4,1c0,0,0,0,0,0.1c-0.1,0.3-0.2,0.6-0.3,0.9c0,0.1,0,0.1-0.1,0.2
				c0,0.1-0.1,0.1-0.1,0.2c-0.1,0.1-0.1,0.3-0.2,0.4c-0.1,0.2-0.1,0.3-0.2,0.5c0,0.1,0,0.1-0.1,0.2c-0.2,0.4-0.3,0.9-0.5,1.3
				c0,0.1-0.1,0.1-0.1,0.2c-0.1,0.2-0.2,0.4-0.3,0.7c0,0.1-0.1,0.2-0.1,0.3c-0.1,0.2-0.2,0.5-0.3,0.7c0,0.1-0.1,0.1-0.1,0.2
				c-0.3,0.8-0.7,1.7-1,2.6c0,0,0,0.1,0,0.1c-0.1,0.3-0.2,0.6-0.3,0.9c0,0.1,0,0.1-0.1,0.2c-0.1,0.3-0.2,0.6-0.4,0.9c0,0,0,0,0,0
				c-0.1,0.3-0.3,0.7-0.4,1l-2.4-1c0,0,0,0,0,0l-5.9-2.4l13.8-10.6C754.1,1181.3,754.1,1181.5,754,1181.6z M759.9,1174
				C759.9,1174,759.9,1174,759.9,1174C759.9,1174,759.9,1174,759.9,1174c-1.4-0.4-3-0.3-4.4,0.2c-1-1.1-1.7-2.7-1.7-4.2l-0.1-7.2
				c7.4,1,13.3,6.5,14.8,13.7L759.9,1174z M779.6,1208.8c0.1,4.3-3.4,7.9-7.8,8c-4.3,0.1-7.9-3.4-8-7.8c-0.1-4.3,3.4-7.9,7.8-8
				S779.5,1204.5,779.6,1208.8z"/>
		</g>
	</g>
	<g>
		<path class="st1" d="M1529.5,1516.3c2.4,0,4.3-1.9,4.3-4.3v-46c0-2.4-1.9-4.3-4.3-4.3h-23.2c-2.4,0-4.3,1.9-4.3,4.3v46
			c0,2.4,1.9,4.3,4.3,4.3H1529.5z M1510.6,1470.3h14.6v37.4h-14.6V1470.3z"/>
		<path class="st1" d="M1550.4,1516.3h23.2c2.4,0,4.3-1.9,4.3-4.3v-46c0-2.4-1.9-4.3-4.3-4.3h-23.2c-2.4,0-4.3,1.9-4.3,4.3v46
			C1546.1,1514.4,1548,1516.3,1550.4,1516.3z M1554.7,1470.3h14.6v37.4h-14.6V1470.3z"/>
		<path class="st1" d="M1470.2,1582.4c2.4,0,4.3-1.9,4.3-4.3v-46c0-2.4-1.9-4.3-4.3-4.3H1447c-2.4,0-4.3,1.9-4.3,4.3v46
			c0,2.4,1.9,4.3,4.3,4.3H1470.2z M1451.3,1536.5h14.6v37.4h-14.6V1536.5z"/>
		<path class="st1" d="M1653.7,1582.4h23.2c2.4,0,4.3-1.9,4.3-4.3v-46c0-2.4-1.9-4.3-4.3-4.3h-23.2c-2.4,0-4.3,1.9-4.3,4.3v46
			C1649.5,1580.5,1651.4,1582.4,1653.7,1582.4z M1658,1536.5h14.6v37.4H1658V1536.5z"/>
		<path class="st1" d="M1594.4,1516.3h23.2c2.4,0,4.3-1.9,4.3-4.3v-46c0-2.4-1.9-4.3-4.3-4.3h-23.2c-2.4,0-4.3,1.9-4.3,4.3v46
			C1590.2,1514.4,1592.1,1516.3,1594.4,1516.3z M1598.7,1470.3h14.6v37.4h-14.6V1470.3z"/>
		<path class="st1" d="M1557.7,1405.1c0,2.4,1.9,4.3,4.3,4.3c2.4,0,4.3-1.9,4.3-4.3v-8.8h8.8c2.4,0,4.3-1.9,4.3-4.3
			c0-2.4-1.9-4.3-4.3-4.3h-8.8v-8.8c0-2.4-1.9-4.3-4.3-4.3c-2.4,0-4.3,1.9-4.3,4.3v8.8h-8.8c-2.4,0-4.3,1.9-4.3,4.3
			c0,2.4,1.9,4.3,4.3,4.3h8.8V1405.1z"/>
		<path class="st1" d="M1703.5,1483.9c2.4,0,4.3-1.9,4.3-4.3v-15.4c0-2.4-1.9-4.3-4.3-4.3h-25.9c-2.4,0-4.3,1.9-4.3,4.3
			c0,2.4,1.9,4.3,4.3,4.3h21.6v6.8c-7.2,0-58.6,0-61.7,0v-6.8h18.8c2.4,0,4.3-1.9,4.3-4.3c0-2.4-1.9-4.3-4.3-4.3h-18.8v-20h6.6
			c2.4,0,4.3-1.9,4.3-4.3v-15.4c0-2.4-1.9-4.3-4.3-4.3H1606v-52.2c0-2.4-1.9-4.3-4.3-4.3h-79.5c-2.4,0-4.3,1.9-4.3,4.3v52.2h-38.1
			c-2.4,0-4.3,1.9-4.3,4.3v15.4c0,2.4,1.9,4.3,4.3,4.3h6.6v20h-66c-2.4,0-4.3,1.9-4.3,4.3v15.4c0,2.4,1.9,4.3,4.3,4.3h1.9v28.1
			c0,2.4,1.9,4.3,4.3,4.3s4.3-1.9,4.3-4.3v-28.1h55.5v142.6h-55.5v-93.3c0-2.4-1.9-4.3-4.3-4.3s-4.3,1.9-4.3,4.3v93.3h-1.9
			c-2.4,0-4.3,1.9-4.3,4.3v16.2c0,2.4,1.9,4.3,4.3,4.3h283.2c2.4,0,4.3-1.9,4.3-4.3v-16.2c0-2.4-1.9-4.3-4.3-4.3h-1.9v-142.6H1703.5
			z M1484.1,1424.6h66.4c2.4,0,4.3-1.9,4.3-4.3c0-2.4-1.9-4.3-4.3-4.3h-24v-48h71v48h-22.8c-2.4,0-4.3,1.9-4.3,4.3
			c0,2.4,1.9,4.3,4.3,4.3h65.2v6.8h-155.8V1424.6z M1424.7,1468.5h61.7v6.8h-61.7V1468.5z M1494.9,1439.9H1629v186.6h-24.6v-67.6
			c0-2.4-1.9-4.3-4.3-4.3h-76.3c-2.4,0-4.3,1.9-4.3,4.3v67.6h-24.6V1439.9z M1528.1,1626.5v-63.3h29.6v63.3H1528.1z M1566.2,1563.2
			h29.6v63.3h-29.6V1563.2z M1699.3,1642.7h-274.6v-7.6h274.6V1642.7z M1693.1,1626.5h-55.5v-142.6h55.5L1693.1,1626.5
			L1693.1,1626.5z"/>
	</g>
	<g>
		<path class="st1" d="M374.7,1481.7h-40.5c-4.6-10.4-14.9-17.1-26.2-17.1c-11.4,0-21.7,6.7-26.2,17.1h-40.5
			c-15.3,0-27.6,12.4-27.7,27.7v179.5c0,15.3,12.4,27.6,27.7,27.7h133.5c15.3,0,27.6-12.4,27.7-27.7v-179.5
			C402.3,1494,390,1481.7,374.7,1481.7z M286.3,1494.2c3,0,5.5-2.1,6.2-4.9c1.5-7,8.1-12.2,15.5-12.2s14,5.1,15.5,12.2
			c0.6,2.9,3.2,4.9,6.2,4.9h12.5v5.5c0,8.3-6.8,15.1-15.1,15.1h-38.2c-8.3,0-15.1-6.8-15.1-15.1v-5.5H286.3z M389.8,1688.8
			c0,8.3-6.8,15.1-15.1,15.1H241.2c-8.3,0-15.1-6.8-15.1-15.1v-179.5c0-8.3,6.8-15.1,15.1-15.1h20v5.5c0,15.3,12.4,27.6,27.7,27.7
			h38.2c15.3,0,27.6-12.4,27.7-27.7v-5.5h20c8.3,0,15.1,6.8,15.1,15.1V1688.8z"/>
		<path class="st1" d="M339.1,1580.9l-41.3,40.4l-21-20.5c-2.5-2.4-6.4-2.4-8.9,0.1c-2.4,2.5-2.4,6.4,0,8.9l0.1,0.1l25.4,24.8
			c2.4,2.4,6.4,2.4,8.8,0l45.7-44.7c2.5-2.4,2.5-6.4,0.1-8.9C345.6,1578.6,341.6,1578.5,339.1,1580.9L339.1,1580.9z"/>
	</g>
	<g>
		<path class="st1" d="M751.8,514.7h-23.4c-2.6-6-8.6-9.9-15.1-9.9c-6.6,0-12.5,3.9-15.1,9.9h-23.4c-8.8,0-15.9,7.2-16,16v103.5
			c0,8.8,7.1,16,16,16h77c8.8,0,16-7.2,16-16V530.7C767.8,521.9,760.6,514.7,751.8,514.7z M700.8,522c1.7,0,3.2-1.2,3.5-2.9
			c0.9-4.1,4.7-7,9-7c4.3,0,8.1,3,9,7c0.4,1.7,1.8,2.9,3.5,2.9h7.2v3.2c0,4.8-3.9,8.7-8.7,8.7h-22c-4.8,0-8.7-3.9-8.7-8.7V522H700.8
			z M760.5,634.2c0,4.8-3.9,8.7-8.7,8.7h-77c-4.8,0-8.7-3.9-8.7-8.7V530.7c0-4.8,3.9-8.7,8.7-8.7h11.5v3.2c0,8.8,7.2,15.9,16,16h22
			c8.8,0,15.9-7.1,16-16V522h11.5c4.8,0,8.7,3.9,8.7,8.7V634.2z"/>
		<path class="st1" d="M731.3,572l-23.9,23.3l-12.1-11.8c-1.4-1.4-3.7-1.4-5.1,0c-1.4,1.4-1.4,3.7,0,5.1l0,0l14.6,14.3
			c1.4,1.4,3.7,1.4,5.1,0l26.4-25.8c1.4-1.4,1.4-3.7,0.1-5.1C735,570.6,732.7,570.6,731.3,572L731.3,572z"/>
	</g>
	<g id="healthcare-covid19-coronavirus-hand-hearth">
		<path class="st1" d="M1590.5,623.2h-14.3v-14.3c0-2.6-2.1-4.8-4.8-4.8h-19c-2.6,0-4.8,2.1-4.8,4.8v14.3h-14.3
			c-2.6,0-4.8,2.1-4.8,4.8v19c0,2.6,2.1,4.8,4.8,4.8h14.3V666c0,2.6,2.1,4.8,4.8,4.8h19c2.6,0,4.8-2.1,4.8-4.8v-14.3h14.3
			c2.6,0,4.8-2.1,4.8-4.8v-19C1595.3,625.3,1593.1,623.2,1590.5,623.2z M1585.7,642.2h-14.3c-2.6,0-4.8,2.1-4.8,4.8v14.3h-9.5V647
			c0-2.6-2.1-4.8-4.8-4.8h-14.3v-9.5h14.3c2.6,0,4.8-2.1,4.8-4.8v-14.3h9.5V628c0,2.6,2.1,4.8,4.8,4.8h14.3V642.2z"/>
		<path class="st1" d="M1693.9,648.7c0.1-0.8,0.1-1.7,0.1-2.5c0-9-6.3-16.7-15.1-18.6c-10-1.9-19.8,4.3-22.4,14.1l-20.9,60.2
			c-0.3,0.1-0.6,0.3-0.9,0.4l-42.1,24.6c-13.1,7.7-21.1,21.7-21.2,36.9v44.8c-2.6,0-4.8,2.1-4.8,4.8v38.1c0,2.6,2.1,4.8,4.8,4.8
			h66.6c2.6,0,4.8-2.1,4.8-4.8v-38.1c0-2.6-2.1-4.8-4.8-4.8v-10.5c0-4.1,1.7-7.9,4.8-10.7L1675,759c3.5-3.1,6-7.1,7.2-11.7
			l20.6-77.2c0.4-1.6,0.7-3.3,0.7-4.9C1703.5,658.4,1699.8,652.1,1693.9,648.7z M1665.6,644.5c1.2-5.1,6.1-8.4,11.3-7.6
			c4.4,0.9,7.5,4.8,7.6,9.3v0.1c-8.7,0.2-16.3,6.1-18.5,14.6l-13.3,41c-2-1-4.2-1.6-6.4-1.8L1665.6,644.5z M1633.3,846.8h-57.1
			v-28.5h57.1V846.8z M1693.7,667.7L1673,745c-0.7,2.7-2.2,5.1-4.3,6.9l-32.2,28.6c-5,4.5-7.9,11-7.9,17.8v10.5H1581v-44.8
			c0-11.8,6.3-22.7,16.5-28.7l42-24.6c4.5-2.6,10.4-1.1,13,3.4c0,0,0,0,0,0c1.2,2.2,1.6,4.8,1,7.2c-0.7,2.4-2.3,4.5-4.5,5.8
			l-27.3,15.7c-2.2,1.4-2.9,4.3-1.5,6.6c1.3,2.1,4,2.8,6.2,1.7l27.3-15.7c4.4-2.5,7.6-6.7,8.9-11.6c1.3-4.9,0.6-10.1-1.9-14.4
			l-0.3-0.4l14.7-45.3c1.2-5.1,6.1-8.4,11.3-7.6c4.4,0.9,7.5,4.8,7.6,9.3C1694,666.1,1693.9,666.9,1693.7,667.7z"/>
		<path class="st1" d="M1552.4,808.8v-44.8c0-15.2-8.1-29.2-21.2-36.9l-42.1-24.7c-0.3-0.1-0.6-0.2-0.9-0.4l-20.8-59.9
			c-2.5-10-12.4-16.3-22.5-14.5c-8.8,1.9-15.1,9.6-15.1,18.6c0,0.8,0,1.7,0.1,2.5c-5.9,3.4-9.6,9.7-9.7,16.5c0,1.7,0.2,3.3,0.6,4.9
			l20.7,77.2c1.2,4.5,3.7,8.6,7.2,11.7l32.1,28.6c3,2.7,4.8,6.6,4.8,10.7v10.5c-2.6,0-4.8,2.1-4.8,4.8v38.1c0,2.6,2.1,4.8,4.8,4.8
			h66.6c2.6,0,4.8-2.1,4.8-4.8v-38.1C1557.2,810.9,1555.1,808.8,1552.4,808.8z M1439.4,646.2c0-4.5,3.1-8.3,7.5-9.3
			c5.3-0.8,10.3,2.7,11.5,7.9l19.1,55.1c-2.2,0.2-4.4,0.9-6.4,1.8l-13.2-40.7C1455.8,652.6,1448.2,646.5,1439.4,646.2L1439.4,646.2z
			 M1487.4,780.5l-32.2-28.6c-2.1-1.9-3.6-4.3-4.3-7l-20.7-77.2c-0.2-0.8-0.3-1.6-0.3-2.5c0-4.5,3.1-8.3,7.5-9.3
			c5.3-0.8,10.3,2.6,11.5,7.8l14.6,45.1l-0.3,0.4c-2.5,4.4-3.2,9.5-1.9,14.4c1.3,4.9,4.5,9.1,8.9,11.6l27.3,15.7
			c2.3,1.2,5.2,0.3,6.4-2c1.1-2.2,0.4-4.9-1.7-6.2l-27.3-15.7c-2.2-1.2-3.8-3.3-4.5-5.8c-0.6-2.4-0.3-5,1-7.2
			c2.6-4.6,8.4-6.1,13-3.5c0,0,0,0,0,0l42.1,24.6c10.2,6,16.4,16.9,16.5,28.7v44.8h-47.6v-10.5
			C1495.3,791.5,1492.4,785,1487.4,780.5z M1547.7,846.8h-57.1v-28.5h57.1V846.8z"/>
		<path class="st1" d="M1629.3,585.8c-18.6-18.6-48.7-18.6-67.2-0.1c0,0,0,0-0.1,0.1l0,0l0,0c-18.5-18.6-48.6-18.6-67.2-0.1
			c0,0,0,0-0.1,0.1c-18.5,18.6-18.5,48.7,0,67.2l63.9,63.9c1.9,1.9,4.9,1.9,6.7,0l63.9-63.9C1647.8,634.5,1647.8,604.4,1629.3,585.8
			z M1562,706.9l-60.6-60.6c-14.9-14.9-14.8-39,0-53.8c7.1-7.1,16.8-11.1,26.9-11.1c10.1,0,19.8,4,26.9,11.2l3.4,3.4
			c1.9,1.9,4.9,1.9,6.7,0l3.4-3.4c14.8-14.9,38.9-14.9,53.8,0c0,0,0,0,0,0c14.8,14.9,14.8,38.9,0,53.8L1562,706.9z"/>
	</g>
	<g id="healthcare-covid19-coronavirus-hand-hearth_1_">
		<path class="st1" d="M1095.1,1480.3h-8.3v-8.3c0-1.5-1.2-2.8-2.8-2.8H1073c-1.5,0-2.8,1.2-2.8,2.8v8.3h-8.3
			c-1.5,0-2.8,1.2-2.8,2.8v11.1c0,1.5,1.2,2.8,2.8,2.8h8.3v8.3c0,1.5,1.2,2.8,2.8,2.8h11.1c1.5,0,2.8-1.2,2.8-2.8v-8.3h8.3
			c1.5,0,2.8-1.2,2.8-2.8V1483C1097.9,1481.5,1096.6,1480.3,1095.1,1480.3z M1092.4,1491.4h-8.3c-1.5,0-2.8,1.2-2.8,2.8v8.3h-5.5
			v-8.3c0-1.5-1.2-2.8-2.8-2.8h-8.3v-5.5h8.3c1.5,0,2.8-1.2,2.8-2.8v-8.3h5.5v8.3c0,1.5,1.2,2.8,2.8,2.8h8.3V1491.4z"/>
		<path class="st1" d="M1155.3,1495.1c0.1-0.5,0.1-1,0.1-1.5c0-5.2-3.7-9.7-8.8-10.8c-5.8-1.1-11.5,2.5-13,8.2l-12.2,35.1
			c-0.2,0.1-0.4,0.2-0.5,0.2l-24.5,14.3c-7.6,4.5-12.3,12.6-12.3,21.5v26.1c-1.5,0-2.8,1.2-2.8,2.8v22.1c0,1.5,1.2,2.8,2.8,2.8h38.8
			c1.5,0,2.8-1.2,2.8-2.8V1591c0-1.5-1.2-2.8-2.8-2.8v-6.1c0-2.4,1-4.6,2.8-6.2l18.7-16.6c2-1.8,3.5-4.2,4.2-6.8l12-44.9
			c0.3-0.9,0.4-1.9,0.4-2.9C1160.9,1500.8,1158.7,1497.1,1155.3,1495.1z M1138.8,1492.7c0.7-3,3.6-4.9,6.6-4.4
			c2.6,0.5,4.4,2.8,4.4,5.4v0.1c-5.1,0.1-9.5,3.6-10.8,8.5l-7.7,23.8c-1.2-0.6-2.4-0.9-3.7-1.1L1138.8,1492.7z M1120,1610.4h-33.2
			v-16.6h33.2V1610.4z M1155.2,1506.2l-12,45c-0.4,1.6-1.3,3-2.5,4l-18.7,16.6c-2.9,2.6-4.6,6.4-4.6,10.4v6.1h-27.7v-26.1
			c0-6.9,3.7-13.2,9.6-16.7l24.4-14.3c2.6-1.5,6-0.6,7.6,2c0,0,0,0,0,0c0.7,1.3,0.9,2.8,0.6,4.2c-0.4,1.4-1.3,2.6-2.6,3.4l-15.9,9.2
			c-1.3,0.8-1.7,2.5-0.9,3.8c0.8,1.2,2.3,1.6,3.6,1l15.9-9.2c2.6-1.5,4.4-3.9,5.2-6.7c0.8-2.8,0.4-5.8-1.1-8.4l-0.2-0.2l8.6-26.4
			c0.7-3,3.6-4.9,6.6-4.4c2.6,0.5,4.4,2.8,4.4,5.4C1155.4,1505.2,1155.3,1505.7,1155.2,1506.2z"/>
		<path class="st1" d="M1073,1588.3v-26.1c0-8.8-4.7-17-12.3-21.5l-24.5-14.4c-0.2-0.1-0.4-0.1-0.5-0.2l-12.1-34.9
			c-1.5-5.8-7.2-9.5-13.1-8.4c-5.1,1.1-8.8,5.6-8.8,10.8c0,0.5,0,1,0.1,1.5c-3.5,2-5.6,5.6-5.6,9.6c0,1,0.1,1.9,0.4,2.9l12,44.9
			c0.7,2.6,2.2,5,4.2,6.8l18.7,16.6c1.8,1.6,2.8,3.8,2.8,6.2v6.1c-1.5,0-2.8,1.2-2.8,2.8v22.1c0,1.5,1.2,2.8,2.8,2.8h38.8
			c1.5,0,2.8-1.2,2.8-2.8V1591C1075.7,1589.5,1074.5,1588.3,1073,1588.3z M1007.2,1493.7c0-2.6,1.8-4.9,4.4-5.4
			c3.1-0.4,6,1.6,6.7,4.6l11.1,32.1c-1.3,0.1-2.5,0.5-3.7,1.1l-7.7-23.7C1016.7,1497.4,1012.3,1493.8,1007.2,1493.7L1007.2,1493.7z
			 M1035.1,1571.8l-18.7-16.6c-1.2-1.1-2.1-2.5-2.5-4.1l-12.1-44.9c-0.1-0.5-0.2-1-0.2-1.4c0-2.6,1.8-4.9,4.4-5.4
			c3.1-0.5,6,1.5,6.7,4.6l8.5,26.2l-0.2,0.2c-1.5,2.5-1.9,5.6-1.1,8.4c0.7,2.8,2.6,5.3,5.2,6.7l15.9,9.2c1.4,0.7,3,0.2,3.7-1.2
			c0.7-1.3,0.2-2.8-1-3.6l-15.9-9.2c-1.3-0.7-2.2-1.9-2.6-3.4c-0.4-1.4-0.2-2.9,0.6-4.2c1.5-2.7,4.9-3.6,7.6-2c0,0,0,0,0,0
			l24.5,14.3c5.9,3.5,9.6,9.9,9.6,16.7v26.1h-27.7v-6.1C1039.7,1578.2,1038,1574.4,1035.1,1571.8z M1070.2,1610.4H1037v-16.6h33.2
			V1610.4z"/>
		<path class="st1" d="M1117.7,1458.5c-10.8-10.8-28.3-10.8-39.1,0c0,0,0,0,0,0l0,0l0,0c-10.8-10.8-28.3-10.8-39.1,0c0,0,0,0,0,0
			c-10.8,10.8-10.8,28.3,0,39.1l37.2,37.2c1.1,1.1,2.8,1.1,3.9,0l37.2-37.2C1128.5,1486.8,1128.5,1469.3,1117.7,1458.5z
			 M1078.5,1529l-35.3-35.3c-8.6-8.7-8.6-22.7,0-31.3c4.2-4.1,9.8-6.5,15.7-6.5c5.9,0,11.5,2.3,15.7,6.5l2,2c1.1,1.1,2.8,1.1,3.9,0
			l2-2c8.6-8.7,22.6-8.7,31.3,0c0,0,0,0,0,0c8.6,8.6,8.6,22.7,0,31.3L1078.5,1529z"/>
	</g>
</g>
</svg>
